<?xml version="1.0" encoding="utf-8" standalone="no"?>
<!DOCTYPE svg PUBLIC "-//W3C//DTD SVG 1.1//EN"
  "http://www.w3.org/Graphics/SVG/1.1/DTD/svg11.dtd">
<svg xmlns:xlink="http://www.w3.org/1999/xlink" width="490.79952pt" height="235.199516pt" viewBox="0 0 490.79952 235.199516" xmlns="http://www.w3.org/2000/svg" version="1.1">
 <metadata>
  <rdf:RDF xmlns:dc="http://purl.org/dc/elements/1.1/" xmlns:cc="http://creativecommons.org/ns#" xmlns:rdf="http://www.w3.org/1999/02/22-rdf-syntax-ns#">
   <cc:Work>
    <dc:type rdf:resource="http://purl.org/dc/dcmitype/StillImage"/>
    <dc:date>2026-08-25T17:14:23.961777</dc:date>
    <dc:format>image/svg+xml</dc:format>
    <dc:creator>
     <cc:Agent>
      <dc:title>Matplotlib v3.10.9, https://matplotlib.org/</dc:title>
     </cc:Agent>
    </dc:creator>
   </cc:Work>
  </rdf:RDF>
 </metadata>
 <defs>
  <style type="text/css">*{stroke-linejoin: round; stroke-linecap: butt}</style>
 </defs>
 <g id="figure_1">
  <g id="patch_1">
   <path d="M 0 235.199516 
L 490.79952 235.199516 
L 490.79952 -0 
L 0 -0 
z
" style="fill: #ffffff"/>
  </g>
  <g id="axes_1">
   <g id="patch_2">
    <path d="M 35.405938 201.444047 
L 237.944676 201.444047 
L 237.944676 23.645234 
L 35.405938 23.645234 
z
" style="fill: #ffffff"/>
   </g>
   <g id="matplotlib.axis_1">
    <g id="xtick_1">
     <g id="line2d_1">
      <path d="M 35.405938 201.444047 
L 35.405938 23.645234 
" clip-path="url(#pd4d043c96d)" style="fill: none; stroke: #d8d8d8; stroke-opacity: 0.7; stroke-width: 0.5; stroke-linecap: square"/>
     </g>
     <g id="line2d_2">
      <defs>
       <path id="m6f32be0b3a" d="M 0 0 
L 0 3.5 
" style="stroke: #000000; stroke-width: 0.8"/>
      </defs>
      <g>
       <use xlink:href="#m6f32be0b3a" x="35.405938" y="201.444047" style="stroke: #000000; stroke-width: 0.8"/>
      </g>
     </g>
     <g id="text_1">
      <!-- 0.0 -->
      <g transform="translate(30.951094 214.002485) scale(0.07 -0.07)">
       <defs>
        <path id="NotoSansSC-Thin-30" d="M 1670 -83 
Q 1261 -83 963 179 
Q 666 442 509 979 
Q 352 1517 352 2336 
Q 352 3149 509 3677 
Q 666 4205 963 4467 
Q 1261 4730 1670 4730 
Q 2080 4730 2371 4467 
Q 2662 4205 2822 3677 
Q 2982 3149 2982 2336 
Q 2982 1517 2822 979 
Q 2662 442 2371 179 
Q 2080 -83 1670 -83 
z
M 1670 128 
Q 1997 128 2240 384 
Q 2483 640 2614 1133 
Q 2746 1626 2746 2336 
Q 2746 3040 2614 3529 
Q 2483 4019 2240 4272 
Q 1997 4525 1670 4525 
Q 1344 4525 1101 4272 
Q 858 4019 723 3529 
Q 589 3040 589 2336 
Q 589 1626 723 1133 
Q 858 640 1101 384 
Q 1344 128 1670 128 
z
" transform="scale(0.015625)"/>
        <path id="NotoSansSC-Thin-2e" d="M 736 -83 
Q 640 -83 560 -9 
Q 480 64 480 192 
Q 480 333 560 406 
Q 640 480 736 480 
Q 838 480 918 406 
Q 998 333 998 192 
Q 998 64 918 -9 
Q 838 -83 736 -83 
z
" transform="scale(0.015625)"/>
       </defs>
       <use xlink:href="#NotoSansSC-Thin-30"/>
       <use xlink:href="#NotoSansSC-Thin-2e" transform="translate(52.099991 0)"/>
       <use xlink:href="#NotoSansSC-Thin-30" transform="translate(75.199982 0)"/>
      </g>
     </g>
    </g>
    <g id="xtick_2">
     <g id="line2d_3">
      <path d="M 75.913685 201.444047 
L 75.913685 23.645234 
" clip-path="url(#pd4d043c96d)" style="fill: none; stroke: #d8d8d8; stroke-opacity: 0.7; stroke-width: 0.5; stroke-linecap: square"/>
     </g>
     <g id="line2d_4">
      <g>
       <use xlink:href="#m6f32be0b3a" x="75.913685" y="201.444047" style="stroke: #000000; stroke-width: 0.8"/>
      </g>
     </g>
     <g id="text_2">
      <!-- 0.2 -->
      <g transform="translate(71.458841 214.002485) scale(0.07 -0.07)">
       <defs>
        <path id="NotoSansSC-Thin-32" d="M 294 0 
L 294 147 
Q 1120 858 1613 1434 
Q 2106 2010 2323 2499 
Q 2541 2989 2541 3424 
Q 2541 3725 2435 3974 
Q 2330 4224 2106 4371 
Q 1882 4518 1523 4518 
Q 1210 4518 931 4352 
Q 653 4186 442 3923 
L 282 4070 
Q 525 4346 829 4538 
Q 1133 4730 1542 4730 
Q 1939 4730 2214 4566 
Q 2490 4403 2637 4112 
Q 2784 3821 2784 3424 
Q 2784 2918 2537 2406 
Q 2291 1894 1820 1347 
Q 1350 800 678 179 
Q 870 192 1062 201 
Q 1254 211 1440 211 
L 3014 211 
L 3014 0 
L 294 0 
z
" transform="scale(0.015625)"/>
       </defs>
       <use xlink:href="#NotoSansSC-Thin-30"/>
       <use xlink:href="#NotoSansSC-Thin-2e" transform="translate(52.099991 0)"/>
       <use xlink:href="#NotoSansSC-Thin-32" transform="translate(75.199982 0)"/>
      </g>
     </g>
    </g>
    <g id="xtick_3">
     <g id="line2d_5">
      <path d="M 116.421433 201.444047 
L 116.421433 23.645234 
" clip-path="url(#pd4d043c96d)" style="fill: none; stroke: #d8d8d8; stroke-opacity: 0.7; stroke-width: 0.5; stroke-linecap: square"/>
     </g>
     <g id="line2d_6">
      <g>
       <use xlink:href="#m6f32be0b3a" x="116.421433" y="201.444047" style="stroke: #000000; stroke-width: 0.8"/>
      </g>
     </g>
     <g id="text_3">
      <!-- 0.4 -->
      <g transform="translate(111.966589 214.002485) scale(0.07 -0.07)">
       <defs>
        <path id="NotoSansSC-Thin-34" d="M 2195 0 
L 2195 3482 
Q 2195 3629 2204 3843 
Q 2214 4058 2227 4205 
L 2195 4205 
Q 2112 4058 2019 3901 
Q 1926 3744 1830 3590 
L 422 1568 
L 3110 1568 
L 3110 1363 
L 115 1363 
L 115 1485 
L 2259 4646 
L 2419 4646 
L 2419 0 
L 2195 0 
z
" transform="scale(0.015625)"/>
       </defs>
       <use xlink:href="#NotoSansSC-Thin-30"/>
       <use xlink:href="#NotoSansSC-Thin-2e" transform="translate(52.099991 0)"/>
       <use xlink:href="#NotoSansSC-Thin-34" transform="translate(75.199982 0)"/>
      </g>
     </g>
    </g>
    <g id="xtick_4">
     <g id="line2d_7">
      <path d="M 156.929181 201.444047 
L 156.929181 23.645234 
" clip-path="url(#pd4d043c96d)" style="fill: none; stroke: #d8d8d8; stroke-opacity: 0.7; stroke-width: 0.5; stroke-linecap: square"/>
     </g>
     <g id="line2d_8">
      <g>
       <use xlink:href="#m6f32be0b3a" x="156.929181" y="201.444047" style="stroke: #000000; stroke-width: 0.8"/>
      </g>
     </g>
     <g id="text_4">
      <!-- 0.6 -->
      <g transform="translate(152.474337 214.002485) scale(0.07 -0.07)">
       <defs>
        <path id="NotoSansSC-Thin-36" d="M 1837 -83 
Q 1498 -83 1232 67 
Q 966 218 780 509 
Q 595 800 496 1216 
Q 397 1632 397 2170 
Q 397 2886 528 3379 
Q 659 3872 889 4169 
Q 1120 4467 1414 4598 
Q 1709 4730 2029 4730 
Q 2330 4730 2550 4614 
Q 2771 4499 2944 4307 
L 2790 4147 
Q 2643 4333 2444 4425 
Q 2246 4518 2022 4518 
Q 1651 4518 1334 4297 
Q 1018 4077 826 3561 
Q 634 3046 634 2170 
Q 634 1581 762 1120 
Q 890 659 1158 393 
Q 1427 128 1850 128 
Q 2125 128 2336 297 
Q 2547 467 2672 752 
Q 2797 1037 2797 1382 
Q 2797 1741 2694 2025 
Q 2592 2310 2368 2476 
Q 2144 2643 1779 2643 
Q 1523 2643 1209 2470 
Q 896 2298 602 1888 
L 602 2176 
Q 768 2381 957 2531 
Q 1146 2682 1360 2762 
Q 1574 2842 1792 2842 
Q 2189 2842 2467 2675 
Q 2746 2509 2893 2185 
Q 3040 1862 3040 1382 
Q 3040 960 2873 630 
Q 2707 301 2435 109 
Q 2163 -83 1837 -83 
z
" transform="scale(0.015625)"/>
       </defs>
       <use xlink:href="#NotoSansSC-Thin-30"/>
       <use xlink:href="#NotoSansSC-Thin-2e" transform="translate(52.099991 0)"/>
       <use xlink:href="#NotoSansSC-Thin-36" transform="translate(75.199982 0)"/>
      </g>
     </g>
    </g>
    <g id="xtick_5">
     <g id="line2d_9">
      <path d="M 197.436928 201.444047 
L 197.436928 23.645234 
" clip-path="url(#pd4d043c96d)" style="fill: none; stroke: #d8d8d8; stroke-opacity: 0.7; stroke-width: 0.5; stroke-linecap: square"/>
     </g>
     <g id="line2d_10">
      <g>
       <use xlink:href="#m6f32be0b3a" x="197.436928" y="201.444047" style="stroke: #000000; stroke-width: 0.8"/>
      </g>
     </g>
     <g id="text_5">
      <!-- 0.8 -->
      <g transform="translate(192.982085 214.002485) scale(0.07 -0.07)">
       <defs>
        <path id="NotoSansSC-Thin-38" d="M 1696 -83 
Q 1286 -83 966 80 
Q 646 243 464 521 
Q 282 800 282 1152 
Q 282 1478 422 1744 
Q 563 2010 774 2202 
Q 986 2394 1197 2509 
L 1197 2534 
Q 954 2694 752 2953 
Q 550 3213 550 3578 
Q 550 3910 704 4163 
Q 858 4416 1117 4560 
Q 1376 4704 1696 4704 
Q 2080 4704 2345 4544 
Q 2611 4384 2752 4112 
Q 2893 3840 2893 3494 
Q 2893 3238 2784 3008 
Q 2675 2778 2528 2602 
Q 2381 2426 2253 2317 
L 2253 2285 
Q 2445 2170 2627 2010 
Q 2810 1850 2925 1626 
Q 3040 1402 3040 1082 
Q 3040 762 2870 496 
Q 2701 230 2400 73 
Q 2099 -83 1696 -83 
z
M 2035 2387 
Q 2336 2630 2499 2905 
Q 2662 3181 2662 3494 
Q 2662 3763 2550 3990 
Q 2438 4218 2220 4358 
Q 2003 4499 1696 4499 
Q 1293 4499 1040 4236 
Q 787 3974 787 3578 
Q 787 3238 972 3017 
Q 1158 2797 1446 2653 
Q 1734 2509 2035 2387 
z
M 1696 128 
Q 2035 128 2281 256 
Q 2528 384 2662 601 
Q 2797 819 2797 1082 
Q 2797 1370 2675 1574 
Q 2554 1779 2352 1923 
Q 2150 2067 1894 2182 
Q 1638 2298 1370 2400 
Q 998 2189 758 1875 
Q 518 1562 518 1152 
Q 518 870 668 636 
Q 819 403 1088 265 
Q 1357 128 1696 128 
z
" transform="scale(0.015625)"/>
       </defs>
       <use xlink:href="#NotoSansSC-Thin-30"/>
       <use xlink:href="#NotoSansSC-Thin-2e" transform="translate(52.099991 0)"/>
       <use xlink:href="#NotoSansSC-Thin-38" transform="translate(75.199982 0)"/>
      </g>
     </g>
    </g>
    <g id="xtick_6">
     <g id="line2d_11">
      <path d="M 237.944676 201.444047 
L 237.944676 23.645234 
" clip-path="url(#pd4d043c96d)" style="fill: none; stroke: #d8d8d8; stroke-opacity: 0.7; stroke-width: 0.5; stroke-linecap: square"/>
     </g>
     <g id="line2d_12">
      <g>
       <use xlink:href="#m6f32be0b3a" x="237.944676" y="201.444047" style="stroke: #000000; stroke-width: 0.8"/>
      </g>
     </g>
     <g id="text_6">
      <!-- 1.0 -->
      <g transform="translate(233.489832 214.002485) scale(0.07 -0.07)">
       <defs>
        <path id="NotoSansSC-Thin-31" d="M 608 0 
L 608 211 
L 1677 211 
L 1677 4211 
L 864 4211 
L 864 4378 
Q 1133 4422 1344 4492 
Q 1555 4563 1702 4646 
L 1901 4646 
L 1901 211 
L 2899 211 
L 2899 0 
L 608 0 
z
" transform="scale(0.015625)"/>
       </defs>
       <use xlink:href="#NotoSansSC-Thin-31"/>
       <use xlink:href="#NotoSansSC-Thin-2e" transform="translate(52.099991 0)"/>
       <use xlink:href="#NotoSansSC-Thin-30" transform="translate(75.199982 0)"/>
      </g>
     </g>
    </g>
    <g id="text_7">
     <!-- 模型预测达标概率 -->
     <g transform="translate(104.675307 226.055766) scale(0.08 -0.08)">
      <defs>
       <path id="NotoSansSC-Thin-6a21" d="M 2227 4691 
L 6016 4691 
L 6016 4506 
L 2227 4506 
L 2227 4691 
z
M 2080 1235 
L 5978 1235 
L 5978 1050 
L 2080 1050 
L 2080 1235 
z
M 3354 5312 
L 3539 5312 
L 3539 3904 
L 3354 3904 
L 3354 5312 
z
M 4762 5312 
L 4947 5312 
L 4947 3904 
L 4762 3904 
L 4762 5312 
z
M 2765 2758 
L 2765 2112 
L 5459 2112 
L 5459 2758 
L 2765 2758 
z
M 2765 3584 
L 2765 2950 
L 5459 2950 
L 5459 3584 
L 2765 3584 
z
M 2579 3770 
L 5645 3770 
L 5645 1926 
L 2579 1926 
L 2579 3770 
z
M 3962 1971 
L 4154 1971 
Q 4096 1491 3974 1104 
Q 3853 717 3622 416 
Q 3392 115 3017 -99 
Q 2643 -314 2080 -454 
Q 2067 -422 2032 -374 
Q 1997 -326 1965 -301 
Q 2515 -173 2876 32 
Q 3238 237 3459 518 
Q 3680 800 3795 1165 
Q 3910 1530 3962 1971 
z
M 4198 1184 
Q 4416 614 4915 233 
Q 5414 -147 6099 -294 
Q 6080 -314 6054 -342 
Q 6029 -371 6009 -400 
Q 5990 -429 5971 -454 
Q 5274 -275 4762 128 
Q 4250 531 4026 1139 
L 4198 1184 
z
M 371 4038 
L 2208 4038 
L 2208 3853 
L 371 3853 
L 371 4038 
z
M 1274 5318 
L 1466 5318 
L 1466 -435 
L 1274 -435 
L 1274 5318 
z
M 1261 3987 
L 1440 3949 
Q 1370 3578 1261 3162 
Q 1152 2746 1017 2346 
Q 883 1946 736 1600 
Q 589 1254 435 1011 
Q 416 1037 390 1065 
Q 365 1094 339 1120 
Q 314 1146 288 1158 
Q 435 1389 582 1715 
Q 730 2042 861 2429 
Q 992 2816 1094 3216 
Q 1197 3616 1261 3987 
z
M 1459 3565 
Q 1510 3488 1616 3302 
Q 1722 3117 1843 2896 
Q 1965 2675 2067 2489 
Q 2170 2304 2208 2221 
L 2061 2054 
Q 2016 2163 1917 2364 
Q 1818 2566 1702 2790 
Q 1587 3014 1484 3200 
Q 1382 3386 1331 3469 
L 1459 3565 
z
" transform="scale(0.015625)"/>
       <path id="NotoSansSC-Thin-578b" d="M 710 5024 
L 3565 5024 
L 3565 4838 
L 710 4838 
L 710 5024 
z
M 506 3750 
L 3693 3750 
L 3693 3565 
L 506 3565 
L 506 3750 
z
M 307 -26 
L 6099 -26 
L 6099 -211 
L 307 -211 
L 307 -26 
z
M 992 1274 
L 5402 1274 
L 5402 1088 
L 992 1088 
L 992 1274 
z
M 2643 4928 
L 2829 4928 
L 2829 2054 
L 2643 2054 
L 2643 4928 
z
M 3181 2195 
L 3366 2195 
L 3366 -115 
L 3181 -115 
L 3181 2195 
z
M 4218 4954 
L 4403 4954 
L 4403 2835 
L 4218 2835 
L 4218 4954 
z
M 5434 5312 
L 5619 5312 
L 5619 2323 
Q 5619 2189 5580 2131 
Q 5542 2074 5434 2042 
Q 5325 2016 5101 2009 
Q 4877 2003 4525 2003 
Q 4518 2048 4496 2102 
Q 4474 2157 4442 2202 
Q 4774 2195 5001 2195 
Q 5229 2195 5306 2202 
Q 5389 2208 5411 2233 
Q 5434 2259 5434 2323 
L 5434 5312 
z
M 1408 4928 
L 1594 4928 
L 1594 3891 
Q 1594 3578 1523 3222 
Q 1453 2867 1254 2524 
Q 1056 2182 666 1901 
Q 653 1926 627 1952 
Q 602 1978 576 2003 
Q 550 2029 531 2042 
Q 909 2310 1094 2627 
Q 1280 2944 1344 3270 
Q 1408 3597 1408 3891 
L 1408 4928 
z
" transform="scale(0.015625)"/>
       <path id="NotoSansSC-Thin-9884" d="M 442 4966 
L 2560 4966 
L 2560 4781 
L 442 4781 
L 442 4966 
z
M 314 2963 
L 2771 2963 
L 2771 2771 
L 314 2771 
L 314 2963 
z
M 1472 2912 
L 1658 2912 
L 1658 -141 
Q 1658 -262 1619 -320 
Q 1581 -378 1485 -403 
Q 1389 -429 1193 -432 
Q 998 -435 659 -435 
Q 653 -403 630 -352 
Q 608 -301 582 -256 
Q 870 -262 1078 -262 
Q 1286 -262 1350 -256 
Q 1421 -250 1446 -227 
Q 1472 -205 1472 -141 
L 1472 2912 
z
M 2496 4966 
L 2541 4966 
L 2579 4979 
L 2714 4902 
Q 2566 4659 2371 4419 
Q 2176 4179 1965 3964 
Q 1754 3750 1555 3590 
Q 1530 3622 1494 3648 
Q 1459 3674 1427 3699 
Q 1619 3853 1820 4061 
Q 2022 4269 2201 4496 
Q 2381 4723 2496 4922 
L 2496 4966 
z
M 2726 2963 
L 2765 2963 
L 2803 2976 
L 2931 2918 
Q 2784 2579 2621 2224 
Q 2458 1869 2310 1632 
L 2144 1696 
Q 2240 1850 2342 2054 
Q 2445 2259 2544 2483 
Q 2643 2707 2726 2912 
L 2726 2963 
z
M 691 4064 
L 826 4179 
Q 1075 4006 1347 3801 
Q 1619 3597 1868 3405 
Q 2118 3213 2278 3066 
L 2144 2925 
Q 1984 3072 1737 3270 
Q 1491 3469 1216 3680 
Q 941 3891 691 4064 
z
M 3014 4992 
L 6067 4992 
L 6067 4806 
L 3014 4806 
L 3014 4992 
z
M 4550 4928 
L 4762 4883 
Q 4672 4634 4579 4358 
Q 4486 4083 4390 3885 
L 4211 3930 
Q 4301 4134 4397 4422 
Q 4493 4710 4550 4928 
z
M 4416 3283 
L 4608 3283 
L 4608 1894 
Q 4608 1606 4557 1289 
Q 4506 973 4326 665 
Q 4147 358 3785 80 
Q 3424 -198 2797 -422 
Q 2778 -390 2749 -345 
Q 2720 -301 2688 -269 
Q 3296 -70 3645 192 
Q 3994 454 4157 745 
Q 4320 1037 4368 1331 
Q 4416 1626 4416 1894 
L 4416 3283 
z
M 4646 704 
L 4787 832 
Q 5011 672 5251 473 
Q 5491 275 5699 83 
Q 5907 -109 6035 -256 
L 5894 -410 
Q 5766 -256 5558 -61 
Q 5350 134 5113 336 
Q 4877 538 4646 704 
z
M 3270 3974 
L 5805 3974 
L 5805 973 
L 5613 973 
L 5613 3782 
L 3456 3782 
L 3456 973 
L 3270 973 
L 3270 3974 
z
" transform="scale(0.015625)"/>
       <path id="NotoSansSC-Thin-6d4b" d="M 3136 672 
L 3270 774 
Q 3450 614 3635 422 
Q 3821 230 3981 44 
Q 4141 -141 4237 -282 
L 4102 -403 
Q 4006 -256 3846 -67 
Q 3686 122 3500 317 
Q 3315 512 3136 672 
z
M 2042 4909 
L 4077 4909 
L 4077 1082 
L 3891 1082 
L 3891 4717 
L 2227 4717 
L 2227 1082 
L 2042 1082 
L 2042 4909 
z
M 5683 5254 
L 5869 5254 
L 5869 -109 
Q 5869 -243 5824 -304 
Q 5779 -365 5690 -397 
Q 5594 -416 5408 -422 
Q 5222 -429 4896 -422 
Q 4890 -390 4864 -339 
Q 4838 -288 4813 -243 
Q 5088 -250 5289 -250 
Q 5491 -250 5555 -243 
Q 5683 -243 5683 -115 
L 5683 5254 
z
M 4806 4749 
L 4992 4749 
L 4992 1024 
L 4806 1024 
L 4806 4749 
z
M 2912 4154 
L 3098 4154 
L 3098 2074 
Q 3098 1747 3053 1408 
Q 3008 1069 2870 739 
Q 2733 410 2470 115 
Q 2208 -179 1773 -422 
Q 1760 -403 1734 -380 
Q 1709 -358 1683 -332 
Q 1658 -307 1632 -294 
Q 2054 -58 2310 224 
Q 2566 506 2697 816 
Q 2829 1126 2870 1446 
Q 2912 1766 2912 2074 
L 2912 4154 
z
M 614 5107 
L 736 5229 
Q 915 5133 1107 5008 
Q 1299 4883 1472 4758 
Q 1645 4634 1754 4531 
L 1632 4378 
Q 1523 4486 1353 4617 
Q 1184 4749 992 4877 
Q 800 5005 614 5107 
z
M 307 3366 
L 422 3494 
Q 608 3398 803 3276 
Q 998 3155 1177 3036 
Q 1357 2918 1472 2822 
L 1363 2675 
Q 1248 2771 1069 2892 
Q 890 3014 691 3139 
Q 493 3264 307 3366 
z
M 461 -237 
Q 595 6 755 352 
Q 915 698 1078 1075 
Q 1242 1453 1370 1792 
L 1517 1683 
Q 1395 1357 1241 989 
Q 1088 621 928 272 
Q 768 -77 627 -358 
L 461 -237 
z
" transform="scale(0.015625)"/>
       <path id="NotoSansSC-Thin-8fbe" d="M 2035 3981 
L 6016 3981 
L 6016 3795 
L 2035 3795 
L 2035 3981 
z
M 646 5069 
L 806 5146 
Q 966 4960 1126 4745 
Q 1286 4531 1420 4326 
Q 1555 4122 1626 3962 
L 1466 3866 
Q 1389 4026 1254 4237 
Q 1120 4448 963 4665 
Q 806 4883 646 5069 
z
M 3891 5299 
L 4077 5299 
Q 4058 4755 4013 4214 
Q 3968 3674 3865 3162 
Q 3763 2650 3568 2192 
Q 3373 1734 3049 1360 
Q 2726 986 2234 717 
Q 2221 736 2192 761 
Q 2163 787 2134 809 
Q 2106 832 2086 845 
Q 2566 1101 2886 1465 
Q 3206 1830 3398 2278 
Q 3590 2726 3692 3228 
Q 3795 3731 3833 4256 
Q 3872 4781 3891 5299 
z
M 1574 2867 
L 1574 672 
L 1389 672 
L 1389 2682 
L 365 2682 
L 365 2867 
L 1574 2867 
z
M 1485 787 
Q 1594 787 1680 720 
Q 1766 653 1878 544 
Q 1990 435 2163 301 
Q 2464 77 2851 13 
Q 3238 -51 3802 -51 
Q 4122 -51 4438 -44 
Q 4755 -38 5052 -25 
Q 5350 -13 5612 3 
Q 5875 19 6093 38 
Q 6080 19 6067 -16 
Q 6054 -51 6048 -83 
Q 6042 -115 6035 -147 
Q 5875 -154 5587 -166 
Q 5299 -179 4960 -188 
Q 4621 -198 4310 -204 
Q 4000 -211 3802 -211 
Q 3200 -211 2787 -134 
Q 2374 -58 2054 192 
Q 1875 333 1734 483 
Q 1594 634 1485 634 
Q 1363 634 1206 522 
Q 1050 410 861 208 
Q 672 6 454 -262 
L 320 -141 
Q 659 256 953 521 
Q 1248 787 1485 787 
z
M 3744 3194 
L 3904 3296 
Q 4173 3008 4461 2688 
Q 4749 2368 5024 2045 
Q 5299 1722 5529 1427 
Q 5760 1133 5914 909 
L 5754 787 
Q 5594 1018 5357 1315 
Q 5120 1613 4848 1942 
Q 4576 2272 4291 2592 
Q 4006 2912 3744 3194 
z
" transform="scale(0.015625)"/>
       <path id="NotoSansSC-Thin-6807" d="M 2970 4736 
L 5734 4736 
L 5734 4550 
L 2970 4550 
L 2970 4736 
z
M 2707 3206 
L 6067 3206 
L 6067 3021 
L 2707 3021 
L 2707 3206 
z
M 4186 3117 
L 4378 3117 
L 4378 -115 
Q 4378 -243 4336 -304 
Q 4294 -365 4192 -397 
Q 4090 -422 3875 -425 
Q 3661 -429 3315 -429 
Q 3309 -390 3283 -336 
Q 3258 -282 3232 -237 
Q 3539 -243 3766 -243 
Q 3994 -243 4058 -237 
Q 4134 -230 4160 -204 
Q 4186 -179 4186 -115 
L 4186 3117 
z
M 5030 2138 
L 5216 2182 
Q 5382 1882 5539 1536 
Q 5696 1190 5824 867 
Q 5952 544 6016 301 
L 5824 237 
Q 5760 480 5635 806 
Q 5510 1133 5353 1485 
Q 5197 1837 5030 2138 
z
M 3315 2176 
L 3501 2138 
Q 3398 1773 3257 1424 
Q 3117 1075 2953 768 
Q 2790 461 2605 218 
Q 2592 230 2560 252 
Q 2528 275 2493 297 
Q 2458 320 2432 333 
Q 2720 685 2947 1168 
Q 3174 1651 3315 2176 
z
M 416 3866 
L 2598 3866 
L 2598 3674 
L 416 3674 
L 416 3866 
z
M 1478 5318 
L 1670 5318 
L 1670 -435 
L 1478 -435 
L 1478 5318 
z
M 1459 3814 
L 1645 3763 
Q 1549 3424 1408 3056 
Q 1267 2688 1094 2333 
Q 922 1978 733 1670 
Q 544 1363 352 1152 
Q 333 1178 304 1206 
Q 275 1235 249 1260 
Q 224 1286 198 1299 
Q 442 1568 685 1984 
Q 928 2400 1133 2883 
Q 1338 3366 1459 3814 
z
M 1638 3507 
Q 1696 3443 1824 3276 
Q 1952 3110 2102 2912 
Q 2253 2714 2381 2547 
Q 2509 2381 2560 2304 
L 2400 2144 
Q 2342 2240 2220 2419 
Q 2099 2598 1958 2800 
Q 1818 3002 1690 3168 
Q 1562 3334 1491 3411 
L 1638 3507 
z
" transform="scale(0.015625)"/>
       <path id="NotoSansSC-Thin-6982" d="M 4019 4909 
L 5914 4909 
L 5914 4717 
L 4019 4717 
L 4019 4909 
z
M 2298 3757 
L 3546 3757 
L 3546 3571 
L 2298 3571 
L 2298 3757 
z
M 3066 1798 
L 3226 1862 
Q 3347 1658 3459 1421 
Q 3571 1184 3664 963 
Q 3757 742 3808 582 
L 3642 499 
Q 3590 666 3497 890 
Q 3405 1114 3293 1354 
Q 3181 1594 3066 1798 
z
M 2298 4896 
L 3654 4896 
L 3654 2374 
L 2298 2374 
L 2298 2560 
L 3469 2560 
L 3469 4704 
L 2298 4704 
L 2298 4896 
z
M 5018 4826 
L 5203 4826 
L 5203 4512 
Q 5203 4102 5177 3625 
Q 5152 3149 5065 2633 
Q 4979 2118 4800 1587 
Q 4621 1056 4320 537 
Q 4019 19 3558 -467 
Q 3526 -435 3481 -409 
Q 3437 -384 3392 -365 
Q 3853 115 4153 627 
Q 4454 1139 4630 1657 
Q 4806 2176 4889 2678 
Q 4973 3181 4995 3645 
Q 5018 4109 5018 4506 
L 5018 4826 
z
M 4979 2074 
L 5165 2074 
L 5165 -58 
Q 5165 -90 5177 -122 
Q 5190 -154 5216 -166 
Q 5267 -198 5357 -198 
Q 5402 -198 5469 -198 
Q 5536 -198 5587 -198 
Q 5638 -198 5692 -192 
Q 5747 -186 5773 -166 
Q 5798 -147 5824 -105 
Q 5850 -64 5856 0 
Q 5869 90 5872 298 
Q 5875 506 5875 762 
Q 5907 730 5961 701 
Q 6016 672 6061 659 
Q 6054 422 6044 188 
Q 6035 -45 6016 -122 
Q 5978 -282 5869 -339 
Q 5830 -365 5756 -377 
Q 5683 -390 5613 -390 
Q 5568 -390 5475 -390 
Q 5382 -390 5344 -390 
Q 5280 -390 5206 -377 
Q 5133 -365 5075 -326 
Q 5018 -282 4998 -205 
Q 4979 -128 4979 32 
L 4979 2074 
z
M 2106 122 
L 2099 314 
L 2208 474 
L 3450 1210 
Q 3462 1171 3481 1132 
Q 3501 1094 3514 1069 
Q 3059 781 2790 605 
Q 2522 429 2381 336 
Q 2240 243 2185 198 
Q 2131 154 2106 122 
z
M 4000 2362 
L 4000 2547 
L 4192 2624 
L 6029 2624 
L 6029 2432 
L 4435 2432 
Q 4262 2432 4150 2413 
Q 4038 2394 4000 2362 
z
M 4000 2362 
Q 3994 2387 3978 2428 
Q 3962 2470 3942 2512 
Q 3923 2554 3904 2579 
Q 3962 2592 4000 2621 
Q 4038 2650 4064 2726 
Q 4083 2784 4121 2982 
Q 4160 3181 4198 3430 
Q 4237 3680 4272 3904 
Q 4307 4128 4320 4243 
L 4525 4243 
Q 4499 4102 4464 3878 
Q 4429 3654 4384 3401 
Q 4339 3149 4297 2921 
Q 4256 2694 4224 2547 
Q 4224 2547 4189 2528 
Q 4154 2509 4112 2480 
Q 4070 2451 4035 2419 
Q 4000 2387 4000 2362 
z
M 2106 122 
Q 2093 147 2070 176 
Q 2048 205 2019 233 
Q 1990 262 1965 282 
Q 2022 333 2105 457 
Q 2189 582 2189 787 
L 2189 4896 
L 2381 4896 
L 2381 493 
Q 2381 493 2339 448 
Q 2298 403 2243 339 
Q 2189 275 2147 214 
Q 2106 154 2106 122 
z
M 416 3891 
L 1971 3891 
L 1971 3699 
L 416 3699 
L 416 3891 
z
M 1171 5318 
L 1363 5318 
L 1363 -435 
L 1171 -435 
L 1171 5318 
z
M 1152 3827 
L 1325 3782 
Q 1267 3411 1174 2995 
Q 1082 2579 963 2176 
Q 845 1773 707 1427 
Q 570 1082 422 845 
Q 397 883 352 928 
Q 307 973 269 998 
Q 410 1222 544 1548 
Q 678 1875 796 2259 
Q 915 2643 1004 3046 
Q 1094 3450 1152 3827 
z
M 1331 3354 
Q 1376 3296 1465 3158 
Q 1555 3021 1660 2854 
Q 1766 2688 1856 2547 
Q 1946 2406 1984 2342 
L 1818 2189 
Q 1779 2278 1696 2425 
Q 1613 2573 1513 2742 
Q 1414 2912 1331 3053 
Q 1248 3194 1197 3264 
L 1331 3354 
z
" transform="scale(0.015625)"/>
       <path id="NotoSansSC-Thin-7387" d="M 3104 1888 
L 3296 1888 
L 3296 -454 
L 3104 -454 
L 3104 1888 
z
M 378 1267 
L 6029 1267 
L 6029 1082 
L 378 1082 
L 378 1267 
z
M 467 4672 
L 6003 4672 
L 6003 4486 
L 467 4486 
L 467 4672 
z
M 5382 4115 
L 5549 4000 
Q 5325 3776 5049 3552 
Q 4774 3328 4531 3162 
L 4390 3277 
Q 4550 3386 4732 3533 
Q 4915 3680 5088 3833 
Q 5261 3987 5382 4115 
z
M 3539 2867 
L 3693 2963 
Q 3853 2810 4009 2624 
Q 4166 2438 4300 2262 
Q 4435 2086 4512 1946 
L 4346 1830 
Q 4275 1971 4144 2153 
Q 4013 2336 3856 2525 
Q 3699 2714 3539 2867 
z
M 461 2048 
Q 755 2189 1177 2406 
Q 1600 2624 2029 2854 
L 2080 2694 
Q 1690 2477 1296 2265 
Q 902 2054 576 1888 
L 461 2048 
z
M 653 3987 
L 794 4102 
Q 973 3994 1161 3859 
Q 1350 3725 1513 3590 
Q 1677 3456 1786 3341 
L 1638 3206 
Q 1536 3322 1373 3459 
Q 1210 3597 1021 3737 
Q 832 3878 653 3987 
z
M 4384 2714 
L 4544 2822 
Q 4768 2688 5008 2521 
Q 5248 2355 5465 2188 
Q 5683 2022 5824 1888 
L 5664 1766 
Q 5530 1901 5315 2067 
Q 5101 2234 4857 2403 
Q 4614 2573 4384 2714 
z
M 2118 3226 
Q 2112 3251 2102 3292 
Q 2093 3334 2080 3372 
Q 2067 3411 2054 3437 
Q 2118 3450 2185 3501 
Q 2253 3552 2330 3635 
Q 2387 3693 2515 3846 
Q 2643 4000 2796 4211 
Q 2950 4422 3066 4634 
L 3264 4550 
Q 3046 4198 2796 3891 
Q 2547 3584 2304 3360 
L 2304 3354 
Q 2304 3354 2275 3344 
Q 2246 3334 2211 3315 
Q 2176 3296 2147 3273 
Q 2118 3251 2118 3226 
z
M 2118 3226 
L 2118 3392 
L 2272 3475 
L 3590 3584 
Q 3571 3546 3555 3488 
Q 3539 3430 3526 3398 
Q 3085 3360 2819 3331 
Q 2554 3302 2413 3286 
Q 2272 3270 2211 3254 
Q 2150 3238 2118 3226 
z
M 1990 1952 
Q 1984 1978 1971 2016 
Q 1958 2054 1945 2096 
Q 1933 2138 1920 2170 
Q 2010 2182 2138 2272 
Q 2266 2362 2419 2496 
Q 2509 2566 2681 2729 
Q 2854 2893 3075 3113 
Q 3296 3334 3529 3593 
Q 3763 3853 3974 4122 
L 4166 4019 
Q 3680 3456 3177 2953 
Q 2675 2451 2176 2086 
L 2176 2080 
Q 2176 2080 2147 2070 
Q 2118 2061 2083 2041 
Q 2048 2022 2019 2000 
Q 1990 1978 1990 1952 
z
M 1990 1952 
L 1990 2118 
L 2150 2208 
L 4154 2387 
Q 4160 2342 4173 2291 
Q 4186 2240 4198 2208 
Q 3482 2138 3059 2096 
Q 2637 2054 2419 2028 
Q 2202 2003 2115 1987 
Q 2029 1971 1990 1952 
z
M 2950 5306 
L 3104 5370 
Q 3232 5210 3350 5008 
Q 3469 4806 3526 4659 
L 3360 4582 
Q 3302 4730 3184 4934 
Q 3066 5139 2950 5306 
z
" transform="scale(0.015625)"/>
      </defs>
      <use xlink:href="#NotoSansSC-Thin-6a21"/>
      <use xlink:href="#NotoSansSC-Thin-578b" transform="translate(99.999985 0)"/>
      <use xlink:href="#NotoSansSC-Thin-9884" transform="translate(199.999969 0)"/>
      <use xlink:href="#NotoSansSC-Thin-6d4b" transform="translate(299.999954 0)"/>
      <use xlink:href="#NotoSansSC-Thin-8fbe" transform="translate(399.999939 0)"/>
      <use xlink:href="#NotoSansSC-Thin-6807" transform="translate(499.999924 0)"/>
      <use xlink:href="#NotoSansSC-Thin-6982" transform="translate(599.999908 0)"/>
      <use xlink:href="#NotoSansSC-Thin-7387" transform="translate(699.999893 0)"/>
     </g>
    </g>
   </g>
   <g id="matplotlib.axis_2">
    <g id="ytick_1">
     <g id="line2d_13">
      <path d="M 35.405938 201.444047 
L 237.944676 201.444047 
" clip-path="url(#pd4d043c96d)" style="fill: none; stroke: #d8d8d8; stroke-opacity: 0.7; stroke-width: 0.5; stroke-linecap: square"/>
     </g>
     <g id="line2d_14">
      <defs>
       <path id="md0cd3ad60d" d="M 0 0 
L -3.5 0 
" style="stroke: #000000; stroke-width: 0.8"/>
      </defs>
      <g>
       <use xlink:href="#md0cd3ad60d" x="35.405938" y="201.444047" style="stroke: #000000; stroke-width: 0.8"/>
      </g>
     </g>
     <g id="text_8">
      <!-- 0.0 -->
      <g transform="translate(19.49625 204.223266) scale(0.07 -0.07)">
       <use xlink:href="#NotoSansSC-Thin-30"/>
       <use xlink:href="#NotoSansSC-Thin-2e" transform="translate(52.099991 0)"/>
       <use xlink:href="#NotoSansSC-Thin-30" transform="translate(75.199982 0)"/>
      </g>
     </g>
    </g>
    <g id="ytick_2">
     <g id="line2d_15">
      <path d="M 35.405938 165.884285 
L 237.944676 165.884285 
" clip-path="url(#pd4d043c96d)" style="fill: none; stroke: #d8d8d8; stroke-opacity: 0.7; stroke-width: 0.5; stroke-linecap: square"/>
     </g>
     <g id="line2d_16">
      <g>
       <use xlink:href="#md0cd3ad60d" x="35.405938" y="165.884285" style="stroke: #000000; stroke-width: 0.8"/>
      </g>
     </g>
     <g id="text_9">
      <!-- 0.2 -->
      <g transform="translate(19.49625 168.663503) scale(0.07 -0.07)">
       <use xlink:href="#NotoSansSC-Thin-30"/>
       <use xlink:href="#NotoSansSC-Thin-2e" transform="translate(52.099991 0)"/>
       <use xlink:href="#NotoSansSC-Thin-32" transform="translate(75.199982 0)"/>
      </g>
     </g>
    </g>
    <g id="ytick_3">
     <g id="line2d_17">
      <path d="M 35.405938 130.324522 
L 237.944676 130.324522 
" clip-path="url(#pd4d043c96d)" style="fill: none; stroke: #d8d8d8; stroke-opacity: 0.7; stroke-width: 0.5; stroke-linecap: square"/>
     </g>
     <g id="line2d_18">
      <g>
       <use xlink:href="#md0cd3ad60d" x="35.405938" y="130.324522" style="stroke: #000000; stroke-width: 0.8"/>
      </g>
     </g>
     <g id="text_10">
      <!-- 0.4 -->
      <g transform="translate(19.49625 133.103741) scale(0.07 -0.07)">
       <use xlink:href="#NotoSansSC-Thin-30"/>
       <use xlink:href="#NotoSansSC-Thin-2e" transform="translate(52.099991 0)"/>
       <use xlink:href="#NotoSansSC-Thin-34" transform="translate(75.199982 0)"/>
      </g>
     </g>
    </g>
    <g id="ytick_4">
     <g id="line2d_19">
      <path d="M 35.405938 94.764759 
L 237.944676 94.764759 
" clip-path="url(#pd4d043c96d)" style="fill: none; stroke: #d8d8d8; stroke-opacity: 0.7; stroke-width: 0.5; stroke-linecap: square"/>
     </g>
     <g id="line2d_20">
      <g>
       <use xlink:href="#md0cd3ad60d" x="35.405938" y="94.764759" style="stroke: #000000; stroke-width: 0.8"/>
      </g>
     </g>
     <g id="text_11">
      <!-- 0.6 -->
      <g transform="translate(19.49625 97.543978) scale(0.07 -0.07)">
       <use xlink:href="#NotoSansSC-Thin-30"/>
       <use xlink:href="#NotoSansSC-Thin-2e" transform="translate(52.099991 0)"/>
       <use xlink:href="#NotoSansSC-Thin-36" transform="translate(75.199982 0)"/>
      </g>
     </g>
    </g>
    <g id="ytick_5">
     <g id="line2d_21">
      <path d="M 35.405938 59.204997 
L 237.944676 59.204997 
" clip-path="url(#pd4d043c96d)" style="fill: none; stroke: #d8d8d8; stroke-opacity: 0.7; stroke-width: 0.5; stroke-linecap: square"/>
     </g>
     <g id="line2d_22">
      <g>
       <use xlink:href="#md0cd3ad60d" x="35.405938" y="59.204997" style="stroke: #000000; stroke-width: 0.8"/>
      </g>
     </g>
     <g id="text_12">
      <!-- 0.8 -->
      <g transform="translate(19.49625 61.984215) scale(0.07 -0.07)">
       <use xlink:href="#NotoSansSC-Thin-30"/>
       <use xlink:href="#NotoSansSC-Thin-2e" transform="translate(52.099991 0)"/>
       <use xlink:href="#NotoSansSC-Thin-38" transform="translate(75.199982 0)"/>
      </g>
     </g>
    </g>
    <g id="ytick_6">
     <g id="line2d_23">
      <path d="M 35.405938 23.645234 
L 237.944676 23.645234 
" clip-path="url(#pd4d043c96d)" style="fill: none; stroke: #d8d8d8; stroke-opacity: 0.7; stroke-width: 0.5; stroke-linecap: square"/>
     </g>
     <g id="line2d_24">
      <g>
       <use xlink:href="#md0cd3ad60d" x="35.405938" y="23.645234" style="stroke: #000000; stroke-width: 0.8"/>
      </g>
     </g>
     <g id="text_13">
      <!-- 1.0 -->
      <g transform="translate(19.49625 26.424453) scale(0.07 -0.07)">
       <use xlink:href="#NotoSansSC-Thin-31"/>
       <use xlink:href="#NotoSansSC-Thin-2e" transform="translate(52.099991 0)"/>
       <use xlink:href="#NotoSansSC-Thin-30" transform="translate(75.199982 0)"/>
      </g>
     </g>
    </g>
    <g id="text_14">
     <!-- 观察达标比例 -->
     <g transform="translate(13.5525 136.544641) rotate(-90) scale(0.08 -0.08)">
      <defs>
       <path id="NotoSansSC-Thin-89c2" d="M 3027 4979 
L 5581 4979 
L 5581 1581 
L 5395 1581 
L 5395 4794 
L 3213 4794 
L 3213 1581 
L 3027 1581 
L 3027 4979 
z
M 4454 1773 
L 4640 1773 
L 4640 83 
Q 4640 -58 4697 -99 
Q 4755 -141 4922 -141 
L 5613 -141 
Q 5747 -141 5814 -61 
Q 5882 19 5907 268 
Q 5933 518 5952 1011 
Q 6003 973 6051 950 
Q 6099 928 6144 915 
Q 6125 410 6086 141 
Q 6048 -128 5942 -224 
Q 5837 -320 5606 -320 
L 4928 -320 
Q 4672 -320 4563 -240 
Q 4454 -160 4454 77 
L 4454 1773 
z
M 4141 4096 
L 4326 4096 
L 4326 2650 
Q 4326 2259 4259 1843 
Q 4192 1427 3997 1017 
Q 3802 608 3427 233 
Q 3053 -141 2438 -448 
Q 2432 -429 2413 -400 
Q 2394 -371 2371 -342 
Q 2349 -314 2323 -301 
Q 2918 0 3280 358 
Q 3642 717 3827 1104 
Q 4013 1491 4077 1884 
Q 4141 2278 4141 2650 
L 4141 4096 
z
M 371 4800 
L 2413 4800 
L 2413 4608 
L 371 4608 
L 371 4800 
z
M 2342 4800 
L 2374 4800 
L 2413 4813 
L 2534 4774 
Q 2394 3590 2086 2643 
Q 1779 1696 1366 1001 
Q 954 307 480 -128 
Q 467 -109 438 -83 
Q 410 -58 381 -32 
Q 352 -6 326 13 
Q 672 314 989 774 
Q 1306 1235 1574 1836 
Q 1843 2438 2041 3168 
Q 2240 3898 2342 4736 
L 2342 4800 
z
M 429 3776 
L 595 3866 
Q 896 3475 1181 3030 
Q 1466 2586 1712 2138 
Q 1958 1690 2147 1277 
Q 2336 864 2438 531 
L 2253 435 
Q 2150 768 1961 1181 
Q 1773 1594 1529 2045 
Q 1286 2496 1004 2941 
Q 723 3386 429 3776 
z
" transform="scale(0.015625)"/>
       <path id="NotoSansSC-Thin-5bdf" d="M 1843 4307 
L 2048 4282 
Q 1830 3878 1446 3456 
Q 1062 3034 512 2694 
Q 486 2726 448 2755 
Q 410 2784 371 2803 
Q 915 3123 1289 3536 
Q 1664 3949 1843 4307 
z
M 1645 3859 
L 2918 3859 
L 2918 3667 
L 1491 3667 
L 1645 3859 
z
M 2854 3859 
L 2899 3859 
L 2938 3872 
L 3053 3808 
Q 2829 3194 2409 2720 
Q 1990 2246 1478 1920 
Q 966 1594 454 1408 
Q 435 1446 400 1491 
Q 365 1536 333 1562 
Q 832 1728 1334 2041 
Q 1837 2355 2243 2803 
Q 2650 3251 2854 3808 
L 2854 3859 
z
M 3501 3859 
L 5427 3859 
L 5427 3667 
L 3501 3667 
L 3501 3859 
z
M 2131 2310 
L 4365 2310 
L 4365 2118 
L 2131 2118 
L 2131 2310 
z
M 1011 1440 
L 5363 1440 
L 5363 1248 
L 1011 1248 
L 1011 1440 
z
M 3373 4282 
Q 3699 3334 4403 2662 
Q 5107 1990 6112 1728 
Q 6074 1702 6035 1654 
Q 5997 1606 5978 1562 
Q 5306 1760 4765 2131 
Q 4224 2502 3830 3033 
Q 3437 3565 3206 4224 
L 3373 4282 
z
M 3162 1408 
L 3354 1408 
L 3354 -102 
Q 3354 -224 3318 -278 
Q 3283 -333 3174 -365 
Q 3072 -390 2857 -396 
Q 2643 -403 2291 -403 
Q 2285 -352 2259 -304 
Q 2234 -256 2208 -211 
Q 2432 -218 2601 -221 
Q 2771 -224 2883 -221 
Q 2995 -218 3046 -211 
Q 3117 -205 3139 -182 
Q 3162 -160 3162 -109 
L 3162 1408 
z
M 1933 954 
L 2106 896 
Q 1926 659 1670 432 
Q 1414 205 1126 9 
Q 838 -186 563 -333 
Q 550 -314 528 -285 
Q 506 -256 480 -227 
Q 454 -198 429 -179 
Q 845 26 1257 323 
Q 1670 621 1933 954 
z
M 4192 858 
L 4307 973 
Q 4589 813 4899 621 
Q 5210 429 5491 246 
Q 5773 64 5958 -83 
L 5843 -218 
Q 5658 -77 5379 108 
Q 5101 294 4787 492 
Q 4474 691 4192 858 
z
M 1510 3181 
L 1638 3302 
Q 1837 3200 2048 3062 
Q 2259 2925 2381 2810 
L 2253 2669 
Q 2131 2778 1923 2925 
Q 1715 3072 1510 3181 
z
M 934 2669 
L 1069 2778 
Q 1254 2675 1456 2524 
Q 1658 2374 1773 2253 
L 1638 2118 
Q 1523 2246 1324 2396 
Q 1126 2547 934 2669 
z
M 5344 3859 
L 5389 3859 
L 5427 3872 
L 5562 3789 
Q 5363 3437 5065 3088 
Q 4768 2739 4493 2502 
Q 4467 2534 4425 2563 
Q 4384 2592 4352 2618 
Q 4538 2771 4723 2972 
Q 4909 3174 5072 3395 
Q 5235 3616 5344 3814 
L 5344 3859 
z
M 486 4704 
L 5907 4704 
L 5907 3866 
L 5722 3866 
L 5722 4518 
L 672 4518 
L 672 3866 
L 486 3866 
L 486 4704 
z
M 2931 5261 
L 3104 5318 
Q 3213 5171 3318 4985 
Q 3424 4800 3469 4666 
L 3296 4602 
Q 3245 4730 3142 4918 
Q 3040 5107 2931 5261 
z
" transform="scale(0.015625)"/>
       <path id="NotoSansSC-Thin-6bd4" d="M 1043 3264 
L 2880 3264 
L 2880 3072 
L 1043 3072 
L 1043 3264 
z
M 5574 3917 
L 5754 3776 
Q 5498 3565 5155 3353 
Q 4813 3142 4429 2947 
Q 4045 2752 3674 2573 
Q 3667 2605 3641 2649 
Q 3616 2694 3590 2720 
Q 3955 2893 4329 3094 
Q 4704 3296 5033 3507 
Q 5363 3718 5574 3917 
z
M 3546 5318 
L 3731 5318 
L 3731 326 
Q 3731 58 3811 -22 
Q 3891 -102 4147 -102 
Q 4205 -102 4358 -102 
Q 4512 -102 4697 -102 
Q 4883 -102 5049 -102 
Q 5216 -102 5293 -102 
Q 5485 -102 5577 29 
Q 5670 160 5708 496 
Q 5747 832 5766 1446 
Q 5798 1427 5827 1404 
Q 5856 1382 5888 1369 
Q 5920 1357 5946 1350 
Q 5926 730 5878 378 
Q 5830 26 5699 -121 
Q 5568 -269 5286 -269 
Q 5248 -269 5085 -269 
Q 4922 -269 4723 -269 
Q 4525 -269 4361 -269 
Q 4198 -269 4160 -269 
Q 3917 -269 3782 -221 
Q 3648 -173 3597 -38 
Q 3546 96 3546 346 
L 3546 5318 
z
M 883 -358 
Q 877 -333 857 -297 
Q 838 -262 816 -227 
Q 794 -192 774 -166 
Q 826 -134 896 -51 
Q 966 32 966 211 
L 966 5267 
L 1158 5267 
L 1158 -77 
Q 1158 -77 1129 -99 
Q 1101 -122 1062 -154 
Q 1024 -186 982 -224 
Q 941 -262 912 -297 
Q 883 -333 883 -358 
z
M 883 -358 
L 877 -166 
L 1030 -51 
L 2931 486 
Q 2931 461 2934 425 
Q 2938 390 2941 358 
Q 2944 326 2950 301 
Q 2278 109 1884 -9 
Q 1491 -128 1289 -192 
Q 1088 -256 1005 -291 
Q 922 -326 883 -358 
z
" transform="scale(0.015625)"/>
       <path id="NotoSansSC-Thin-4f8b" d="M 1914 4902 
L 4173 4902 
L 4173 4710 
L 1914 4710 
L 1914 4902 
z
M 2842 4864 
L 3040 4832 
Q 2918 4230 2748 3670 
Q 2579 3110 2371 2627 
Q 2163 2144 1901 1773 
Q 1882 1786 1850 1805 
Q 1818 1824 1786 1843 
Q 1754 1862 1728 1875 
Q 1997 2240 2205 2717 
Q 2413 3194 2573 3741 
Q 2733 4288 2842 4864 
z
M 2598 3482 
L 3808 3482 
L 3808 3296 
L 2541 3296 
L 2598 3482 
z
M 3744 3482 
L 3782 3482 
L 3821 3494 
L 3942 3456 
Q 3757 1914 3225 944 
Q 2694 -26 1984 -474 
Q 1965 -435 1923 -390 
Q 1882 -346 1843 -320 
Q 2304 -51 2694 461 
Q 3085 973 3360 1715 
Q 3635 2458 3744 3424 
L 3744 3482 
z
M 2336 1997 
L 2451 2131 
Q 2618 2029 2790 1897 
Q 2963 1766 3113 1638 
Q 3264 1510 3354 1408 
L 3232 1242 
Q 3142 1357 2992 1488 
Q 2842 1619 2672 1753 
Q 2502 1888 2336 1997 
z
M 4563 4512 
L 4749 4512 
L 4749 1037 
L 4563 1037 
L 4563 4512 
z
M 5632 5318 
L 5824 5318 
L 5824 -70 
Q 5824 -211 5776 -275 
Q 5728 -339 5626 -365 
Q 5530 -390 5328 -396 
Q 5126 -403 4787 -403 
Q 4774 -365 4752 -307 
Q 4730 -250 4704 -205 
Q 4992 -211 5213 -211 
Q 5434 -211 5504 -211 
Q 5574 -205 5603 -176 
Q 5632 -147 5632 -77 
L 5632 5318 
z
M 1568 5312 
L 1754 5267 
Q 1600 4749 1398 4253 
Q 1197 3757 957 3321 
Q 717 2886 442 2541 
Q 429 2560 403 2589 
Q 378 2618 352 2646 
Q 326 2675 301 2694 
Q 710 3174 1036 3865 
Q 1363 4557 1568 5312 
z
M 1088 3878 
L 1274 4064 
L 1274 4058 
L 1274 -429 
L 1088 -429 
L 1088 3878 
z
" transform="scale(0.015625)"/>
      </defs>
      <use xlink:href="#NotoSansSC-Thin-89c2"/>
      <use xlink:href="#NotoSansSC-Thin-5bdf" transform="translate(99.999985 0)"/>
      <use xlink:href="#NotoSansSC-Thin-8fbe" transform="translate(199.999969 0)"/>
      <use xlink:href="#NotoSansSC-Thin-6807" transform="translate(299.999954 0)"/>
      <use xlink:href="#NotoSansSC-Thin-6bd4" transform="translate(399.999939 0)"/>
      <use xlink:href="#NotoSansSC-Thin-4f8b" transform="translate(499.999924 0)"/>
     </g>
    </g>
   </g>
   <g id="PathCollection_1">
    <path d="M 203.466134 56.793875 
C 205.035657 56.793875 206.541108 56.170297 207.650928 55.060477 
C 208.760748 53.950656 209.384326 52.445206 209.384326 50.875683 
C 209.384326 49.30616 208.760748 47.800709 207.650928 46.690889 
C 206.541108 45.581069 205.035657 44.95749 203.466134 44.95749 
C 201.896611 44.95749 200.391161 45.581069 199.28134 46.690889 
C 198.17152 47.800709 197.547942 49.30616 197.547942 50.875683 
C 197.547942 52.445206 198.17152 53.950656 199.28134 55.060477 
C 200.391161 56.170297 201.896611 56.793875 203.466134 56.793875 
z
" clip-path="url(#pd4d043c96d)" style="fill: #0072b2; fill-opacity: 0.75; stroke: #ffffff; stroke-opacity: 0.75; stroke-width: 0.5"/>
    <path d="M 199.454994 43.493189 
C 200.432116 43.493189 201.369348 43.104975 202.060277 42.414045 
C 202.751206 41.723116 203.139421 40.785884 203.139421 39.808762 
C 203.139421 38.831641 202.751206 37.894408 202.060277 37.203479 
C 201.369348 36.51255 200.432116 36.124336 199.454994 36.124336 
C 198.477873 36.124336 197.54064 36.51255 196.849711 37.203479 
C 196.158782 37.894408 195.770568 38.831641 195.770568 39.808762 
C 195.770568 40.785884 196.158782 41.723116 196.849711 42.414045 
C 197.54064 43.104975 198.477873 43.493189 199.454994 43.493189 
z
" clip-path="url(#pd4d043c96d)" style="fill: #0072b2; fill-opacity: 0.75; stroke: #ffffff; stroke-opacity: 0.75; stroke-width: 0.5"/>
    <path d="M 195.236748 56.913305 
C 196.361128 56.913305 197.439608 56.466584 198.234664 55.671527 
C 199.029721 54.876471 199.476442 53.797991 199.476442 52.673612 
C 199.476442 51.549232 199.029721 50.470752 198.234664 49.675696 
C 197.439608 48.880639 196.361128 48.433918 195.236748 48.433918 
C 194.112369 48.433918 193.033889 48.880639 192.238832 49.675696 
C 191.443776 50.470752 190.997055 51.549232 190.997055 52.673612 
C 190.997055 53.797991 191.443776 54.876471 192.238832 55.671527 
C 193.033889 56.466584 194.112369 56.913305 195.236748 56.913305 
z
" clip-path="url(#pd4d043c96d)" style="fill: #0072b2; fill-opacity: 0.75; stroke: #ffffff; stroke-opacity: 0.75; stroke-width: 0.5"/>
    <path d="M 189.973966 58.743054 
C 190.960935 58.743054 191.907614 58.350927 192.605506 57.653035 
C 193.303398 56.955142 193.695525 56.008464 193.695525 55.021495 
C 193.695525 54.034526 193.303398 53.087848 192.605506 52.389956 
C 191.907614 51.692063 190.960935 51.299936 189.973966 51.299936 
C 188.986998 51.299936 188.040319 51.692063 187.342427 52.389956 
C 186.644535 53.087848 186.252408 54.034526 186.252408 55.021495 
C 186.252408 56.008464 186.644535 56.955142 187.342427 57.653035 
C 188.040319 58.350927 188.986998 58.743054 189.973966 58.743054 
z
" clip-path="url(#pd4d043c96d)" style="fill: #0072b2; fill-opacity: 0.75; stroke: #ffffff; stroke-opacity: 0.75; stroke-width: 0.5"/>
    <path d="M 181.362072 94.256793 
C 182.406178 94.256793 183.40766 93.841965 184.145954 93.103671 
C 184.884249 92.365377 185.299076 91.363895 185.299076 90.319789 
C 185.299076 89.275683 184.884249 88.274201 184.145954 87.535907 
C 183.40766 86.797613 182.406178 86.382785 181.362072 86.382785 
C 180.317967 86.382785 179.316484 86.797613 178.57819 87.535907 
C 177.839896 88.274201 177.425068 89.275683 177.425068 90.319789 
C 177.425068 91.363895 177.839896 92.365377 178.57819 93.103671 
C 179.316484 93.841965 180.317967 94.256793 181.362072 94.256793 
z
" clip-path="url(#pd4d043c96d)" style="fill: #0072b2; fill-opacity: 0.75; stroke: #ffffff; stroke-opacity: 0.75; stroke-width: 0.5"/>
   </g>
   <g id="line2d_25">
    <path d="M 35.405938 201.444047 
L 237.944676 23.645234 
" clip-path="url(#pd4d043c96d)" style="fill: none; stroke-dasharray: 3.7,1.6; stroke-dashoffset: 0; stroke: #4d4d4d"/>
   </g>
   <g id="patch_3">
    <path d="M 35.405938 201.444047 
L 35.405938 23.645234 
" style="fill: none; stroke: #000000; stroke-width: 0.7; stroke-linejoin: miter; stroke-linecap: square"/>
   </g>
   <g id="patch_4">
    <path d="M 35.405938 201.444047 
L 237.944676 201.444047 
" style="fill: none; stroke: #000000; stroke-width: 0.7; stroke-linejoin: miter; stroke-linecap: square"/>
   </g>
   <g id="text_15">
    <g id="patch_5">
     <path d="M 39.4661 69.441746 
L 130.613318 69.441746 
L 130.613318 28.741186 
L 39.4661 28.741186 
z
" style="fill: #ffffff; opacity: 0.82"/>
    </g>
    <!-- G1: n=111, 预测=0.83, 观察=0.85 -->
    <g transform="translate(41.4821 35.75978) scale(0.063 -0.063)">
     <defs>
      <path id="NotoSansSC-Thin-47" d="M 2355 -83 
Q 1766 -83 1324 217 
Q 883 518 640 1062 
Q 397 1606 397 2336 
Q 397 2886 541 3328 
Q 685 3770 953 4083 
Q 1222 4397 1593 4563 
Q 1965 4730 2426 4730 
Q 2893 4730 3190 4550 
Q 3488 4371 3667 4179 
L 3520 4019 
Q 3341 4218 3078 4362 
Q 2816 4506 2426 4506 
Q 1875 4506 1475 4240 
Q 1075 3974 860 3488 
Q 646 3002 646 2336 
Q 646 1670 854 1177 
Q 1062 685 1449 413 
Q 1837 141 2374 141 
Q 2707 141 3001 240 
Q 3296 339 3469 512 
L 3469 2035 
L 2323 2035 
L 2323 2246 
L 3718 2246 
L 3718 435 
Q 3501 205 3155 61 
Q 2810 -83 2355 -83 
z
" transform="scale(0.015625)"/>
      <path id="NotoSansSC-Thin-3a" d="M 736 2656 
Q 640 2656 560 2726 
Q 480 2797 480 2931 
Q 480 3072 560 3145 
Q 640 3219 736 3219 
Q 838 3219 918 3145 
Q 998 3072 998 2931 
Q 998 2797 918 2726 
Q 838 2656 736 2656 
z
M 736 -83 
Q 640 -83 560 -9 
Q 480 64 480 192 
Q 480 333 560 406 
Q 640 480 736 480 
Q 838 480 918 406 
Q 998 333 998 192 
Q 998 64 918 -9 
Q 838 -83 736 -83 
z
" transform="scale(0.015625)"/>
      <path id="NotoSansSC-Thin-20" transform="scale(0.015625)"/>
      <path id="NotoSansSC-Thin-6e" d="M 672 0 
L 672 3373 
L 864 3373 
L 902 2835 
L 915 2835 
Q 1178 3098 1453 3277 
Q 1728 3456 2080 3456 
Q 2598 3456 2848 3139 
Q 3098 2822 3098 2170 
L 3098 0 
L 2867 0 
L 2867 2138 
Q 2867 2694 2678 2969 
Q 2490 3245 2054 3245 
Q 1741 3245 1481 3078 
Q 1222 2912 902 2579 
L 902 0 
L 672 0 
z
" transform="scale(0.015625)"/>
      <path id="NotoSansSC-Thin-3d" d="M 237 2931 
L 237 3130 
L 3098 3130 
L 3098 2931 
L 237 2931 
z
M 237 1517 
L 237 1722 
L 3098 1722 
L 3098 1517 
L 237 1517 
z
" transform="scale(0.015625)"/>
      <path id="NotoSansSC-Thin-2c" d="M 422 -1062 
L 339 -890 
Q 563 -762 707 -541 
Q 851 -320 851 -13 
L 755 371 
L 992 70 
Q 947 0 889 -22 
Q 832 -45 768 -45 
Q 659 -45 582 25 
Q 506 96 506 218 
Q 506 346 586 413 
Q 666 480 768 480 
Q 909 480 995 358 
Q 1082 237 1082 32 
Q 1082 -326 893 -611 
Q 704 -896 422 -1062 
z
" transform="scale(0.015625)"/>
      <path id="NotoSansSC-Thin-33" d="M 1619 -83 
Q 1261 -83 998 13 
Q 736 109 544 256 
Q 352 403 211 550 
L 358 717 
Q 563 499 857 313 
Q 1152 128 1632 128 
Q 1952 128 2198 262 
Q 2445 397 2585 640 
Q 2726 883 2726 1210 
Q 2726 1542 2560 1795 
Q 2394 2048 2038 2189 
Q 1683 2330 1114 2330 
L 1114 2554 
Q 1651 2554 1964 2698 
Q 2278 2842 2416 3088 
Q 2554 3334 2554 3629 
Q 2554 4026 2298 4272 
Q 2042 4518 1606 4518 
Q 1293 4518 1017 4374 
Q 742 4230 557 4026 
L 410 4192 
Q 634 4410 925 4570 
Q 1216 4730 1606 4730 
Q 1939 4730 2211 4598 
Q 2483 4467 2643 4224 
Q 2803 3981 2803 3642 
Q 2803 3168 2550 2877 
Q 2298 2586 1926 2464 
L 1926 2438 
Q 2208 2381 2445 2221 
Q 2682 2061 2826 1808 
Q 2970 1555 2970 1222 
Q 2970 826 2790 531 
Q 2611 237 2307 77 
Q 2003 -83 1619 -83 
z
" transform="scale(0.015625)"/>
      <path id="NotoSansSC-Thin-35" d="M 1581 -83 
Q 1222 -83 963 9 
Q 704 102 515 240 
Q 326 378 186 518 
L 333 691 
Q 467 550 636 422 
Q 806 294 1040 211 
Q 1274 128 1594 128 
Q 1901 128 2166 294 
Q 2432 461 2592 765 
Q 2752 1069 2752 1466 
Q 2752 2061 2441 2406 
Q 2131 2752 1606 2752 
Q 1350 2752 1152 2665 
Q 954 2579 755 2445 
L 563 2560 
L 730 4646 
L 2758 4646 
L 2758 4435 
L 941 4435 
L 787 2726 
Q 966 2835 1168 2902 
Q 1370 2970 1626 2970 
Q 2010 2970 2320 2813 
Q 2630 2656 2812 2326 
Q 2995 1997 2995 1478 
Q 2995 979 2787 630 
Q 2579 282 2256 99 
Q 1933 -83 1581 -83 
z
" transform="scale(0.015625)"/>
     </defs>
     <use xlink:href="#NotoSansSC-Thin-47"/>
     <use xlink:href="#NotoSansSC-Thin-31" transform="translate(66.099991 0)"/>
     <use xlink:href="#NotoSansSC-Thin-3a" transform="translate(118.199982 0)"/>
     <use xlink:href="#NotoSansSC-Thin-20" transform="translate(141.299973 0)"/>
     <use xlink:href="#NotoSansSC-Thin-6e" transform="translate(163.299957 0)"/>
     <use xlink:href="#NotoSansSC-Thin-3d" transform="translate(221.299942 0)"/>
     <use xlink:href="#NotoSansSC-Thin-31" transform="translate(273.399933 0)"/>
     <use xlink:href="#NotoSansSC-Thin-31" transform="translate(325.499924 0)"/>
     <use xlink:href="#NotoSansSC-Thin-31" transform="translate(377.599915 0)"/>
     <use xlink:href="#NotoSansSC-Thin-2c" transform="translate(429.699905 0)"/>
     <use xlink:href="#NotoSansSC-Thin-20" transform="translate(452.799896 0)"/>
     <use xlink:href="#NotoSansSC-Thin-9884" transform="translate(474.799881 0)"/>
     <use xlink:href="#NotoSansSC-Thin-6d4b" transform="translate(574.799866 0)"/>
     <use xlink:href="#NotoSansSC-Thin-3d" transform="translate(674.79985 0)"/>
     <use xlink:href="#NotoSansSC-Thin-30" transform="translate(726.899841 0)"/>
     <use xlink:href="#NotoSansSC-Thin-2e" transform="translate(778.999832 0)"/>
     <use xlink:href="#NotoSansSC-Thin-38" transform="translate(802.099823 0)"/>
     <use xlink:href="#NotoSansSC-Thin-33" transform="translate(854.199814 0)"/>
     <use xlink:href="#NotoSansSC-Thin-2c" transform="translate(906.299805 0)"/>
     <use xlink:href="#NotoSansSC-Thin-20" transform="translate(929.399796 0)"/>
     <use xlink:href="#NotoSansSC-Thin-89c2" transform="translate(951.39978 0)"/>
     <use xlink:href="#NotoSansSC-Thin-5bdf" transform="translate(1051.399765 0)"/>
     <use xlink:href="#NotoSansSC-Thin-3d" transform="translate(1151.39975 0)"/>
     <use xlink:href="#NotoSansSC-Thin-30" transform="translate(1203.499741 0)"/>
     <use xlink:href="#NotoSansSC-Thin-2e" transform="translate(1255.599731 0)"/>
     <use xlink:href="#NotoSansSC-Thin-38" transform="translate(1278.699722 0)"/>
     <use xlink:href="#NotoSansSC-Thin-35" transform="translate(1330.799713 0)"/>
    </g>
    <!-- G2: n=33, 预测=0.81, 观察=0.91 -->
    <g transform="translate(41.4821 43.293596) scale(0.063 -0.063)">
     <defs>
      <path id="NotoSansSC-Thin-39" d="M 1370 -83 
Q 1050 -83 819 32 
Q 589 147 410 339 
L 557 506 
Q 723 314 934 221 
Q 1146 128 1389 128 
Q 1651 128 1891 256 
Q 2131 384 2316 675 
Q 2502 966 2611 1443 
Q 2720 1920 2720 2618 
Q 2720 3168 2592 3600 
Q 2464 4032 2195 4278 
Q 1926 4525 1498 4525 
Q 1229 4525 1014 4355 
Q 800 4186 675 3901 
Q 550 3616 550 3264 
Q 550 2912 652 2627 
Q 755 2342 979 2172 
Q 1203 2003 1555 2003 
Q 1830 2003 2137 2182 
Q 2445 2362 2739 2765 
L 2746 2470 
Q 2586 2278 2397 2128 
Q 2208 1978 1993 1891 
Q 1779 1805 1536 1805 
Q 1152 1805 877 1974 
Q 602 2144 454 2470 
Q 307 2797 307 3264 
Q 307 3686 473 4019 
Q 640 4352 912 4541 
Q 1184 4730 1510 4730 
Q 1850 4730 2118 4589 
Q 2387 4448 2572 4176 
Q 2758 3904 2857 3513 
Q 2957 3123 2957 2618 
Q 2957 1862 2825 1344 
Q 2694 826 2470 512 
Q 2246 198 1961 57 
Q 1677 -83 1370 -83 
z
" transform="scale(0.015625)"/>
     </defs>
     <use xlink:href="#NotoSansSC-Thin-47"/>
     <use xlink:href="#NotoSansSC-Thin-32" transform="translate(66.099991 0)"/>
     <use xlink:href="#NotoSansSC-Thin-3a" transform="translate(118.199982 0)"/>
     <use xlink:href="#NotoSansSC-Thin-20" transform="translate(141.299973 0)"/>
     <use xlink:href="#NotoSansSC-Thin-6e" transform="translate(163.299957 0)"/>
     <use xlink:href="#NotoSansSC-Thin-3d" transform="translate(221.299942 0)"/>
     <use xlink:href="#NotoSansSC-Thin-33" transform="translate(273.399933 0)"/>
     <use xlink:href="#NotoSansSC-Thin-33" transform="translate(325.499924 0)"/>
     <use xlink:href="#NotoSansSC-Thin-2c" transform="translate(377.599915 0)"/>
     <use xlink:href="#NotoSansSC-Thin-20" transform="translate(400.699905 0)"/>
     <use xlink:href="#NotoSansSC-Thin-9884" transform="translate(422.69989 0)"/>
     <use xlink:href="#NotoSansSC-Thin-6d4b" transform="translate(522.699875 0)"/>
     <use xlink:href="#NotoSansSC-Thin-3d" transform="translate(622.69986 0)"/>
     <use xlink:href="#NotoSansSC-Thin-30" transform="translate(674.79985 0)"/>
     <use xlink:href="#NotoSansSC-Thin-2e" transform="translate(726.899841 0)"/>
     <use xlink:href="#NotoSansSC-Thin-38" transform="translate(749.999832 0)"/>
     <use xlink:href="#NotoSansSC-Thin-31" transform="translate(802.099823 0)"/>
     <use xlink:href="#NotoSansSC-Thin-2c" transform="translate(854.199814 0)"/>
     <use xlink:href="#NotoSansSC-Thin-20" transform="translate(877.299805 0)"/>
     <use xlink:href="#NotoSansSC-Thin-89c2" transform="translate(899.299789 0)"/>
     <use xlink:href="#NotoSansSC-Thin-5bdf" transform="translate(999.299774 0)"/>
     <use xlink:href="#NotoSansSC-Thin-3d" transform="translate(1099.299759 0)"/>
     <use xlink:href="#NotoSansSC-Thin-30" transform="translate(1151.39975 0)"/>
     <use xlink:href="#NotoSansSC-Thin-2e" transform="translate(1203.499741 0)"/>
     <use xlink:href="#NotoSansSC-Thin-39" transform="translate(1226.599731 0)"/>
     <use xlink:href="#NotoSansSC-Thin-31" transform="translate(1278.699722 0)"/>
    </g>
    <!-- G3: n=49, 预测=0.79, 观察=0.84 -->
    <g transform="translate(41.4821 50.827411) scale(0.063 -0.063)">
     <defs>
      <path id="NotoSansSC-Thin-37" d="M 1344 0 
Q 1376 717 1462 1318 
Q 1549 1920 1712 2445 
Q 1875 2970 2124 3459 
Q 2374 3949 2726 4435 
L 307 4435 
L 307 4646 
L 3034 4646 
L 3034 4512 
Q 2624 3955 2355 3436 
Q 2086 2918 1932 2384 
Q 1779 1850 1705 1267 
Q 1632 685 1606 0 
L 1344 0 
z
" transform="scale(0.015625)"/>
     </defs>
     <use xlink:href="#NotoSansSC-Thin-47"/>
     <use xlink:href="#NotoSansSC-Thin-33" transform="translate(66.099991 0)"/>
     <use xlink:href="#NotoSansSC-Thin-3a" transform="translate(118.199982 0)"/>
     <use xlink:href="#NotoSansSC-Thin-20" transform="translate(141.299973 0)"/>
     <use xlink:href="#NotoSansSC-Thin-6e" transform="translate(163.299957 0)"/>
     <use xlink:href="#NotoSansSC-Thin-3d" transform="translate(221.299942 0)"/>
     <use xlink:href="#NotoSansSC-Thin-34" transform="translate(273.399933 0)"/>
     <use xlink:href="#NotoSansSC-Thin-39" transform="translate(325.499924 0)"/>
     <use xlink:href="#NotoSansSC-Thin-2c" transform="translate(377.599915 0)"/>
     <use xlink:href="#NotoSansSC-Thin-20" transform="translate(400.699905 0)"/>
     <use xlink:href="#NotoSansSC-Thin-9884" transform="translate(422.69989 0)"/>
     <use xlink:href="#NotoSansSC-Thin-6d4b" transform="translate(522.699875 0)"/>
     <use xlink:href="#NotoSansSC-Thin-3d" transform="translate(622.69986 0)"/>
     <use xlink:href="#NotoSansSC-Thin-30" transform="translate(674.79985 0)"/>
     <use xlink:href="#NotoSansSC-Thin-2e" transform="translate(726.899841 0)"/>
     <use xlink:href="#NotoSansSC-Thin-37" transform="translate(749.999832 0)"/>
     <use xlink:href="#NotoSansSC-Thin-39" transform="translate(802.099823 0)"/>
     <use xlink:href="#NotoSansSC-Thin-2c" transform="translate(854.199814 0)"/>
     <use xlink:href="#NotoSansSC-Thin-20" transform="translate(877.299805 0)"/>
     <use xlink:href="#NotoSansSC-Thin-89c2" transform="translate(899.299789 0)"/>
     <use xlink:href="#NotoSansSC-Thin-5bdf" transform="translate(999.299774 0)"/>
     <use xlink:href="#NotoSansSC-Thin-3d" transform="translate(1099.299759 0)"/>
     <use xlink:href="#NotoSansSC-Thin-30" transform="translate(1151.39975 0)"/>
     <use xlink:href="#NotoSansSC-Thin-2e" transform="translate(1203.499741 0)"/>
     <use xlink:href="#NotoSansSC-Thin-38" transform="translate(1226.599731 0)"/>
     <use xlink:href="#NotoSansSC-Thin-34" transform="translate(1278.699722 0)"/>
    </g>
    <!-- G4: n=34, 预测=0.76, 观察=0.82 -->
    <g transform="translate(41.4821 58.361227) scale(0.063 -0.063)">
     <use xlink:href="#NotoSansSC-Thin-47"/>
     <use xlink:href="#NotoSansSC-Thin-34" transform="translate(66.099991 0)"/>
     <use xlink:href="#NotoSansSC-Thin-3a" transform="translate(118.199982 0)"/>
     <use xlink:href="#NotoSansSC-Thin-20" transform="translate(141.299973 0)"/>
     <use xlink:href="#NotoSansSC-Thin-6e" transform="translate(163.299957 0)"/>
     <use xlink:href="#NotoSansSC-Thin-3d" transform="translate(221.299942 0)"/>
     <use xlink:href="#NotoSansSC-Thin-33" transform="translate(273.399933 0)"/>
     <use xlink:href="#NotoSansSC-Thin-34" transform="translate(325.499924 0)"/>
     <use xlink:href="#NotoSansSC-Thin-2c" transform="translate(377.599915 0)"/>
     <use xlink:href="#NotoSansSC-Thin-20" transform="translate(400.699905 0)"/>
     <use xlink:href="#NotoSansSC-Thin-9884" transform="translate(422.69989 0)"/>
     <use xlink:href="#NotoSansSC-Thin-6d4b" transform="translate(522.699875 0)"/>
     <use xlink:href="#NotoSansSC-Thin-3d" transform="translate(622.69986 0)"/>
     <use xlink:href="#NotoSansSC-Thin-30" transform="translate(674.79985 0)"/>
     <use xlink:href="#NotoSansSC-Thin-2e" transform="translate(726.899841 0)"/>
     <use xlink:href="#NotoSansSC-Thin-37" transform="translate(749.999832 0)"/>
     <use xlink:href="#NotoSansSC-Thin-36" transform="translate(802.099823 0)"/>
     <use xlink:href="#NotoSansSC-Thin-2c" transform="translate(854.199814 0)"/>
     <use xlink:href="#NotoSansSC-Thin-20" transform="translate(877.299805 0)"/>
     <use xlink:href="#NotoSansSC-Thin-89c2" transform="translate(899.299789 0)"/>
     <use xlink:href="#NotoSansSC-Thin-5bdf" transform="translate(999.299774 0)"/>
     <use xlink:href="#NotoSansSC-Thin-3d" transform="translate(1099.299759 0)"/>
     <use xlink:href="#NotoSansSC-Thin-30" transform="translate(1151.39975 0)"/>
     <use xlink:href="#NotoSansSC-Thin-2e" transform="translate(1203.499741 0)"/>
     <use xlink:href="#NotoSansSC-Thin-38" transform="translate(1226.599731 0)"/>
     <use xlink:href="#NotoSansSC-Thin-32" transform="translate(1278.699722 0)"/>
    </g>
    <!-- G5: n=40, 预测=0.72, 观察=0.62 -->
    <g transform="translate(41.4821 65.895043) scale(0.063 -0.063)">
     <use xlink:href="#NotoSansSC-Thin-47"/>
     <use xlink:href="#NotoSansSC-Thin-35" transform="translate(66.099991 0)"/>
     <use xlink:href="#NotoSansSC-Thin-3a" transform="translate(118.199982 0)"/>
     <use xlink:href="#NotoSansSC-Thin-20" transform="translate(141.299973 0)"/>
     <use xlink:href="#NotoSansSC-Thin-6e" transform="translate(163.299957 0)"/>
     <use xlink:href="#NotoSansSC-Thin-3d" transform="translate(221.299942 0)"/>
     <use xlink:href="#NotoSansSC-Thin-34" transform="translate(273.399933 0)"/>
     <use xlink:href="#NotoSansSC-Thin-30" transform="translate(325.499924 0)"/>
     <use xlink:href="#NotoSansSC-Thin-2c" transform="translate(377.599915 0)"/>
     <use xlink:href="#NotoSansSC-Thin-20" transform="translate(400.699905 0)"/>
     <use xlink:href="#NotoSansSC-Thin-9884" transform="translate(422.69989 0)"/>
     <use xlink:href="#NotoSansSC-Thin-6d4b" transform="translate(522.699875 0)"/>
     <use xlink:href="#NotoSansSC-Thin-3d" transform="translate(622.69986 0)"/>
     <use xlink:href="#NotoSansSC-Thin-30" transform="translate(674.79985 0)"/>
     <use xlink:href="#NotoSansSC-Thin-2e" transform="translate(726.899841 0)"/>
     <use xlink:href="#NotoSansSC-Thin-37" transform="translate(749.999832 0)"/>
     <use xlink:href="#NotoSansSC-Thin-32" transform="translate(802.099823 0)"/>
     <use xlink:href="#NotoSansSC-Thin-2c" transform="translate(854.199814 0)"/>
     <use xlink:href="#NotoSansSC-Thin-20" transform="translate(877.299805 0)"/>
     <use xlink:href="#NotoSansSC-Thin-89c2" transform="translate(899.299789 0)"/>
     <use xlink:href="#NotoSansSC-Thin-5bdf" transform="translate(999.299774 0)"/>
     <use xlink:href="#NotoSansSC-Thin-3d" transform="translate(1099.299759 0)"/>
     <use xlink:href="#NotoSansSC-Thin-30" transform="translate(1151.39975 0)"/>
     <use xlink:href="#NotoSansSC-Thin-2e" transform="translate(1203.499741 0)"/>
     <use xlink:href="#NotoSansSC-Thin-36" transform="translate(1226.599731 0)"/>
     <use xlink:href="#NotoSansSC-Thin-32" transform="translate(1278.699722 0)"/>
    </g>
   </g>
   <g id="text_16">
    <!-- a -->
    <g transform="translate(13.126676 14.346563) scale(0.09 -0.09)">
     <defs>
      <path id="NotoSansSC-Thin-61" d="M 1395 -83 
Q 1133 -83 912 13 
Q 691 109 556 310 
Q 422 512 422 832 
Q 422 1395 953 1686 
Q 1485 1978 2624 2106 
Q 2637 2381 2576 2640 
Q 2515 2899 2336 3072 
Q 2157 3245 1805 3245 
Q 1446 3245 1158 3104 
Q 870 2963 704 2835 
L 589 3021 
Q 698 3098 880 3200 
Q 1062 3302 1302 3379 
Q 1542 3456 1818 3456 
Q 2214 3456 2441 3280 
Q 2669 3104 2761 2816 
Q 2854 2528 2854 2182 
L 2854 0 
L 2662 0 
L 2630 448 
L 2611 448 
Q 2355 237 2044 77 
Q 1734 -83 1395 -83 
z
M 1414 128 
Q 1715 128 2003 272 
Q 2291 416 2624 698 
L 2624 1907 
Q 1894 1830 1462 1686 
Q 1030 1542 844 1334 
Q 659 1126 659 838 
Q 659 448 883 288 
Q 1107 128 1414 128 
z
" transform="scale(0.015625)"/>
     </defs>
     <use xlink:href="#NotoSansSC-Thin-61"/>
    </g>
   </g>
   <g id="text_17">
    <!-- BMI组校准 -->
    <g transform="translate(115.709526 17.645234) scale(0.09 -0.09)">
     <defs>
      <path id="NotoSansSC-Thin-42" d="M 704 0 
L 704 4646 
L 1920 4646 
Q 2387 4646 2723 4524 
Q 3059 4403 3244 4153 
Q 3430 3904 3430 3520 
Q 3430 3277 3347 3072 
Q 3264 2867 3104 2723 
Q 2944 2579 2701 2509 
L 2701 2477 
Q 3162 2406 3443 2121 
Q 3725 1837 3725 1350 
Q 3725 909 3513 608 
Q 3302 307 2918 153 
Q 2534 0 2003 0 
L 704 0 
z
M 941 2586 
L 1779 2586 
Q 2541 2586 2864 2832 
Q 3187 3078 3187 3507 
Q 3187 4019 2841 4230 
Q 2496 4442 1824 4442 
L 941 4442 
L 941 2586 
z
M 941 211 
L 1920 211 
Q 2643 211 3065 483 
Q 3488 755 3488 1338 
Q 3488 1869 3075 2121 
Q 2662 2374 1920 2374 
L 941 2374 
L 941 211 
z
" transform="scale(0.015625)"/>
      <path id="NotoSansSC-Thin-4d" d="M 704 0 
L 704 4646 
L 1082 4646 
L 2074 1843 
Q 2170 1587 2266 1321 
Q 2362 1056 2458 794 
L 2483 794 
Q 2579 1056 2668 1321 
Q 2758 1587 2848 1843 
L 3846 4646 
L 4224 4646 
L 4224 0 
L 3987 0 
L 3987 3213 
Q 3987 3398 3990 3606 
Q 3994 3814 4000 4028 
Q 4006 4243 4013 4429 
L 3987 4429 
L 3629 3405 
L 2586 518 
L 2336 518 
L 1286 3405 
L 922 4429 
L 896 4429 
Q 909 4243 915 4028 
Q 922 3814 925 3606 
Q 928 3398 928 3213 
L 928 0 
L 704 0 
z
" transform="scale(0.015625)"/>
      <path id="NotoSansSC-Thin-49" d="M 704 0 
L 704 4646 
L 941 4646 
L 941 0 
L 704 0 
z
" transform="scale(0.015625)"/>
      <path id="NotoSansSC-Thin-7ec4" d="M 2387 -102 
L 6086 -102 
L 6086 -294 
L 2387 -294 
L 2387 -102 
z
M 3194 3341 
L 5427 3341 
L 5427 3149 
L 3194 3149 
L 3194 3341 
z
M 3200 1632 
L 5434 1632 
L 5434 1446 
L 3200 1446 
L 3200 1632 
z
M 3117 4992 
L 5491 4992 
L 5491 -192 
L 5299 -192 
L 5299 4806 
L 3309 4806 
L 3309 -192 
L 3117 -192 
L 3117 4992 
z
M 435 1248 
Q 429 1274 416 1315 
Q 403 1357 390 1398 
Q 378 1440 358 1466 
Q 448 1478 576 1596 
Q 704 1715 864 1894 
Q 954 1984 1126 2185 
Q 1299 2387 1516 2668 
Q 1734 2950 1968 3273 
Q 2202 3597 2400 3930 
L 2586 3834 
Q 2131 3136 1628 2499 
Q 1126 1862 621 1389 
L 621 1382 
Q 621 1382 592 1369 
Q 563 1357 528 1337 
Q 493 1318 464 1296 
Q 435 1274 435 1248 
z
M 435 1248 
L 435 1427 
L 582 1530 
L 2515 1914 
Q 2515 1869 2521 1821 
Q 2528 1773 2534 1741 
Q 1856 1600 1453 1510 
Q 1050 1421 845 1373 
Q 640 1325 557 1299 
Q 474 1274 435 1248 
z
M 397 2765 
Q 390 2790 377 2832 
Q 365 2874 352 2915 
Q 339 2957 326 2982 
Q 403 2995 496 3110 
Q 589 3226 704 3392 
Q 768 3482 893 3674 
Q 1018 3866 1171 4128 
Q 1325 4390 1481 4691 
Q 1638 4992 1766 5293 
L 1958 5210 
Q 1754 4787 1526 4371 
Q 1299 3955 1062 3584 
Q 826 3213 576 2912 
L 576 2906 
Q 576 2906 550 2893 
Q 525 2880 486 2857 
Q 448 2835 422 2812 
Q 397 2790 397 2765 
z
M 397 2765 
L 397 2944 
L 544 3034 
L 1997 3219 
Q 1997 3181 1997 3126 
Q 1997 3072 2003 3040 
Q 1498 2970 1190 2922 
Q 883 2874 723 2845 
Q 563 2816 496 2800 
Q 429 2784 397 2765 
z
M 333 243 
Q 608 307 963 390 
Q 1318 474 1724 570 
Q 2131 666 2541 762 
L 2554 582 
Q 1971 442 1392 301 
Q 813 160 378 51 
L 333 243 
z
" transform="scale(0.015625)"/>
      <path id="NotoSansSC-Thin-6821" d="M 2534 4320 
L 6010 4320 
L 6010 4134 
L 2534 4134 
L 2534 4320 
z
M 3488 3808 
L 3674 3738 
Q 3488 3360 3203 2973 
Q 2918 2586 2586 2285 
Q 2560 2310 2518 2339 
Q 2477 2368 2445 2387 
Q 2662 2579 2864 2819 
Q 3066 3059 3226 3315 
Q 3386 3571 3488 3808 
z
M 4659 3731 
L 4813 3814 
Q 5030 3603 5248 3350 
Q 5466 3098 5654 2854 
Q 5843 2611 5952 2419 
L 5798 2323 
Q 5690 2515 5504 2761 
Q 5318 3008 5097 3264 
Q 4877 3520 4659 3731 
z
M 3309 2669 
Q 3552 1997 3958 1417 
Q 4365 838 4902 409 
Q 5440 -19 6067 -250 
Q 6042 -269 6016 -297 
Q 5990 -326 5968 -355 
Q 5946 -384 5926 -410 
Q 5299 -160 4758 285 
Q 4218 730 3805 1325 
Q 3392 1920 3136 2611 
L 3309 2669 
z
M 3718 5229 
L 3853 5318 
Q 4032 5139 4192 4924 
Q 4352 4710 4435 4544 
L 4288 4435 
Q 4205 4602 4048 4826 
Q 3891 5050 3718 5229 
z
M 480 3866 
L 2374 3866 
L 2374 3674 
L 480 3674 
L 480 3866 
z
M 1389 5318 
L 1574 5318 
L 1574 -435 
L 1389 -435 
L 1389 5318 
z
M 1376 3814 
L 1549 3763 
Q 1472 3386 1347 2970 
Q 1222 2554 1072 2157 
Q 922 1760 752 1417 
Q 582 1075 416 838 
Q 403 864 377 889 
Q 352 915 323 944 
Q 294 973 269 986 
Q 435 1210 598 1536 
Q 762 1862 912 2246 
Q 1062 2630 1180 3033 
Q 1299 3437 1376 3814 
z
M 1555 3386 
Q 1606 3315 1708 3142 
Q 1811 2970 1932 2762 
Q 2054 2554 2153 2374 
Q 2253 2195 2298 2118 
L 2150 1958 
Q 2106 2061 2010 2249 
Q 1914 2438 1798 2649 
Q 1683 2861 1584 3040 
Q 1485 3219 1434 3296 
L 1555 3386 
z
M 4986 2720 
L 5184 2682 
Q 4890 1619 4230 835 
Q 3571 51 2534 -454 
Q 2522 -435 2496 -412 
Q 2470 -390 2448 -368 
Q 2426 -346 2400 -333 
Q 3424 166 4077 924 
Q 4730 1683 4986 2720 
z
" transform="scale(0.015625)"/>
      <path id="NotoSansSC-Thin-51c6" d="M 2541 2848 
L 5709 2848 
L 5709 2662 
L 2541 2662 
L 2541 2848 
z
M 2541 1549 
L 5709 1549 
L 5709 1363 
L 2541 1363 
L 2541 1549 
z
M 2528 230 
L 6003 230 
L 6003 45 
L 2528 45 
L 2528 230 
z
M 2931 5248 
L 3117 5210 
Q 2938 4710 2704 4240 
Q 2470 3770 2201 3363 
Q 1933 2957 1632 2637 
Q 1619 2656 1587 2678 
Q 1555 2701 1523 2723 
Q 1491 2746 1466 2758 
Q 1773 3066 2041 3462 
Q 2310 3859 2537 4316 
Q 2765 4774 2931 5248 
z
M 2630 4134 
L 5850 4134 
L 5850 3949 
L 2630 3949 
L 2630 -442 
L 2438 -442 
L 2438 3974 
L 2586 4134 
L 2630 4134 
z
M 4186 4026 
L 4371 4026 
L 4371 134 
L 4186 134 
L 4186 4026 
z
M 3930 5184 
L 4083 5242 
Q 4230 5037 4364 4790 
Q 4499 4544 4563 4365 
L 4384 4288 
Q 4320 4474 4192 4726 
Q 4064 4979 3930 5184 
z
M 397 4922 
L 544 5011 
Q 730 4806 915 4569 
Q 1101 4333 1257 4105 
Q 1414 3878 1504 3706 
L 1350 3603 
Q 1261 3776 1104 4006 
Q 947 4237 764 4480 
Q 582 4723 397 4922 
z
M 397 -19 
Q 544 237 726 595 
Q 909 954 1088 1344 
Q 1267 1734 1414 2093 
L 1555 1971 
Q 1421 1638 1248 1254 
Q 1075 870 899 508 
Q 723 147 563 -141 
L 397 -19 
z
" transform="scale(0.015625)"/>
     </defs>
     <use xlink:href="#NotoSansSC-Thin-42"/>
     <use xlink:href="#NotoSansSC-Thin-4d" transform="translate(63.199997 0)"/>
     <use xlink:href="#NotoSansSC-Thin-49" transform="translate(140.199982 0)"/>
     <use xlink:href="#NotoSansSC-Thin-7ec4" transform="translate(165.899979 0)"/>
     <use xlink:href="#NotoSansSC-Thin-6821" transform="translate(265.899963 0)"/>
     <use xlink:href="#NotoSansSC-Thin-51c6" transform="translate(365.899948 0)"/>
    </g>
   </g>
  </g>
  <g id="axes_2">
   <g id="patch_6">
    <path d="M 276.605937 201.444047 
L 479.144676 201.444047 
L 479.144676 23.645234 
L 276.605937 23.645234 
z
" style="fill: #ffffff"/>
   </g>
   <g id="matplotlib.axis_3">
    <g id="xtick_7">
     <g id="line2d_26">
      <path d="M 276.605937 201.444047 
L 276.605937 23.645234 
" clip-path="url(#p0d9a296c76)" style="fill: none; stroke: #d8d8d8; stroke-opacity: 0.7; stroke-width: 0.5; stroke-linecap: square"/>
     </g>
     <g id="line2d_27">
      <g>
       <use xlink:href="#m6f32be0b3a" x="276.605937" y="201.444047" style="stroke: #000000; stroke-width: 0.8"/>
      </g>
     </g>
     <g id="text_18">
      <!-- 0.0 -->
      <g transform="translate(272.151094 214.002485) scale(0.07 -0.07)">
       <use xlink:href="#NotoSansSC-Thin-30"/>
       <use xlink:href="#NotoSansSC-Thin-2e" transform="translate(52.099991 0)"/>
       <use xlink:href="#NotoSansSC-Thin-30" transform="translate(75.199982 0)"/>
      </g>
     </g>
    </g>
    <g id="xtick_8">
     <g id="line2d_28">
      <path d="M 317.113685 201.444047 
L 317.113685 23.645234 
" clip-path="url(#p0d9a296c76)" style="fill: none; stroke: #d8d8d8; stroke-opacity: 0.7; stroke-width: 0.5; stroke-linecap: square"/>
     </g>
     <g id="line2d_29">
      <g>
       <use xlink:href="#m6f32be0b3a" x="317.113685" y="201.444047" style="stroke: #000000; stroke-width: 0.8"/>
      </g>
     </g>
     <g id="text_19">
      <!-- 0.2 -->
      <g transform="translate(312.658841 214.002485) scale(0.07 -0.07)">
       <use xlink:href="#NotoSansSC-Thin-30"/>
       <use xlink:href="#NotoSansSC-Thin-2e" transform="translate(52.099991 0)"/>
       <use xlink:href="#NotoSansSC-Thin-32" transform="translate(75.199982 0)"/>
      </g>
     </g>
    </g>
    <g id="xtick_9">
     <g id="line2d_30">
      <path d="M 357.621433 201.444047 
L 357.621433 23.645234 
" clip-path="url(#p0d9a296c76)" style="fill: none; stroke: #d8d8d8; stroke-opacity: 0.7; stroke-width: 0.5; stroke-linecap: square"/>
     </g>
     <g id="line2d_31">
      <g>
       <use xlink:href="#m6f32be0b3a" x="357.621433" y="201.444047" style="stroke: #000000; stroke-width: 0.8"/>
      </g>
     </g>
     <g id="text_20">
      <!-- 0.4 -->
      <g transform="translate(353.166589 214.002485) scale(0.07 -0.07)">
       <use xlink:href="#NotoSansSC-Thin-30"/>
       <use xlink:href="#NotoSansSC-Thin-2e" transform="translate(52.099991 0)"/>
       <use xlink:href="#NotoSansSC-Thin-34" transform="translate(75.199982 0)"/>
      </g>
     </g>
    </g>
    <g id="xtick_10">
     <g id="line2d_32">
      <path d="M 398.129181 201.444047 
L 398.129181 23.645234 
" clip-path="url(#p0d9a296c76)" style="fill: none; stroke: #d8d8d8; stroke-opacity: 0.7; stroke-width: 0.5; stroke-linecap: square"/>
     </g>
     <g id="line2d_33">
      <g>
       <use xlink:href="#m6f32be0b3a" x="398.129181" y="201.444047" style="stroke: #000000; stroke-width: 0.8"/>
      </g>
     </g>
     <g id="text_21">
      <!-- 0.6 -->
      <g transform="translate(393.674337 214.002485) scale(0.07 -0.07)">
       <use xlink:href="#NotoSansSC-Thin-30"/>
       <use xlink:href="#NotoSansSC-Thin-2e" transform="translate(52.099991 0)"/>
       <use xlink:href="#NotoSansSC-Thin-36" transform="translate(75.199982 0)"/>
      </g>
     </g>
    </g>
    <g id="xtick_11">
     <g id="line2d_34">
      <path d="M 438.636929 201.444047 
L 438.636929 23.645234 
" clip-path="url(#p0d9a296c76)" style="fill: none; stroke: #d8d8d8; stroke-opacity: 0.7; stroke-width: 0.5; stroke-linecap: square"/>
     </g>
     <g id="line2d_35">
      <g>
       <use xlink:href="#m6f32be0b3a" x="438.636929" y="201.444047" style="stroke: #000000; stroke-width: 0.8"/>
      </g>
     </g>
     <g id="text_22">
      <!-- 0.8 -->
      <g transform="translate(434.182085 214.002485) scale(0.07 -0.07)">
       <use xlink:href="#NotoSansSC-Thin-30"/>
       <use xlink:href="#NotoSansSC-Thin-2e" transform="translate(52.099991 0)"/>
       <use xlink:href="#NotoSansSC-Thin-38" transform="translate(75.199982 0)"/>
      </g>
     </g>
    </g>
    <g id="xtick_12">
     <g id="line2d_36">
      <path d="M 479.144676 201.444047 
L 479.144676 23.645234 
" clip-path="url(#p0d9a296c76)" style="fill: none; stroke: #d8d8d8; stroke-opacity: 0.7; stroke-width: 0.5; stroke-linecap: square"/>
     </g>
     <g id="line2d_37">
      <g>
       <use xlink:href="#m6f32be0b3a" x="479.144676" y="201.444047" style="stroke: #000000; stroke-width: 0.8"/>
      </g>
     </g>
     <g id="text_23">
      <!-- 1.0 -->
      <g transform="translate(474.689833 214.002485) scale(0.07 -0.07)">
       <use xlink:href="#NotoSansSC-Thin-31"/>
       <use xlink:href="#NotoSansSC-Thin-2e" transform="translate(52.099991 0)"/>
       <use xlink:href="#NotoSansSC-Thin-30" transform="translate(75.199982 0)"/>
      </g>
     </g>
    </g>
    <g id="text_24">
     <!-- 模型预测达标概率 -->
     <g transform="translate(345.875307 226.055766) scale(0.08 -0.08)">
      <use xlink:href="#NotoSansSC-Thin-6a21"/>
      <use xlink:href="#NotoSansSC-Thin-578b" transform="translate(99.999985 0)"/>
      <use xlink:href="#NotoSansSC-Thin-9884" transform="translate(199.999969 0)"/>
      <use xlink:href="#NotoSansSC-Thin-6d4b" transform="translate(299.999954 0)"/>
      <use xlink:href="#NotoSansSC-Thin-8fbe" transform="translate(399.999939 0)"/>
      <use xlink:href="#NotoSansSC-Thin-6807" transform="translate(499.999924 0)"/>
      <use xlink:href="#NotoSansSC-Thin-6982" transform="translate(599.999908 0)"/>
      <use xlink:href="#NotoSansSC-Thin-7387" transform="translate(699.999893 0)"/>
     </g>
    </g>
   </g>
   <g id="matplotlib.axis_4">
    <g id="ytick_7">
     <g id="line2d_38">
      <path d="M 276.605937 201.444047 
L 479.144676 201.444047 
" clip-path="url(#p0d9a296c76)" style="fill: none; stroke: #d8d8d8; stroke-opacity: 0.7; stroke-width: 0.5; stroke-linecap: square"/>
     </g>
     <g id="line2d_39">
      <g>
       <use xlink:href="#md0cd3ad60d" x="276.605937" y="201.444047" style="stroke: #000000; stroke-width: 0.8"/>
      </g>
     </g>
     <g id="text_25">
      <!-- 0.0 -->
      <g transform="translate(260.69625 204.223266) scale(0.07 -0.07)">
       <use xlink:href="#NotoSansSC-Thin-30"/>
       <use xlink:href="#NotoSansSC-Thin-2e" transform="translate(52.099991 0)"/>
       <use xlink:href="#NotoSansSC-Thin-30" transform="translate(75.199982 0)"/>
      </g>
     </g>
    </g>
    <g id="ytick_8">
     <g id="line2d_40">
      <path d="M 276.605937 165.884285 
L 479.144676 165.884285 
" clip-path="url(#p0d9a296c76)" style="fill: none; stroke: #d8d8d8; stroke-opacity: 0.7; stroke-width: 0.5; stroke-linecap: square"/>
     </g>
     <g id="line2d_41">
      <g>
       <use xlink:href="#md0cd3ad60d" x="276.605937" y="165.884285" style="stroke: #000000; stroke-width: 0.8"/>
      </g>
     </g>
     <g id="text_26">
      <!-- 0.2 -->
      <g transform="translate(260.69625 168.663503) scale(0.07 -0.07)">
       <use xlink:href="#NotoSansSC-Thin-30"/>
       <use xlink:href="#NotoSansSC-Thin-2e" transform="translate(52.099991 0)"/>
       <use xlink:href="#NotoSansSC-Thin-32" transform="translate(75.199982 0)"/>
      </g>
     </g>
    </g>
    <g id="ytick_9">
     <g id="line2d_42">
      <path d="M 276.605937 130.324522 
L 479.144676 130.324522 
" clip-path="url(#p0d9a296c76)" style="fill: none; stroke: #d8d8d8; stroke-opacity: 0.7; stroke-width: 0.5; stroke-linecap: square"/>
     </g>
     <g id="line2d_43">
      <g>
       <use xlink:href="#md0cd3ad60d" x="276.605937" y="130.324522" style="stroke: #000000; stroke-width: 0.8"/>
      </g>
     </g>
     <g id="text_27">
      <!-- 0.4 -->
      <g transform="translate(260.69625 133.103741) scale(0.07 -0.07)">
       <use xlink:href="#NotoSansSC-Thin-30"/>
       <use xlink:href="#NotoSansSC-Thin-2e" transform="translate(52.099991 0)"/>
       <use xlink:href="#NotoSansSC-Thin-34" transform="translate(75.199982 0)"/>
      </g>
     </g>
    </g>
    <g id="ytick_10">
     <g id="line2d_44">
      <path d="M 276.605937 94.764759 
L 479.144676 94.764759 
" clip-path="url(#p0d9a296c76)" style="fill: none; stroke: #d8d8d8; stroke-opacity: 0.7; stroke-width: 0.5; stroke-linecap: square"/>
     </g>
     <g id="line2d_45">
      <g>
       <use xlink:href="#md0cd3ad60d" x="276.605937" y="94.764759" style="stroke: #000000; stroke-width: 0.8"/>
      </g>
     </g>
     <g id="text_28">
      <!-- 0.6 -->
      <g transform="translate(260.69625 97.543978) scale(0.07 -0.07)">
       <use xlink:href="#NotoSansSC-Thin-30"/>
       <use xlink:href="#NotoSansSC-Thin-2e" transform="translate(52.099991 0)"/>
       <use xlink:href="#NotoSansSC-Thin-36" transform="translate(75.199982 0)"/>
      </g>
     </g>
    </g>
    <g id="ytick_11">
     <g id="line2d_46">
      <path d="M 276.605937 59.204997 
L 479.144676 59.204997 
" clip-path="url(#p0d9a296c76)" style="fill: none; stroke: #d8d8d8; stroke-opacity: 0.7; stroke-width: 0.5; stroke-linecap: square"/>
     </g>
     <g id="line2d_47">
      <g>
       <use xlink:href="#md0cd3ad60d" x="276.605937" y="59.204997" style="stroke: #000000; stroke-width: 0.8"/>
      </g>
     </g>
     <g id="text_29">
      <!-- 0.8 -->
      <g transform="translate(260.69625 61.984215) scale(0.07 -0.07)">
       <use xlink:href="#NotoSansSC-Thin-30"/>
       <use xlink:href="#NotoSansSC-Thin-2e" transform="translate(52.099991 0)"/>
       <use xlink:href="#NotoSansSC-Thin-38" transform="translate(75.199982 0)"/>
      </g>
     </g>
    </g>
    <g id="ytick_12">
     <g id="line2d_48">
      <path d="M 276.605937 23.645234 
L 479.144676 23.645234 
" clip-path="url(#p0d9a296c76)" style="fill: none; stroke: #d8d8d8; stroke-opacity: 0.7; stroke-width: 0.5; stroke-linecap: square"/>
     </g>
     <g id="line2d_49">
      <g>
       <use xlink:href="#md0cd3ad60d" x="276.605937" y="23.645234" style="stroke: #000000; stroke-width: 0.8"/>
      </g>
     </g>
     <g id="text_30">
      <!-- 1.0 -->
      <g transform="translate(260.69625 26.424453) scale(0.07 -0.07)">
       <use xlink:href="#NotoSansSC-Thin-31"/>
       <use xlink:href="#NotoSansSC-Thin-2e" transform="translate(52.099991 0)"/>
       <use xlink:href="#NotoSansSC-Thin-30" transform="translate(75.199982 0)"/>
      </g>
     </g>
    </g>
    <g id="text_31">
     <!-- 观察达标比例 -->
     <g transform="translate(254.7525 136.544641) rotate(-90) scale(0.08 -0.08)">
      <use xlink:href="#NotoSansSC-Thin-89c2"/>
      <use xlink:href="#NotoSansSC-Thin-5bdf" transform="translate(99.999985 0)"/>
      <use xlink:href="#NotoSansSC-Thin-8fbe" transform="translate(199.999969 0)"/>
      <use xlink:href="#NotoSansSC-Thin-6807" transform="translate(299.999954 0)"/>
      <use xlink:href="#NotoSansSC-Thin-6bd4" transform="translate(399.999939 0)"/>
      <use xlink:href="#NotoSansSC-Thin-4f8b" transform="translate(499.999924 0)"/>
     </g>
    </g>
   </g>
   <g id="PathCollection_2">
    <path d="M 438.000623 53.936891 
C 439.175475 53.936891 440.302367 53.470117 441.133114 52.63937 
C 441.96386 51.808624 442.430634 50.681732 442.430634 49.506879 
C 442.430634 48.332027 441.96386 47.205135 441.133114 46.374388 
C 440.302367 45.543642 439.175475 45.076868 438.000623 45.076868 
C 436.82577 45.076868 435.698878 45.543642 434.868132 46.374388 
C 434.037385 47.205135 433.570611 48.332027 433.570611 49.506879 
C 433.570611 50.681732 434.037385 51.808624 434.868132 52.63937 
C 435.698878 53.470117 436.82577 53.936891 438.000623 53.936891 
z
" clip-path="url(#p0d9a296c76)" style="fill: #009e73; fill-opacity: 0.75; stroke: #ffffff; stroke-opacity: 0.75; stroke-width: 0.5"/>
    <path d="M 437.102426 64.802831 
C 438.671949 64.802831 440.177399 64.179253 441.28722 63.069432 
C 442.39704 61.959612 443.020618 60.454161 443.020618 58.884638 
C 443.020618 57.315115 442.39704 55.809665 441.28722 54.699844 
C 440.177399 53.590024 438.671949 52.966446 437.102426 52.966446 
C 435.532903 52.966446 434.027452 53.590024 432.917632 54.699844 
C 431.807811 55.809665 431.184233 57.315115 431.184233 58.884638 
C 431.184233 60.454161 431.807811 61.959612 432.917632 63.069432 
C 434.027452 64.179253 435.532903 64.802831 437.102426 64.802831 
z
" clip-path="url(#p0d9a296c76)" style="fill: #009e73; fill-opacity: 0.75; stroke: #ffffff; stroke-opacity: 0.75; stroke-width: 0.5"/>
    <path d="M 438.050802 62.541288 
C 439.525007 62.541288 440.93903 61.95558 441.981451 60.91316 
C 443.023871 59.87074 443.609579 58.456716 443.609579 56.982511 
C 443.609579 55.508307 443.023871 54.094283 441.981451 53.051863 
C 440.93903 52.009442 439.525007 51.423735 438.050802 51.423735 
C 436.576597 51.423735 435.162573 52.009442 434.120153 53.051863 
C 433.077733 54.094283 432.492025 55.508307 432.492025 56.982511 
C 432.492025 58.456716 433.077733 59.87074 434.120153 60.91316 
C 435.162573 61.95558 436.576597 62.541288 438.050802 62.541288 
z
" clip-path="url(#p0d9a296c76)" style="fill: #009e73; fill-opacity: 0.75; stroke: #ffffff; stroke-opacity: 0.75; stroke-width: 0.5"/>
    <path d="M 442.983946 85.219101 
C 443.595927 85.219101 444.182926 84.975958 444.615662 84.543222 
C 445.048399 84.110486 445.291542 83.523487 445.291542 82.911505 
C 445.291542 82.299523 445.048399 81.712525 444.615662 81.279788 
C 444.182926 80.847052 443.595927 80.603909 442.983946 80.603909 
C 442.371964 80.603909 441.784965 80.847052 441.352229 81.279788 
C 440.919492 81.712525 440.676349 82.299523 440.676349 82.911505 
C 440.676349 83.523487 440.919492 84.110486 441.352229 84.543222 
C 441.784965 84.975958 442.371964 85.219101 442.983946 85.219101 
z
" clip-path="url(#p0d9a296c76)" style="fill: #009e73; fill-opacity: 0.75; stroke: #ffffff; stroke-opacity: 0.75; stroke-width: 0.5"/>
   </g>
   <g id="line2d_50">
    <path d="M 276.605937 201.444047 
L 479.144676 23.645234 
" clip-path="url(#p0d9a296c76)" style="fill: none; stroke-dasharray: 3.7,1.6; stroke-dashoffset: 0; stroke: #4d4d4d"/>
   </g>
   <g id="patch_7">
    <path d="M 276.605937 201.444047 
L 276.605937 23.645234 
" style="fill: none; stroke: #000000; stroke-width: 0.7; stroke-linejoin: miter; stroke-linecap: square"/>
   </g>
   <g id="patch_8">
    <path d="M 276.605937 201.444047 
L 479.144676 201.444047 
" style="fill: none; stroke: #000000; stroke-width: 0.7; stroke-linejoin: miter; stroke-linecap: square"/>
   </g>
   <g id="text_32">
    <g id="patch_9">
     <path d="M 280.6661 61.90793 
L 379.536725 61.90793 
L 379.536725 28.741186 
L 280.6661 28.741186 
z
" style="fill: #ffffff; opacity: 0.82"/>
    </g>
    <!-- 11-12: n=55, 预测=0.80, 观察=0.85 -->
    <g transform="translate(282.6821 35.75978) scale(0.063 -0.063)">
     <defs>
      <path id="NotoSansSC-Thin-2d" d="M 282 1638 
L 282 1862 
L 1811 1862 
L 1811 1638 
L 282 1638 
z
" transform="scale(0.015625)"/>
     </defs>
     <use xlink:href="#NotoSansSC-Thin-31"/>
     <use xlink:href="#NotoSansSC-Thin-31" transform="translate(52.099991 0)"/>
     <use xlink:href="#NotoSansSC-Thin-2d" transform="translate(104.199982 0)"/>
     <use xlink:href="#NotoSansSC-Thin-31" transform="translate(136.599976 0)"/>
     <use xlink:href="#NotoSansSC-Thin-32" transform="translate(188.699966 0)"/>
     <use xlink:href="#NotoSansSC-Thin-3a" transform="translate(240.799957 0)"/>
     <use xlink:href="#NotoSansSC-Thin-20" transform="translate(263.899948 0)"/>
     <use xlink:href="#NotoSansSC-Thin-6e" transform="translate(285.899933 0)"/>
     <use xlink:href="#NotoSansSC-Thin-3d" transform="translate(343.899918 0)"/>
     <use xlink:href="#NotoSansSC-Thin-35" transform="translate(395.999908 0)"/>
     <use xlink:href="#NotoSansSC-Thin-35" transform="translate(448.099899 0)"/>
     <use xlink:href="#NotoSansSC-Thin-2c" transform="translate(500.19989 0)"/>
     <use xlink:href="#NotoSansSC-Thin-20" transform="translate(523.299881 0)"/>
     <use xlink:href="#NotoSansSC-Thin-9884" transform="translate(545.299866 0)"/>
     <use xlink:href="#NotoSansSC-Thin-6d4b" transform="translate(645.29985 0)"/>
     <use xlink:href="#NotoSansSC-Thin-3d" transform="translate(745.299835 0)"/>
     <use xlink:href="#NotoSansSC-Thin-30" transform="translate(797.399826 0)"/>
     <use xlink:href="#NotoSansSC-Thin-2e" transform="translate(849.499817 0)"/>
     <use xlink:href="#NotoSansSC-Thin-38" transform="translate(872.599808 0)"/>
     <use xlink:href="#NotoSansSC-Thin-30" transform="translate(924.699799 0)"/>
     <use xlink:href="#NotoSansSC-Thin-2c" transform="translate(976.799789 0)"/>
     <use xlink:href="#NotoSansSC-Thin-20" transform="translate(999.89978 0)"/>
     <use xlink:href="#NotoSansSC-Thin-89c2" transform="translate(1021.899765 0)"/>
     <use xlink:href="#NotoSansSC-Thin-5bdf" transform="translate(1121.89975 0)"/>
     <use xlink:href="#NotoSansSC-Thin-3d" transform="translate(1221.899734 0)"/>
     <use xlink:href="#NotoSansSC-Thin-30" transform="translate(1273.999725 0)"/>
     <use xlink:href="#NotoSansSC-Thin-2e" transform="translate(1326.099716 0)"/>
     <use xlink:href="#NotoSansSC-Thin-38" transform="translate(1349.199707 0)"/>
     <use xlink:href="#NotoSansSC-Thin-35" transform="translate(1401.299698 0)"/>
    </g>
    <!-- 12-13: n=111, 预测=0.79, 观察=0.80 -->
    <g transform="translate(282.6821 43.293596) scale(0.063 -0.063)">
     <use xlink:href="#NotoSansSC-Thin-31"/>
     <use xlink:href="#NotoSansSC-Thin-32" transform="translate(52.099991 0)"/>
     <use xlink:href="#NotoSansSC-Thin-2d" transform="translate(104.199982 0)"/>
     <use xlink:href="#NotoSansSC-Thin-31" transform="translate(136.599976 0)"/>
     <use xlink:href="#NotoSansSC-Thin-33" transform="translate(188.699966 0)"/>
     <use xlink:href="#NotoSansSC-Thin-3a" transform="translate(240.799957 0)"/>
     <use xlink:href="#NotoSansSC-Thin-20" transform="translate(263.899948 0)"/>
     <use xlink:href="#NotoSansSC-Thin-6e" transform="translate(285.899933 0)"/>
     <use xlink:href="#NotoSansSC-Thin-3d" transform="translate(343.899918 0)"/>
     <use xlink:href="#NotoSansSC-Thin-31" transform="translate(395.999908 0)"/>
     <use xlink:href="#NotoSansSC-Thin-31" transform="translate(448.099899 0)"/>
     <use xlink:href="#NotoSansSC-Thin-31" transform="translate(500.19989 0)"/>
     <use xlink:href="#NotoSansSC-Thin-2c" transform="translate(552.299881 0)"/>
     <use xlink:href="#NotoSansSC-Thin-20" transform="translate(575.399872 0)"/>
     <use xlink:href="#NotoSansSC-Thin-9884" transform="translate(597.399857 0)"/>
     <use xlink:href="#NotoSansSC-Thin-6d4b" transform="translate(697.399841 0)"/>
     <use xlink:href="#NotoSansSC-Thin-3d" transform="translate(797.399826 0)"/>
     <use xlink:href="#NotoSansSC-Thin-30" transform="translate(849.499817 0)"/>
     <use xlink:href="#NotoSansSC-Thin-2e" transform="translate(901.599808 0)"/>
     <use xlink:href="#NotoSansSC-Thin-37" transform="translate(924.699799 0)"/>
     <use xlink:href="#NotoSansSC-Thin-39" transform="translate(976.799789 0)"/>
     <use xlink:href="#NotoSansSC-Thin-2c" transform="translate(1028.89978 0)"/>
     <use xlink:href="#NotoSansSC-Thin-20" transform="translate(1051.999771 0)"/>
     <use xlink:href="#NotoSansSC-Thin-89c2" transform="translate(1073.999756 0)"/>
     <use xlink:href="#NotoSansSC-Thin-5bdf" transform="translate(1173.999741 0)"/>
     <use xlink:href="#NotoSansSC-Thin-3d" transform="translate(1273.999725 0)"/>
     <use xlink:href="#NotoSansSC-Thin-30" transform="translate(1326.099716 0)"/>
     <use xlink:href="#NotoSansSC-Thin-2e" transform="translate(1378.199707 0)"/>
     <use xlink:href="#NotoSansSC-Thin-38" transform="translate(1401.299698 0)"/>
     <use xlink:href="#NotoSansSC-Thin-30" transform="translate(1453.399689 0)"/>
    </g>
    <!-- 13-15: n=96, 预测=0.80, 观察=0.81 -->
    <g transform="translate(282.6821 50.827411) scale(0.063 -0.063)">
     <use xlink:href="#NotoSansSC-Thin-31"/>
     <use xlink:href="#NotoSansSC-Thin-33" transform="translate(52.099991 0)"/>
     <use xlink:href="#NotoSansSC-Thin-2d" transform="translate(104.199982 0)"/>
     <use xlink:href="#NotoSansSC-Thin-31" transform="translate(136.599976 0)"/>
     <use xlink:href="#NotoSansSC-Thin-35" transform="translate(188.699966 0)"/>
     <use xlink:href="#NotoSansSC-Thin-3a" transform="translate(240.799957 0)"/>
     <use xlink:href="#NotoSansSC-Thin-20" transform="translate(263.899948 0)"/>
     <use xlink:href="#NotoSansSC-Thin-6e" transform="translate(285.899933 0)"/>
     <use xlink:href="#NotoSansSC-Thin-3d" transform="translate(343.899918 0)"/>
     <use xlink:href="#NotoSansSC-Thin-39" transform="translate(395.999908 0)"/>
     <use xlink:href="#NotoSansSC-Thin-36" transform="translate(448.099899 0)"/>
     <use xlink:href="#NotoSansSC-Thin-2c" transform="translate(500.19989 0)"/>
     <use xlink:href="#NotoSansSC-Thin-20" transform="translate(523.299881 0)"/>
     <use xlink:href="#NotoSansSC-Thin-9884" transform="translate(545.299866 0)"/>
     <use xlink:href="#NotoSansSC-Thin-6d4b" transform="translate(645.29985 0)"/>
     <use xlink:href="#NotoSansSC-Thin-3d" transform="translate(745.299835 0)"/>
     <use xlink:href="#NotoSansSC-Thin-30" transform="translate(797.399826 0)"/>
     <use xlink:href="#NotoSansSC-Thin-2e" transform="translate(849.499817 0)"/>
     <use xlink:href="#NotoSansSC-Thin-38" transform="translate(872.599808 0)"/>
     <use xlink:href="#NotoSansSC-Thin-30" transform="translate(924.699799 0)"/>
     <use xlink:href="#NotoSansSC-Thin-2c" transform="translate(976.799789 0)"/>
     <use xlink:href="#NotoSansSC-Thin-20" transform="translate(999.89978 0)"/>
     <use xlink:href="#NotoSansSC-Thin-89c2" transform="translate(1021.899765 0)"/>
     <use xlink:href="#NotoSansSC-Thin-5bdf" transform="translate(1121.89975 0)"/>
     <use xlink:href="#NotoSansSC-Thin-3d" transform="translate(1221.899734 0)"/>
     <use xlink:href="#NotoSansSC-Thin-30" transform="translate(1273.999725 0)"/>
     <use xlink:href="#NotoSansSC-Thin-2e" transform="translate(1326.099716 0)"/>
     <use xlink:href="#NotoSansSC-Thin-38" transform="translate(1349.199707 0)"/>
     <use xlink:href="#NotoSansSC-Thin-31" transform="translate(1401.299698 0)"/>
    </g>
    <!-- 15-20: n=3, 预测=0.82, 观察=0.67 -->
    <g transform="translate(282.6821 58.361227) scale(0.063 -0.063)">
     <use xlink:href="#NotoSansSC-Thin-31"/>
     <use xlink:href="#NotoSansSC-Thin-35" transform="translate(52.099991 0)"/>
     <use xlink:href="#NotoSansSC-Thin-2d" transform="translate(104.199982 0)"/>
     <use xlink:href="#NotoSansSC-Thin-32" transform="translate(136.599976 0)"/>
     <use xlink:href="#NotoSansSC-Thin-30" transform="translate(188.699966 0)"/>
     <use xlink:href="#NotoSansSC-Thin-3a" transform="translate(240.799957 0)"/>
     <use xlink:href="#NotoSansSC-Thin-20" transform="translate(263.899948 0)"/>
     <use xlink:href="#NotoSansSC-Thin-6e" transform="translate(285.899933 0)"/>
     <use xlink:href="#NotoSansSC-Thin-3d" transform="translate(343.899918 0)"/>
     <use xlink:href="#NotoSansSC-Thin-33" transform="translate(395.999908 0)"/>
     <use xlink:href="#NotoSansSC-Thin-2c" transform="translate(448.099899 0)"/>
     <use xlink:href="#NotoSansSC-Thin-20" transform="translate(471.19989 0)"/>
     <use xlink:href="#NotoSansSC-Thin-9884" transform="translate(493.199875 0)"/>
     <use xlink:href="#NotoSansSC-Thin-6d4b" transform="translate(593.19986 0)"/>
     <use xlink:href="#NotoSansSC-Thin-3d" transform="translate(693.199844 0)"/>
     <use xlink:href="#NotoSansSC-Thin-30" transform="translate(745.299835 0)"/>
     <use xlink:href="#NotoSansSC-Thin-2e" transform="translate(797.399826 0)"/>
     <use xlink:href="#NotoSansSC-Thin-38" transform="translate(820.499817 0)"/>
     <use xlink:href="#NotoSansSC-Thin-32" transform="translate(872.599808 0)"/>
     <use xlink:href="#NotoSansSC-Thin-2c" transform="translate(924.699799 0)"/>
     <use xlink:href="#NotoSansSC-Thin-20" transform="translate(947.799789 0)"/>
     <use xlink:href="#NotoSansSC-Thin-89c2" transform="translate(969.799774 0)"/>
     <use xlink:href="#NotoSansSC-Thin-5bdf" transform="translate(1069.799759 0)"/>
     <use xlink:href="#NotoSansSC-Thin-3d" transform="translate(1169.799744 0)"/>
     <use xlink:href="#NotoSansSC-Thin-30" transform="translate(1221.899734 0)"/>
     <use xlink:href="#NotoSansSC-Thin-2e" transform="translate(1273.999725 0)"/>
     <use xlink:href="#NotoSansSC-Thin-36" transform="translate(1297.099716 0)"/>
     <use xlink:href="#NotoSansSC-Thin-37" transform="translate(1349.199707 0)"/>
    </g>
   </g>
   <g id="text_33">
    <!-- b -->
    <g transform="translate(254.326676 14.346563) scale(0.09 -0.09)">
     <defs>
      <path id="NotoSansSC-Thin-62" d="M 1933 -83 
Q 1696 -83 1424 32 
Q 1152 147 915 339 
L 896 339 
L 864 0 
L 672 0 
L 672 5082 
L 902 5082 
L 902 3584 
L 883 2906 
Q 1146 3130 1453 3293 
Q 1760 3456 2074 3456 
Q 2534 3456 2835 3241 
Q 3136 3027 3283 2643 
Q 3430 2259 3430 1734 
Q 3430 1165 3222 755 
Q 3014 346 2675 131 
Q 2336 -83 1933 -83 
z
M 1952 128 
Q 2310 128 2588 333 
Q 2867 538 3027 902 
Q 3187 1267 3187 1734 
Q 3187 2163 3075 2505 
Q 2963 2848 2716 3046 
Q 2470 3245 2054 3245 
Q 1798 3245 1507 3094 
Q 1216 2944 902 2662 
L 902 582 
Q 1190 333 1472 230 
Q 1754 128 1952 128 
z
" transform="scale(0.015625)"/>
     </defs>
     <use xlink:href="#NotoSansSC-Thin-62"/>
    </g>
   </g>
   <g id="text_34">
    <!-- 首次观测孕周带校准 -->
    <g transform="translate(337.375307 17.645234) scale(0.09 -0.09)">
     <defs>
      <path id="NotoSansSC-Thin-9996" d="M 1344 2362 
L 5101 2362 
L 5101 2170 
L 1344 2170 
L 1344 2362 
z
M 1344 1274 
L 5101 1274 
L 5101 1088 
L 1344 1088 
L 1344 1274 
z
M 1344 173 
L 5133 173 
L 5133 -19 
L 1344 -19 
L 1344 173 
z
M 378 4403 
L 6029 4403 
L 6029 4218 
L 378 4218 
L 378 4403 
z
M 1210 3424 
L 5229 3424 
L 5229 -448 
L 5037 -448 
L 5037 3238 
L 1402 3238 
L 1402 -448 
L 1210 -448 
L 1210 3424 
z
M 3123 4365 
L 3328 4307 
Q 3258 4051 3187 3760 
Q 3117 3469 3046 3264 
L 2867 3315 
Q 2918 3456 2966 3645 
Q 3014 3834 3056 4026 
Q 3098 4218 3123 4365 
z
M 4678 5318 
L 4858 5229 
Q 4698 4992 4499 4736 
Q 4301 4480 4122 4288 
L 3974 4371 
Q 4090 4499 4221 4665 
Q 4352 4832 4473 5005 
Q 4595 5178 4678 5318 
z
M 1606 5248 
L 1766 5318 
Q 1939 5146 2105 4928 
Q 2272 4710 2355 4550 
L 2182 4461 
Q 2099 4627 1936 4848 
Q 1773 5069 1606 5248 
z
" transform="scale(0.015625)"/>
      <path id="NotoSansSC-Thin-6b21" d="M 3014 5312 
L 3206 5274 
Q 3091 4762 2937 4269 
Q 2784 3776 2595 3347 
Q 2406 2918 2182 2586 
Q 2163 2598 2131 2620 
Q 2099 2643 2067 2662 
Q 2035 2682 2010 2694 
Q 2240 3021 2425 3440 
Q 2611 3859 2761 4336 
Q 2912 4813 3014 5312 
z
M 2752 4134 
L 5664 4134 
L 5664 3949 
L 2701 3949 
L 2752 4134 
z
M 5619 4134 
L 5651 4134 
L 5690 4147 
L 5830 4090 
Q 5754 3802 5635 3501 
Q 5517 3200 5392 2931 
Q 5267 2662 5158 2464 
Q 5139 2477 5107 2493 
Q 5075 2509 5049 2525 
Q 5024 2541 4998 2554 
Q 5107 2746 5228 3008 
Q 5350 3270 5456 3552 
Q 5562 3834 5619 4070 
L 5619 4134 
z
M 474 4736 
L 589 4864 
Q 806 4749 1033 4605 
Q 1261 4461 1459 4313 
Q 1658 4166 1786 4038 
L 1664 3885 
Q 1536 4013 1337 4166 
Q 1139 4320 915 4470 
Q 691 4621 474 4736 
z
M 352 410 
Q 550 634 790 954 
Q 1030 1274 1280 1629 
Q 1530 1984 1741 2310 
L 1875 2189 
Q 1677 1875 1440 1529 
Q 1203 1184 963 857 
Q 723 531 518 269 
L 352 410 
z
M 3936 2765 
Q 4077 2035 4352 1430 
Q 4627 826 5049 394 
Q 5472 -38 6054 -250 
Q 6035 -269 6009 -297 
Q 5984 -326 5961 -355 
Q 5939 -384 5920 -410 
Q 5331 -173 4905 275 
Q 4480 723 4201 1344 
Q 3923 1965 3770 2726 
L 3936 2765 
z
M 3770 3526 
L 3962 3526 
L 3962 3130 
Q 3962 2810 3926 2454 
Q 3891 2099 3769 1721 
Q 3648 1344 3398 969 
Q 3149 595 2726 233 
Q 2304 -128 1658 -448 
Q 1645 -429 1619 -403 
Q 1594 -378 1571 -352 
Q 1549 -326 1523 -314 
Q 2163 0 2579 349 
Q 2995 698 3235 1062 
Q 3475 1427 3590 1788 
Q 3706 2150 3738 2489 
Q 3770 2829 3770 3130 
L 3770 3526 
z
" transform="scale(0.015625)"/>
      <path id="NotoSansSC-Thin-5b55" d="M 320 1434 
L 6086 1434 
L 6086 1242 
L 320 1242 
L 320 1434 
z
M 1683 2906 
L 4512 2906 
L 4512 2720 
L 1683 2720 
L 1683 2906 
z
M 4013 3994 
L 5626 3994 
L 5626 3808 
L 4013 3808 
L 4013 3994 
z
M 666 4992 
L 4230 4992 
L 4230 4806 
L 666 4806 
L 666 4992 
z
M 3085 1997 
L 3277 1997 
L 3277 -179 
Q 3277 -301 3238 -358 
Q 3200 -416 3091 -442 
Q 2989 -467 2755 -473 
Q 2522 -480 2112 -480 
Q 2106 -435 2083 -390 
Q 2061 -346 2035 -301 
Q 2272 -307 2457 -310 
Q 2643 -314 2774 -310 
Q 2906 -307 2957 -301 
Q 3034 -301 3059 -275 
Q 3085 -250 3085 -186 
L 3085 1997 
z
M 4442 2906 
L 4486 2906 
L 4531 2918 
L 4666 2822 
Q 4486 2637 4240 2461 
Q 3994 2285 3728 2134 
Q 3462 1984 3213 1875 
Q 3187 1907 3152 1942 
Q 3117 1978 3085 1997 
Q 3334 2099 3590 2243 
Q 3846 2387 4070 2547 
Q 4294 2707 4442 2861 
L 4442 2906 
z
M 5562 3994 
L 5754 3994 
Q 5754 3994 5754 3952 
Q 5754 3910 5747 3878 
Q 5709 3347 5670 3027 
Q 5632 2707 5587 2544 
Q 5542 2381 5478 2317 
Q 5427 2266 5363 2240 
Q 5299 2214 5197 2214 
Q 5120 2208 4979 2214 
Q 4838 2221 4691 2227 
Q 4685 2272 4672 2323 
Q 4659 2374 4640 2413 
Q 4819 2400 4963 2397 
Q 5107 2394 5165 2394 
Q 5280 2394 5331 2438 
Q 5382 2490 5420 2650 
Q 5459 2810 5494 3126 
Q 5530 3443 5562 3955 
L 5562 3994 
z
M 2016 4915 
L 2214 4915 
Q 2157 4493 2048 4080 
Q 1939 3667 1747 3302 
Q 1555 2938 1248 2640 
Q 941 2342 486 2138 
Q 467 2170 425 2211 
Q 384 2253 352 2272 
Q 800 2458 1097 2746 
Q 1395 3034 1580 3389 
Q 1766 3744 1865 4134 
Q 1965 4525 2016 4915 
z
M 4128 4992 
L 4333 4992 
Q 4269 4698 4192 4365 
Q 4115 4032 4045 3808 
L 3853 3808 
Q 3923 4051 4000 4380 
Q 4077 4710 4128 4992 
z
" transform="scale(0.015625)"/>
      <path id="NotoSansSC-Thin-5468" d="M 1184 5005 
L 5370 5005 
L 5370 4819 
L 1184 4819 
L 1184 5005 
z
M 1766 3974 
L 4704 3974 
L 4704 3789 
L 1766 3789 
L 1766 3974 
z
M 1587 2938 
L 4896 2938 
L 4896 2746 
L 1587 2746 
L 1587 2938 
z
M 1082 5005 
L 1267 5005 
L 1267 3085 
Q 1267 2688 1238 2227 
Q 1210 1766 1126 1289 
Q 1043 813 873 358 
Q 704 -96 422 -493 
Q 403 -474 377 -448 
Q 352 -422 326 -400 
Q 301 -378 275 -365 
Q 550 19 710 457 
Q 870 896 950 1353 
Q 1030 1811 1056 2252 
Q 1082 2694 1082 3085 
L 1082 5005 
z
M 5299 5005 
L 5491 5005 
L 5491 -83 
Q 5491 -237 5436 -307 
Q 5382 -378 5261 -410 
Q 5146 -435 4893 -438 
Q 4640 -442 4192 -442 
Q 4186 -410 4160 -352 
Q 4134 -294 4109 -250 
Q 4358 -256 4569 -256 
Q 4781 -256 4928 -253 
Q 5075 -250 5133 -250 
Q 5222 -243 5260 -208 
Q 5299 -173 5299 -90 
L 5299 5005 
z
M 3104 4659 
L 3296 4659 
L 3296 2797 
L 3104 2797 
L 3104 4659 
z
M 2106 2035 
L 4480 2035 
L 4480 422 
L 2106 422 
L 2106 608 
L 4294 608 
L 4294 1843 
L 2106 1843 
L 2106 2035 
z
M 1984 2035 
L 2170 2035 
L 2170 58 
L 1984 58 
L 1984 2035 
z
" transform="scale(0.015625)"/>
      <path id="NotoSansSC-Thin-5e26" d="M 3085 2995 
L 3277 2995 
L 3277 -448 
L 3085 -448 
L 3085 2995 
z
M 3085 5280 
L 3277 5280 
L 3277 3501 
L 3085 3501 
L 3085 5280 
z
M 1299 2029 
L 5056 2029 
L 5056 1837 
L 1485 1837 
L 1485 141 
L 1299 141 
L 1299 2029 
z
M 4973 2029 
L 5165 2029 
L 5165 435 
Q 5165 326 5133 268 
Q 5101 211 4992 186 
Q 4896 160 4685 153 
Q 4474 147 4115 147 
Q 4109 192 4086 237 
Q 4064 282 4032 326 
Q 4358 320 4572 320 
Q 4787 320 4864 326 
Q 4934 333 4953 355 
Q 4973 378 4973 435 
L 4973 2029 
z
M 570 3110 
L 5837 3110 
L 5837 1926 
L 5645 1926 
L 5645 2925 
L 762 2925 
L 762 1926 
L 570 1926 
L 570 3110 
z
M 352 4448 
L 6061 4448 
L 6061 4262 
L 352 4262 
L 352 4448 
z
M 1478 5267 
L 1670 5267 
L 1670 3488 
L 1478 3488 
L 1478 5267 
z
M 4762 5267 
L 4947 5267 
L 4947 3462 
L 4762 3462 
L 4762 5267 
z
" transform="scale(0.015625)"/>
     </defs>
     <use xlink:href="#NotoSansSC-Thin-9996"/>
     <use xlink:href="#NotoSansSC-Thin-6b21" transform="translate(99.999985 0)"/>
     <use xlink:href="#NotoSansSC-Thin-89c2" transform="translate(199.999969 0)"/>
     <use xlink:href="#NotoSansSC-Thin-6d4b" transform="translate(299.999954 0)"/>
     <use xlink:href="#NotoSansSC-Thin-5b55" transform="translate(399.999939 0)"/>
     <use xlink:href="#NotoSansSC-Thin-5468" transform="translate(499.999924 0)"/>
     <use xlink:href="#NotoSansSC-Thin-5e26" transform="translate(599.999908 0)"/>
     <use xlink:href="#NotoSansSC-Thin-6821" transform="translate(699.999893 0)"/>
     <use xlink:href="#NotoSansSC-Thin-51c6" transform="translate(799.999878 0)"/>
    </g>
   </g>
  </g>
 </g>
 <defs>
  <clipPath id="pd4d043c96d">
   <rect x="35.405938" y="23.645234" width="202.538739" height="177.798814"/>
  </clipPath>
  <clipPath id="p0d9a296c76">
   <rect x="276.605937" y="23.645234" width="202.538739" height="177.798814"/>
  </clipPath>
 </defs>
</svg>
