<?xml version="1.0" encoding="utf-8" standalone="no"?>
<!DOCTYPE svg PUBLIC "-//W3C//DTD SVG 1.1//EN"
  "http://www.w3.org/Graphics/SVG/1.1/DTD/svg11.dtd">
<svg xmlns:xlink="http://www.w3.org/1999/xlink" width="490.79952pt" height="235.19952pt" viewBox="0 0 490.79952 235.19952" xmlns="http://www.w3.org/2000/svg" version="1.1">
 <metadata>
  <rdf:RDF xmlns:dc="http://purl.org/dc/elements/1.1/" xmlns:cc="http://creativecommons.org/ns#" xmlns:rdf="http://www.w3.org/1999/02/22-rdf-syntax-ns#">
   <cc:Work>
    <dc:type rdf:resource="http://purl.org/dc/dcmitype/StillImage"/>
    <dc:date>2026-08-25T14:44:18.289683</dc:date>
    <dc:format>image/svg+xml</dc:format>
    <dc:creator>
     <cc:Agent>
      <dc:title>Matplotlib v3.11.1, https://matplotlib.org/</dc:title>
     </cc:Agent>
    </dc:creator>
   </cc:Work>
  </rdf:RDF>
 </metadata>
 <defs>
  <style type="text/css">*{stroke-linejoin: round; stroke-linecap: butt}</style>
 </defs>
 <g id="figure_1">
  <g id="patch_1">
   <path d="M 0 235.19952 
L 490.79952 235.19952 
L 490.79952 -0 
L 0 -0 
z
" style="fill: #ffffff"/>
  </g>
  <g id="axes_1">
   <g id="patch_2">
    <path d="M 35.109688 201.99952 
L 244.820308 201.99952 
L 244.820308 23.346135 
L 35.109688 23.346135 
z
" style="fill: #ffffff"/>
   </g>
   <g id="matplotlib.axis_1">
    <g id="xtick_1">
     <g id="line2d_1">
      <defs>
       <path id="mbb4da243cb" d="M 0 0 
L 0 3.5 
" style="stroke: #000000; stroke-width: 0.8"/>
      </defs>
      <g>
       <use xlink:href="#mbb4da243cb" x="35.109688" y="201.99952" style="stroke: #000000; stroke-width: 0.8"/>
      </g>
     </g>
     <g id="text_1">
      <!-- 10 -->
      <g transform="translate(31.463125 215.15952) scale(0.07 -0.07)">
       <defs>
        <path id="NotoSansSC-Thin-12" d="M 608 0 
L 608 211 
L 1677 211 
L 1677 4211 
L 864 4211 
L 864 4378 
Q 1133 4422 1344 4492 
Q 1555 4563 1702 4646 
L 1901 4646 
L 1901 211 
L 2899 211 
L 2899 0 
L 608 0 
z
" transform="scale(0.015625)"/>
        <path id="NotoSansSC-Thin-11" d="M 1670 -83 
Q 1261 -83 963 179 
Q 666 442 509 979 
Q 352 1517 352 2336 
Q 352 3149 509 3677 
Q 666 4205 963 4467 
Q 1261 4730 1670 4730 
Q 2080 4730 2371 4467 
Q 2662 4205 2822 3677 
Q 2982 3149 2982 2336 
Q 2982 1517 2822 979 
Q 2662 442 2371 179 
Q 2080 -83 1670 -83 
z
M 1670 128 
Q 1997 128 2240 384 
Q 2483 640 2614 1133 
Q 2746 1626 2746 2336 
Q 2746 3040 2614 3529 
Q 2483 4019 2240 4272 
Q 1997 4525 1670 4525 
Q 1344 4525 1101 4272 
Q 858 4019 723 3529 
Q 589 3040 589 2336 
Q 589 1626 723 1133 
Q 858 640 1101 384 
Q 1344 128 1670 128 
z
" transform="scale(0.015625)"/>
       </defs>
       <use xlink:href="#NotoSansSC-Thin-12"/>
       <use xlink:href="#NotoSansSC-Thin-11" transform="translate(52.09375 0)"/>
      </g>
     </g>
    </g>
    <g id="xtick_2">
     <g id="line2d_2">
      <g>
       <use xlink:href="#mbb4da243cb" x="63.071104" y="201.99952" style="stroke: #000000; stroke-width: 0.8"/>
      </g>
     </g>
     <g id="text_2">
      <!-- 12 -->
      <g transform="translate(59.424541 215.15952) scale(0.07 -0.07)">
       <defs>
        <path id="NotoSansSC-Thin-13" d="M 294 0 
L 294 147 
Q 1120 858 1613 1434 
Q 2106 2010 2323 2499 
Q 2541 2989 2541 3424 
Q 2541 3725 2435 3974 
Q 2330 4224 2106 4371 
Q 1882 4518 1523 4518 
Q 1210 4518 931 4352 
Q 653 4186 442 3923 
L 282 4070 
Q 525 4346 829 4538 
Q 1133 4730 1542 4730 
Q 1939 4730 2214 4566 
Q 2490 4403 2637 4112 
Q 2784 3821 2784 3424 
Q 2784 2918 2537 2406 
Q 2291 1894 1820 1347 
Q 1350 800 678 179 
Q 870 192 1062 201 
Q 1254 211 1440 211 
L 3014 211 
L 3014 0 
L 294 0 
z
" transform="scale(0.015625)"/>
       </defs>
       <use xlink:href="#NotoSansSC-Thin-12"/>
       <use xlink:href="#NotoSansSC-Thin-13" transform="translate(52.09375 0)"/>
      </g>
     </g>
    </g>
    <g id="xtick_3">
     <g id="line2d_3">
      <g>
       <use xlink:href="#mbb4da243cb" x="91.03252" y="201.99952" style="stroke: #000000; stroke-width: 0.8"/>
      </g>
     </g>
     <g id="text_3">
      <!-- 14 -->
      <g transform="translate(87.385957 215.15952) scale(0.07 -0.07)">
       <defs>
        <path id="NotoSansSC-Thin-15" d="M 2195 0 
L 2195 3482 
Q 2195 3629 2204 3843 
Q 2214 4058 2227 4205 
L 2195 4205 
Q 2112 4058 2019 3901 
Q 1926 3744 1830 3590 
L 422 1568 
L 3110 1568 
L 3110 1363 
L 115 1363 
L 115 1485 
L 2259 4646 
L 2419 4646 
L 2419 0 
L 2195 0 
z
" transform="scale(0.015625)"/>
       </defs>
       <use xlink:href="#NotoSansSC-Thin-12"/>
       <use xlink:href="#NotoSansSC-Thin-15" transform="translate(52.09375 0)"/>
      </g>
     </g>
    </g>
    <g id="xtick_4">
     <g id="line2d_4">
      <g>
       <use xlink:href="#mbb4da243cb" x="118.993936" y="201.99952" style="stroke: #000000; stroke-width: 0.8"/>
      </g>
     </g>
     <g id="text_4">
      <!-- 16 -->
      <g transform="translate(115.347373 215.15952) scale(0.07 -0.07)">
       <defs>
        <path id="NotoSansSC-Thin-17" d="M 1837 -83 
Q 1498 -83 1232 67 
Q 966 218 780 509 
Q 595 800 496 1216 
Q 397 1632 397 2170 
Q 397 2886 528 3379 
Q 659 3872 889 4169 
Q 1120 4467 1414 4598 
Q 1709 4730 2029 4730 
Q 2330 4730 2550 4614 
Q 2771 4499 2944 4307 
L 2790 4147 
Q 2643 4333 2444 4425 
Q 2246 4518 2022 4518 
Q 1651 4518 1334 4297 
Q 1018 4077 826 3561 
Q 634 3046 634 2170 
Q 634 1581 762 1120 
Q 890 659 1158 393 
Q 1427 128 1850 128 
Q 2125 128 2336 297 
Q 2547 467 2672 752 
Q 2797 1037 2797 1382 
Q 2797 1741 2694 2025 
Q 2592 2310 2368 2476 
Q 2144 2643 1779 2643 
Q 1523 2643 1209 2470 
Q 896 2298 602 1888 
L 602 2176 
Q 768 2381 957 2531 
Q 1146 2682 1360 2762 
Q 1574 2842 1792 2842 
Q 2189 2842 2467 2675 
Q 2746 2509 2893 2185 
Q 3040 1862 3040 1382 
Q 3040 960 2873 630 
Q 2707 301 2435 109 
Q 2163 -83 1837 -83 
z
" transform="scale(0.015625)"/>
       </defs>
       <use xlink:href="#NotoSansSC-Thin-12"/>
       <use xlink:href="#NotoSansSC-Thin-17" transform="translate(52.09375 0)"/>
      </g>
     </g>
    </g>
    <g id="xtick_5">
     <g id="line2d_5">
      <g>
       <use xlink:href="#mbb4da243cb" x="146.955352" y="201.99952" style="stroke: #000000; stroke-width: 0.8"/>
      </g>
     </g>
     <g id="text_5">
      <!-- 18 -->
      <g transform="translate(143.308789 215.15952) scale(0.07 -0.07)">
       <defs>
        <path id="NotoSansSC-Thin-19" d="M 1696 -83 
Q 1286 -83 966 80 
Q 646 243 464 521 
Q 282 800 282 1152 
Q 282 1478 422 1744 
Q 563 2010 774 2202 
Q 986 2394 1197 2509 
L 1197 2534 
Q 954 2694 752 2953 
Q 550 3213 550 3578 
Q 550 3910 704 4163 
Q 858 4416 1117 4560 
Q 1376 4704 1696 4704 
Q 2080 4704 2345 4544 
Q 2611 4384 2752 4112 
Q 2893 3840 2893 3494 
Q 2893 3238 2784 3008 
Q 2675 2778 2528 2602 
Q 2381 2426 2253 2317 
L 2253 2285 
Q 2445 2170 2627 2010 
Q 2810 1850 2925 1626 
Q 3040 1402 3040 1082 
Q 3040 762 2870 496 
Q 2701 230 2400 73 
Q 2099 -83 1696 -83 
z
M 2035 2387 
Q 2336 2630 2499 2905 
Q 2662 3181 2662 3494 
Q 2662 3763 2550 3990 
Q 2438 4218 2220 4358 
Q 2003 4499 1696 4499 
Q 1293 4499 1040 4236 
Q 787 3974 787 3578 
Q 787 3238 972 3017 
Q 1158 2797 1446 2653 
Q 1734 2509 2035 2387 
z
M 1696 128 
Q 2035 128 2281 256 
Q 2528 384 2662 601 
Q 2797 819 2797 1082 
Q 2797 1370 2675 1574 
Q 2554 1779 2352 1923 
Q 2150 2067 1894 2182 
Q 1638 2298 1370 2400 
Q 998 2189 758 1875 
Q 518 1562 518 1152 
Q 518 870 668 636 
Q 819 403 1088 265 
Q 1357 128 1696 128 
z
" transform="scale(0.015625)"/>
       </defs>
       <use xlink:href="#NotoSansSC-Thin-12"/>
       <use xlink:href="#NotoSansSC-Thin-19" transform="translate(52.09375 0)"/>
      </g>
     </g>
    </g>
    <g id="xtick_6">
     <g id="line2d_6">
      <g>
       <use xlink:href="#mbb4da243cb" x="174.916768" y="201.99952" style="stroke: #000000; stroke-width: 0.8"/>
      </g>
     </g>
     <g id="text_6">
      <!-- 20 -->
      <g transform="translate(171.270206 215.15952) scale(0.07 -0.07)">
       <use xlink:href="#NotoSansSC-Thin-13"/>
       <use xlink:href="#NotoSansSC-Thin-11" transform="translate(52.09375 0)"/>
      </g>
     </g>
    </g>
    <g id="xtick_7">
     <g id="line2d_7">
      <g>
       <use xlink:href="#mbb4da243cb" x="202.878184" y="201.99952" style="stroke: #000000; stroke-width: 0.8"/>
      </g>
     </g>
     <g id="text_7">
      <!-- 22 -->
      <g transform="translate(199.231622 215.15952) scale(0.07 -0.07)">
       <use xlink:href="#NotoSansSC-Thin-13"/>
       <use xlink:href="#NotoSansSC-Thin-13" transform="translate(52.09375 0)"/>
      </g>
     </g>
    </g>
    <g id="xtick_8">
     <g id="line2d_8">
      <g>
       <use xlink:href="#mbb4da243cb" x="230.8396" y="201.99952" style="stroke: #000000; stroke-width: 0.8"/>
      </g>
     </g>
     <g id="text_8">
      <!-- 24 -->
      <g transform="translate(227.193038 215.15952) scale(0.07 -0.07)">
       <use xlink:href="#NotoSansSC-Thin-13"/>
       <use xlink:href="#NotoSansSC-Thin-15" transform="translate(52.09375 0)"/>
      </g>
     </g>
    </g>
    <g id="text_9">
     <!-- 检测孕周（周） -->
     <g transform="translate(111.964998 227.03952) scale(0.08 -0.08)">
      <defs>
       <path id="NotoSansSC-Thin-3cd4" d="M 384 4038 
L 2310 4038 
L 2310 3853 
L 384 3853 
L 384 4038 
z
M 1293 5318 
L 1478 5318 
L 1478 -435 
L 1293 -435 
L 1293 5318 
z
M 1280 3987 
L 1453 3949 
Q 1376 3571 1264 3155 
Q 1152 2739 1011 2339 
Q 870 1939 713 1596 
Q 557 1254 397 1011 
Q 378 1037 352 1065 
Q 326 1094 300 1120 
Q 275 1146 250 1158 
Q 403 1389 556 1715 
Q 710 2042 851 2426 
Q 992 2810 1104 3213 
Q 1216 3616 1280 3987 
z
M 1466 3552 
Q 1510 3482 1612 3306 
Q 1715 3130 1836 2925 
Q 1958 2720 2057 2544 
Q 2157 2368 2195 2291 
L 2054 2125 
Q 2010 2234 1910 2419 
Q 1811 2605 1699 2816 
Q 1587 3027 1488 3203 
Q 1389 3379 1338 3456 
L 1466 3552 
z
M 4128 5088 
Q 4282 4813 4509 4521 
Q 4736 4230 5001 3948 
Q 5267 3667 5548 3427 
Q 5830 3187 6086 3008 
Q 6061 2995 6035 2972 
Q 6010 2950 5987 2928 
Q 5965 2906 5946 2880 
Q 5600 3136 5225 3488 
Q 4851 3840 4524 4237 
Q 4198 4634 3987 5005 
L 4128 5088 
z
M 4083 5331 
L 4269 5280 
Q 4045 4768 3725 4320 
Q 3405 3872 3024 3501 
Q 2643 3130 2221 2848 
Q 2208 2867 2182 2896 
Q 2157 2925 2131 2953 
Q 2106 2982 2086 3002 
Q 2509 3264 2886 3619 
Q 3264 3974 3571 4409 
Q 3878 4845 4083 5331 
z
M 3014 3309 
L 5075 3309 
L 5075 3117 
L 3014 3117 
L 3014 3309 
z
M 2566 2330 
L 2733 2368 
Q 2848 2125 2944 1843 
Q 3040 1562 3113 1293 
Q 3187 1024 3219 813 
L 3046 768 
Q 3021 979 2947 1248 
Q 2874 1517 2774 1798 
Q 2675 2080 2566 2330 
z
M 3827 2490 
L 3994 2515 
Q 4064 2272 4121 1990 
Q 4179 1709 4224 1443 
Q 4269 1178 4282 966 
L 4102 934 
Q 4090 1146 4048 1414 
Q 4006 1683 3948 1964 
Q 3891 2246 3827 2490 
z
M 5504 2502 
L 5690 2432 
Q 5536 2048 5337 1597 
Q 5139 1146 4934 717 
Q 4730 288 4538 -32 
L 4384 38 
Q 4525 275 4678 582 
Q 4832 890 4985 1229 
Q 5139 1568 5273 1897 
Q 5408 2227 5504 2502 
z
M 2176 96 
L 5990 96 
L 5990 -96 
L 2176 -96 
L 2176 96 
z
" transform="scale(0.015625)"/>
       <path id="NotoSansSC-Thin-415c" d="M 3136 672 
L 3270 774 
Q 3450 614 3635 422 
Q 3821 230 3981 44 
Q 4141 -141 4237 -282 
L 4102 -403 
Q 4006 -256 3846 -67 
Q 3686 122 3500 317 
Q 3315 512 3136 672 
z
M 2042 4909 
L 4077 4909 
L 4077 1082 
L 3891 1082 
L 3891 4717 
L 2227 4717 
L 2227 1082 
L 2042 1082 
L 2042 4909 
z
M 5683 5254 
L 5869 5254 
L 5869 -109 
Q 5869 -243 5824 -304 
Q 5779 -365 5690 -397 
Q 5594 -416 5408 -422 
Q 5222 -429 4896 -422 
Q 4890 -390 4864 -339 
Q 4838 -288 4813 -243 
Q 5088 -250 5289 -250 
Q 5491 -250 5555 -243 
Q 5683 -243 5683 -115 
L 5683 5254 
z
M 4806 4749 
L 4992 4749 
L 4992 1024 
L 4806 1024 
L 4806 4749 
z
M 2912 4154 
L 3098 4154 
L 3098 2074 
Q 3098 1747 3053 1408 
Q 3008 1069 2870 739 
Q 2733 410 2470 115 
Q 2208 -179 1773 -422 
Q 1760 -403 1734 -380 
Q 1709 -358 1683 -332 
Q 1658 -307 1632 -294 
Q 2054 -58 2310 224 
Q 2566 506 2697 816 
Q 2829 1126 2870 1446 
Q 2912 1766 2912 2074 
L 2912 4154 
z
M 614 5107 
L 736 5229 
Q 915 5133 1107 5008 
Q 1299 4883 1472 4758 
Q 1645 4634 1754 4531 
L 1632 4378 
Q 1523 4486 1353 4617 
Q 1184 4749 992 4877 
Q 800 5005 614 5107 
z
M 307 3366 
L 422 3494 
Q 608 3398 803 3276 
Q 998 3155 1177 3036 
Q 1357 2918 1472 2822 
L 1363 2675 
Q 1248 2771 1069 2892 
Q 890 3014 691 3139 
Q 493 3264 307 3366 
z
M 461 -237 
Q 595 6 755 352 
Q 915 698 1078 1075 
Q 1242 1453 1370 1792 
L 1517 1683 
Q 1395 1357 1241 989 
Q 1088 621 928 272 
Q 768 -77 627 -358 
L 461 -237 
z
" transform="scale(0.015625)"/>
       <path id="NotoSansSC-Thin-2f77" d="M 320 1434 
L 6086 1434 
L 6086 1242 
L 320 1242 
L 320 1434 
z
M 1683 2906 
L 4512 2906 
L 4512 2720 
L 1683 2720 
L 1683 2906 
z
M 4013 3994 
L 5626 3994 
L 5626 3808 
L 4013 3808 
L 4013 3994 
z
M 666 4992 
L 4230 4992 
L 4230 4806 
L 666 4806 
L 666 4992 
z
M 3085 1997 
L 3277 1997 
L 3277 -179 
Q 3277 -301 3238 -358 
Q 3200 -416 3091 -442 
Q 2989 -467 2755 -473 
Q 2522 -480 2112 -480 
Q 2106 -435 2083 -390 
Q 2061 -346 2035 -301 
Q 2272 -307 2457 -310 
Q 2643 -314 2774 -310 
Q 2906 -307 2957 -301 
Q 3034 -301 3059 -275 
Q 3085 -250 3085 -186 
L 3085 1997 
z
M 4442 2906 
L 4486 2906 
L 4531 2918 
L 4666 2822 
Q 4486 2637 4240 2461 
Q 3994 2285 3728 2134 
Q 3462 1984 3213 1875 
Q 3187 1907 3152 1942 
Q 3117 1978 3085 1997 
Q 3334 2099 3590 2243 
Q 3846 2387 4070 2547 
Q 4294 2707 4442 2861 
L 4442 2906 
z
M 5562 3994 
L 5754 3994 
Q 5754 3994 5754 3952 
Q 5754 3910 5747 3878 
Q 5709 3347 5670 3027 
Q 5632 2707 5587 2544 
Q 5542 2381 5478 2317 
Q 5427 2266 5363 2240 
Q 5299 2214 5197 2214 
Q 5120 2208 4979 2214 
Q 4838 2221 4691 2227 
Q 4685 2272 4672 2323 
Q 4659 2374 4640 2413 
Q 4819 2400 4963 2397 
Q 5107 2394 5165 2394 
Q 5280 2394 5331 2438 
Q 5382 2490 5420 2650 
Q 5459 2810 5494 3126 
Q 5530 3443 5562 3955 
L 5562 3994 
z
M 2016 4915 
L 2214 4915 
Q 2157 4493 2048 4080 
Q 1939 3667 1747 3302 
Q 1555 2938 1248 2640 
Q 941 2342 486 2138 
Q 467 2170 425 2211 
Q 384 2253 352 2272 
Q 800 2458 1097 2746 
Q 1395 3034 1580 3389 
Q 1766 3744 1865 4134 
Q 1965 4525 2016 4915 
z
M 4128 4992 
L 4333 4992 
Q 4269 4698 4192 4365 
Q 4115 4032 4045 3808 
L 3853 3808 
Q 3923 4051 4000 4380 
Q 4077 4710 4128 4992 
z
" transform="scale(0.015625)"/>
       <path id="NotoSansSC-Thin-2896" d="M 1184 5005 
L 5370 5005 
L 5370 4819 
L 1184 4819 
L 1184 5005 
z
M 1766 3974 
L 4704 3974 
L 4704 3789 
L 1766 3789 
L 1766 3974 
z
M 1587 2938 
L 4896 2938 
L 4896 2746 
L 1587 2746 
L 1587 2938 
z
M 1082 5005 
L 1267 5005 
L 1267 3085 
Q 1267 2688 1238 2227 
Q 1210 1766 1126 1289 
Q 1043 813 873 358 
Q 704 -96 422 -493 
Q 403 -474 377 -448 
Q 352 -422 326 -400 
Q 301 -378 275 -365 
Q 550 19 710 457 
Q 870 896 950 1353 
Q 1030 1811 1056 2252 
Q 1082 2694 1082 3085 
L 1082 5005 
z
M 5299 5005 
L 5491 5005 
L 5491 -83 
Q 5491 -237 5436 -307 
Q 5382 -378 5261 -410 
Q 5146 -435 4893 -438 
Q 4640 -442 4192 -442 
Q 4186 -410 4160 -352 
Q 4134 -294 4109 -250 
Q 4358 -256 4569 -256 
Q 4781 -256 4928 -253 
Q 5075 -250 5133 -250 
Q 5222 -243 5260 -208 
Q 5299 -173 5299 -90 
L 5299 5005 
z
M 3104 4659 
L 3296 4659 
L 3296 2797 
L 3104 2797 
L 3104 4659 
z
M 2106 2035 
L 4480 2035 
L 4480 422 
L 2106 422 
L 2106 608 
L 4294 608 
L 4294 1843 
L 2106 1843 
L 2106 2035 
z
M 1984 2035 
L 2170 2035 
L 2170 58 
L 1984 58 
L 1984 2035 
z
" transform="scale(0.015625)"/>
       <path id="NotoSansSC-Thin-743f" d="M 4653 2432 
Q 4653 3002 4797 3523 
Q 4941 4045 5229 4528 
Q 5517 5011 5939 5446 
L 6099 5325 
Q 5683 4909 5408 4438 
Q 5133 3968 4995 3465 
Q 4858 2963 4858 2432 
Q 4858 1907 4995 1401 
Q 5133 896 5408 429 
Q 5683 -38 6099 -461 
L 5939 -582 
Q 5517 -141 5229 339 
Q 4941 819 4797 1344 
Q 4653 1869 4653 2432 
z
" transform="scale(0.015625)"/>
       <path id="NotoSansSC-Thin-7440" d="M 1747 2432 
Q 1747 1869 1603 1344 
Q 1459 819 1171 339 
Q 883 -141 461 -582 
L 301 -461 
Q 717 -38 992 429 
Q 1267 896 1404 1401 
Q 1542 1907 1542 2432 
Q 1542 2963 1404 3465 
Q 1267 3968 992 4438 
Q 717 4909 301 5325 
L 461 5446 
Q 883 5011 1171 4528 
Q 1459 4045 1603 3523 
Q 1747 3002 1747 2432 
z
" transform="scale(0.015625)"/>
      </defs>
      <use xlink:href="#NotoSansSC-Thin-3cd4"/>
      <use xlink:href="#NotoSansSC-Thin-415c" transform="translate(100 0)"/>
      <use xlink:href="#NotoSansSC-Thin-2f77" transform="translate(200 0)"/>
      <use xlink:href="#NotoSansSC-Thin-2896" transform="translate(300 0)"/>
      <use xlink:href="#NotoSansSC-Thin-743f" transform="translate(400 0)"/>
      <use xlink:href="#NotoSansSC-Thin-2896" transform="translate(500 0)"/>
      <use xlink:href="#NotoSansSC-Thin-7440" transform="translate(600 0)"/>
     </g>
    </g>
   </g>
   <g id="matplotlib.axis_2">
    <g id="ytick_1">
     <g id="line2d_9">
      <path d="M 35.109688 201.99952 
L 244.820308 201.99952 
" clip-path="url(#pff2dd628ac)" style="fill: none; stroke: #d8d8d8; stroke-opacity: 0.7; stroke-width: 0.5; stroke-linecap: square"/>
     </g>
     <g id="line2d_10">
      <defs>
       <path id="m69b2492463" d="M 0 0 
L -3.5 0 
" style="stroke: #000000; stroke-width: 0.8"/>
      </defs>
      <g>
       <use xlink:href="#m69b2492463" x="35.109688" y="201.99952" style="stroke: #000000; stroke-width: 0.8"/>
      </g>
     </g>
     <g id="text_10">
      <!-- 0.0 -->
      <g transform="translate(19.2 205.07952) scale(0.07 -0.07)">
       <defs>
        <path id="NotoSansSC-Thin-f" d="M 736 -83 
Q 640 -83 560 -9 
Q 480 64 480 192 
Q 480 333 560 406 
Q 640 480 736 480 
Q 838 480 918 406 
Q 998 333 998 192 
Q 998 64 918 -9 
Q 838 -83 736 -83 
z
" transform="scale(0.015625)"/>
       </defs>
       <use xlink:href="#NotoSansSC-Thin-11"/>
       <use xlink:href="#NotoSansSC-Thin-f" transform="translate(52.09375 0)"/>
       <use xlink:href="#NotoSansSC-Thin-11" transform="translate(75.1875 0)"/>
      </g>
     </g>
    </g>
    <g id="ytick_2">
     <g id="line2d_11">
      <path d="M 35.109688 166.268843 
L 244.820308 166.268843 
" clip-path="url(#pff2dd628ac)" style="fill: none; stroke: #d8d8d8; stroke-opacity: 0.7; stroke-width: 0.5; stroke-linecap: square"/>
     </g>
     <g id="line2d_12">
      <g>
       <use xlink:href="#m69b2492463" x="35.109688" y="166.268843" style="stroke: #000000; stroke-width: 0.8"/>
      </g>
     </g>
     <g id="text_11">
      <!-- 0.2 -->
      <g transform="translate(19.2 169.348843) scale(0.07 -0.07)">
       <use xlink:href="#NotoSansSC-Thin-11"/>
       <use xlink:href="#NotoSansSC-Thin-f" transform="translate(52.09375 0)"/>
       <use xlink:href="#NotoSansSC-Thin-13" transform="translate(75.1875 0)"/>
      </g>
     </g>
    </g>
    <g id="ytick_3">
     <g id="line2d_13">
      <path d="M 35.109688 130.538166 
L 244.820308 130.538166 
" clip-path="url(#pff2dd628ac)" style="fill: none; stroke: #d8d8d8; stroke-opacity: 0.7; stroke-width: 0.5; stroke-linecap: square"/>
     </g>
     <g id="line2d_14">
      <g>
       <use xlink:href="#m69b2492463" x="35.109688" y="130.538166" style="stroke: #000000; stroke-width: 0.8"/>
      </g>
     </g>
     <g id="text_12">
      <!-- 0.4 -->
      <g transform="translate(19.2 133.618166) scale(0.07 -0.07)">
       <use xlink:href="#NotoSansSC-Thin-11"/>
       <use xlink:href="#NotoSansSC-Thin-f" transform="translate(52.09375 0)"/>
       <use xlink:href="#NotoSansSC-Thin-15" transform="translate(75.1875 0)"/>
      </g>
     </g>
    </g>
    <g id="ytick_4">
     <g id="line2d_15">
      <path d="M 35.109688 94.807489 
L 244.820308 94.807489 
" clip-path="url(#pff2dd628ac)" style="fill: none; stroke: #d8d8d8; stroke-opacity: 0.7; stroke-width: 0.5; stroke-linecap: square"/>
     </g>
     <g id="line2d_16">
      <g>
       <use xlink:href="#m69b2492463" x="35.109688" y="94.807489" style="stroke: #000000; stroke-width: 0.8"/>
      </g>
     </g>
     <g id="text_13">
      <!-- 0.6 -->
      <g transform="translate(19.2 97.887489) scale(0.07 -0.07)">
       <use xlink:href="#NotoSansSC-Thin-11"/>
       <use xlink:href="#NotoSansSC-Thin-f" transform="translate(52.09375 0)"/>
       <use xlink:href="#NotoSansSC-Thin-17" transform="translate(75.1875 0)"/>
      </g>
     </g>
    </g>
    <g id="ytick_5">
     <g id="line2d_17">
      <path d="M 35.109688 59.076812 
L 244.820308 59.076812 
" clip-path="url(#pff2dd628ac)" style="fill: none; stroke: #d8d8d8; stroke-opacity: 0.7; stroke-width: 0.5; stroke-linecap: square"/>
     </g>
     <g id="line2d_18">
      <g>
       <use xlink:href="#m69b2492463" x="35.109688" y="59.076812" style="stroke: #000000; stroke-width: 0.8"/>
      </g>
     </g>
     <g id="text_14">
      <!-- 0.8 -->
      <g transform="translate(19.2 62.156812) scale(0.07 -0.07)">
       <use xlink:href="#NotoSansSC-Thin-11"/>
       <use xlink:href="#NotoSansSC-Thin-f" transform="translate(52.09375 0)"/>
       <use xlink:href="#NotoSansSC-Thin-19" transform="translate(75.1875 0)"/>
      </g>
     </g>
    </g>
    <g id="ytick_6">
     <g id="line2d_19">
      <path d="M 35.109688 23.346135 
L 244.820308 23.346135 
" clip-path="url(#pff2dd628ac)" style="fill: none; stroke: #d8d8d8; stroke-opacity: 0.7; stroke-width: 0.5; stroke-linecap: square"/>
     </g>
     <g id="line2d_20">
      <g>
       <use xlink:href="#m69b2492463" x="35.109688" y="23.346135" style="stroke: #000000; stroke-width: 0.8"/>
      </g>
     </g>
     <g id="text_15">
      <!-- 1.0 -->
      <g transform="translate(19.2 26.426135) scale(0.07 -0.07)">
       <use xlink:href="#NotoSansSC-Thin-12"/>
       <use xlink:href="#NotoSansSC-Thin-f" transform="translate(52.09375 0)"/>
       <use xlink:href="#NotoSansSC-Thin-11" transform="translate(75.1875 0)"/>
      </g>
     </g>
    </g>
    <g id="text_16">
     <!-- 边缘达标概率 -->
     <g transform="translate(14.24 136.672828) rotate(-90) scale(0.08 -0.08)">
      <defs>
       <path id="NotoSansSC-Thin-63a8" d="M 2202 4090 
L 5690 4090 
L 5690 3904 
L 2202 3904 
L 2202 4090 
z
M 5606 4090 
L 5798 4090 
Q 5798 4090 5798 4064 
Q 5798 4038 5798 4006 
Q 5798 3974 5798 3955 
Q 5754 3104 5706 2518 
Q 5658 1933 5603 1561 
Q 5549 1190 5485 982 
Q 5421 774 5338 685 
Q 5267 602 5177 570 
Q 5088 538 4947 538 
Q 4819 531 4576 540 
Q 4333 550 4070 570 
Q 4064 614 4051 665 
Q 4038 717 4006 762 
Q 4307 736 4563 729 
Q 4819 723 4922 723 
Q 5011 717 5072 733 
Q 5133 749 5178 800 
Q 5248 877 5309 1078 
Q 5370 1280 5421 1654 
Q 5472 2029 5520 2614 
Q 5568 3200 5606 4038 
L 5606 4090 
z
M 3667 5184 
L 3853 5184 
Q 3834 4390 3779 3692 
Q 3725 2995 3565 2406 
Q 3405 1818 3075 1360 
Q 2746 902 2182 595 
Q 2157 627 2115 665 
Q 2074 704 2035 730 
Q 2592 1018 2915 1462 
Q 3238 1907 3395 2483 
Q 3552 3059 3603 3740 
Q 3654 4422 3667 5184 
z
M 1466 3098 
L 1466 512 
L 1274 512 
L 1274 2912 
L 320 2912 
L 320 3098 
L 1466 3098 
z
M 595 5050 
L 736 5146 
Q 928 4986 1129 4797 
Q 1331 4608 1507 4422 
Q 1683 4237 1792 4096 
L 1651 3974 
Q 1542 4122 1366 4310 
Q 1190 4499 988 4694 
Q 787 4890 595 5050 
z
M 1350 634 
Q 1504 634 1641 499 
Q 1779 365 2054 173 
Q 2368 -45 2774 -105 
Q 3181 -166 3750 -166 
Q 4083 -166 4412 -156 
Q 4742 -147 5056 -134 
Q 5370 -122 5651 -106 
Q 5933 -90 6163 -77 
Q 6150 -96 6137 -134 
Q 6125 -173 6115 -217 
Q 6106 -262 6099 -301 
Q 5933 -307 5635 -320 
Q 5338 -333 4989 -342 
Q 4640 -352 4310 -358 
Q 3981 -365 3750 -365 
Q 3130 -365 2704 -291 
Q 2278 -218 1939 19 
Q 1760 160 1606 307 
Q 1453 454 1350 454 
Q 1242 454 1094 342 
Q 947 230 777 35 
Q 608 -160 410 -416 
L 250 -262 
Q 570 115 842 374 
Q 1114 634 1350 634 
z
" transform="scale(0.015625)"/>
       <path id="NotoSansSC-Thin-5316" d="M 2285 3213 
L 6074 3213 
L 6074 3027 
L 2285 3027 
L 2285 3213 
z
M 3200 4858 
L 5184 4858 
L 5184 4666 
L 3200 4666 
L 3200 4858 
z
M 2957 3974 
L 5050 3974 
L 5050 3789 
L 2957 3789 
L 2957 3974 
z
M 4269 3174 
L 4442 3104 
Q 4192 2874 3853 2662 
Q 3514 2451 3139 2275 
Q 2765 2099 2419 1965 
Q 2413 1984 2387 2013 
Q 2362 2042 2333 2070 
Q 2304 2099 2278 2112 
Q 2637 2240 3005 2403 
Q 3373 2566 3702 2761 
Q 4032 2957 4269 3174 
z
M 3629 2573 
L 3750 2669 
Q 4070 2406 4275 2067 
Q 4480 1728 4579 1366 
Q 4678 1005 4688 675 
Q 4698 346 4627 93 
Q 4557 -160 4410 -275 
Q 4307 -378 4195 -406 
Q 4083 -435 3930 -435 
Q 3846 -435 3728 -432 
Q 3610 -429 3482 -422 
Q 3475 -390 3462 -336 
Q 3450 -282 3430 -243 
Q 3571 -256 3696 -262 
Q 3821 -269 3898 -269 
Q 4006 -269 4099 -253 
Q 4192 -237 4275 -166 
Q 4397 -70 4457 160 
Q 4518 390 4508 697 
Q 4499 1005 4406 1341 
Q 4314 1677 4122 2000 
Q 3930 2323 3629 2573 
z
M 4141 2086 
L 4294 1990 
Q 4102 1811 3814 1622 
Q 3526 1434 3206 1274 
Q 2886 1114 2592 1005 
Q 2573 1043 2537 1094 
Q 2502 1146 2464 1171 
Q 2752 1261 3069 1411 
Q 3386 1562 3670 1738 
Q 3955 1914 4141 2086 
z
M 4448 1357 
L 4602 1261 
Q 4371 973 4009 688 
Q 3648 403 3238 169 
Q 2829 -64 2432 -211 
Q 2419 -166 2384 -121 
Q 2349 -77 2310 -45 
Q 2701 83 3110 307 
Q 3520 531 3875 806 
Q 4230 1082 4448 1357 
z
M 5114 4858 
L 5139 4858 
L 5178 4877 
L 5306 4845 
Q 5267 4608 5209 4307 
Q 5152 4006 5091 3702 
Q 5030 3398 4966 3136 
L 4787 3162 
Q 4851 3418 4912 3731 
Q 4973 4045 5027 4339 
Q 5082 4634 5114 4819 
L 5114 4858 
z
M 5715 2573 
L 5869 2458 
Q 5664 2317 5405 2173 
Q 5146 2029 4883 1901 
Q 4621 1773 4390 1677 
L 4269 1786 
Q 4493 1888 4758 2025 
Q 5024 2163 5280 2307 
Q 5536 2451 5715 2573 
z
M 5075 2061 
Q 5158 1632 5305 1232 
Q 5453 832 5657 518 
Q 5862 205 6118 26 
Q 6080 0 6041 -45 
Q 6003 -90 5971 -122 
Q 5715 83 5507 412 
Q 5299 742 5152 1158 
Q 5005 1574 4915 2016 
L 5075 2061 
z
M 3232 5318 
L 3430 5293 
Q 3379 5050 3312 4774 
Q 3245 4499 3174 4240 
Q 3104 3981 3046 3789 
L 2854 3789 
Q 2918 3994 2985 4259 
Q 3053 4525 3117 4803 
Q 3181 5082 3232 5318 
z
M 435 1248 
Q 435 1274 422 1309 
Q 410 1344 397 1382 
Q 384 1421 371 1446 
Q 454 1459 566 1577 
Q 678 1696 819 1875 
Q 890 1965 1040 2169 
Q 1190 2374 1379 2652 
Q 1568 2931 1766 3254 
Q 1965 3578 2125 3904 
L 2298 3821 
Q 1914 3142 1478 2499 
Q 1043 1856 602 1376 
L 602 1376 
Q 602 1376 576 1363 
Q 550 1350 518 1331 
Q 486 1312 460 1289 
Q 435 1267 435 1248 
z
M 435 1248 
L 435 1427 
L 570 1536 
L 2182 1933 
Q 2189 1894 2195 1846 
Q 2202 1798 2208 1773 
Q 1638 1619 1302 1529 
Q 966 1440 790 1385 
Q 614 1331 544 1302 
Q 474 1274 435 1248 
z
M 397 2765 
Q 397 2790 384 2825 
Q 371 2861 358 2896 
Q 346 2931 333 2950 
Q 410 2963 502 3078 
Q 595 3194 710 3360 
Q 768 3450 889 3642 
Q 1011 3834 1161 4096 
Q 1312 4358 1469 4659 
Q 1626 4960 1754 5261 
L 1907 5184 
Q 1709 4762 1488 4349 
Q 1267 3936 1033 3565 
Q 800 3194 557 2893 
L 557 2886 
Q 557 2886 531 2876 
Q 506 2867 477 2848 
Q 448 2829 422 2806 
Q 397 2784 397 2765 
z
M 397 2765 
L 397 2938 
L 538 3027 
L 1773 3181 
Q 1766 3142 1769 3091 
Q 1773 3040 1779 3014 
Q 1350 2950 1088 2908 
Q 826 2867 688 2841 
Q 550 2816 489 2800 
Q 429 2784 397 2765 
z
M 333 243 
Q 582 326 896 438 
Q 1210 550 1568 678 
Q 1926 806 2291 934 
L 2317 762 
Q 1798 576 1289 390 
Q 781 205 384 64 
L 333 243 
z
" transform="scale(0.015625)"/>
       <path id="NotoSansSC-Thin-63ad" d="M 2035 3981 
L 6016 3981 
L 6016 3795 
L 2035 3795 
L 2035 3981 
z
M 646 5069 
L 806 5146 
Q 966 4960 1126 4745 
Q 1286 4531 1420 4326 
Q 1555 4122 1626 3962 
L 1466 3866 
Q 1389 4026 1254 4237 
Q 1120 4448 963 4665 
Q 806 4883 646 5069 
z
M 3891 5299 
L 4077 5299 
Q 4058 4755 4013 4214 
Q 3968 3674 3865 3162 
Q 3763 2650 3568 2192 
Q 3373 1734 3049 1360 
Q 2726 986 2234 717 
Q 2221 736 2192 761 
Q 2163 787 2134 809 
Q 2106 832 2086 845 
Q 2566 1101 2886 1465 
Q 3206 1830 3398 2278 
Q 3590 2726 3692 3228 
Q 3795 3731 3833 4256 
Q 3872 4781 3891 5299 
z
M 1574 2867 
L 1574 672 
L 1389 672 
L 1389 2682 
L 365 2682 
L 365 2867 
L 1574 2867 
z
M 1485 787 
Q 1594 787 1680 720 
Q 1766 653 1878 544 
Q 1990 435 2163 301 
Q 2464 77 2851 13 
Q 3238 -51 3802 -51 
Q 4122 -51 4438 -44 
Q 4755 -38 5052 -25 
Q 5350 -13 5612 3 
Q 5875 19 6093 38 
Q 6080 19 6067 -16 
Q 6054 -51 6048 -83 
Q 6042 -115 6035 -147 
Q 5875 -154 5587 -166 
Q 5299 -179 4960 -188 
Q 4621 -198 4310 -204 
Q 4000 -211 3802 -211 
Q 3200 -211 2787 -134 
Q 2374 -58 2054 192 
Q 1875 333 1734 483 
Q 1594 634 1485 634 
Q 1363 634 1206 522 
Q 1050 410 861 208 
Q 672 6 454 -262 
L 320 -141 
Q 659 256 953 521 
Q 1248 787 1485 787 
z
M 3744 3194 
L 3904 3296 
Q 4173 3008 4461 2688 
Q 4749 2368 5024 2045 
Q 5299 1722 5529 1427 
Q 5760 1133 5914 909 
L 5754 787 
Q 5594 1018 5357 1315 
Q 5120 1613 4848 1942 
Q 4576 2272 4291 2592 
Q 4006 2912 3744 3194 
z
" transform="scale(0.015625)"/>
       <path id="NotoSansSC-Thin-3c1b" d="M 2970 4736 
L 5734 4736 
L 5734 4550 
L 2970 4550 
L 2970 4736 
z
M 2707 3206 
L 6067 3206 
L 6067 3021 
L 2707 3021 
L 2707 3206 
z
M 4186 3117 
L 4378 3117 
L 4378 -115 
Q 4378 -243 4336 -304 
Q 4294 -365 4192 -397 
Q 4090 -422 3875 -425 
Q 3661 -429 3315 -429 
Q 3309 -390 3283 -336 
Q 3258 -282 3232 -237 
Q 3539 -243 3766 -243 
Q 3994 -243 4058 -237 
Q 4134 -230 4160 -204 
Q 4186 -179 4186 -115 
L 4186 3117 
z
M 5030 2138 
L 5216 2182 
Q 5382 1882 5539 1536 
Q 5696 1190 5824 867 
Q 5952 544 6016 301 
L 5824 237 
Q 5760 480 5635 806 
Q 5510 1133 5353 1485 
Q 5197 1837 5030 2138 
z
M 3315 2176 
L 3501 2138 
Q 3398 1773 3257 1424 
Q 3117 1075 2953 768 
Q 2790 461 2605 218 
Q 2592 230 2560 252 
Q 2528 275 2493 297 
Q 2458 320 2432 333 
Q 2720 685 2947 1168 
Q 3174 1651 3315 2176 
z
M 416 3866 
L 2598 3866 
L 2598 3674 
L 416 3674 
L 416 3866 
z
M 1478 5318 
L 1670 5318 
L 1670 -435 
L 1478 -435 
L 1478 5318 
z
M 1459 3814 
L 1645 3763 
Q 1549 3424 1408 3056 
Q 1267 2688 1094 2333 
Q 922 1978 733 1670 
Q 544 1363 352 1152 
Q 333 1178 304 1206 
Q 275 1235 249 1260 
Q 224 1286 198 1299 
Q 442 1568 685 1984 
Q 928 2400 1133 2883 
Q 1338 3366 1459 3814 
z
M 1638 3507 
Q 1696 3443 1824 3276 
Q 1952 3110 2102 2912 
Q 2253 2714 2381 2547 
Q 2509 2381 2560 2304 
L 2400 2144 
Q 2342 2240 2220 2419 
Q 2099 2598 1958 2800 
Q 1818 3002 1690 3168 
Q 1562 3334 1491 3411 
L 1638 3507 
z
" transform="scale(0.015625)"/>
       <path id="NotoSansSC-Thin-3d95" d="M 4019 4909 
L 5914 4909 
L 5914 4717 
L 4019 4717 
L 4019 4909 
z
M 2298 3757 
L 3546 3757 
L 3546 3571 
L 2298 3571 
L 2298 3757 
z
M 3066 1798 
L 3226 1862 
Q 3347 1658 3459 1421 
Q 3571 1184 3664 963 
Q 3757 742 3808 582 
L 3642 499 
Q 3590 666 3497 890 
Q 3405 1114 3293 1354 
Q 3181 1594 3066 1798 
z
M 2298 4896 
L 3654 4896 
L 3654 2374 
L 2298 2374 
L 2298 2560 
L 3469 2560 
L 3469 4704 
L 2298 4704 
L 2298 4896 
z
M 5018 4826 
L 5203 4826 
L 5203 4512 
Q 5203 4102 5177 3625 
Q 5152 3149 5065 2633 
Q 4979 2118 4800 1587 
Q 4621 1056 4320 537 
Q 4019 19 3558 -467 
Q 3526 -435 3481 -409 
Q 3437 -384 3392 -365 
Q 3853 115 4153 627 
Q 4454 1139 4630 1657 
Q 4806 2176 4889 2678 
Q 4973 3181 4995 3645 
Q 5018 4109 5018 4506 
L 5018 4826 
z
M 4979 2074 
L 5165 2074 
L 5165 -58 
Q 5165 -90 5177 -122 
Q 5190 -154 5216 -166 
Q 5267 -198 5357 -198 
Q 5402 -198 5469 -198 
Q 5536 -198 5587 -198 
Q 5638 -198 5692 -192 
Q 5747 -186 5773 -166 
Q 5798 -147 5824 -105 
Q 5850 -64 5856 0 
Q 5869 90 5872 298 
Q 5875 506 5875 762 
Q 5907 730 5961 701 
Q 6016 672 6061 659 
Q 6054 422 6044 188 
Q 6035 -45 6016 -122 
Q 5978 -282 5869 -339 
Q 5830 -365 5756 -377 
Q 5683 -390 5613 -390 
Q 5568 -390 5475 -390 
Q 5382 -390 5344 -390 
Q 5280 -390 5206 -377 
Q 5133 -365 5075 -326 
Q 5018 -282 4998 -205 
Q 4979 -128 4979 32 
L 4979 2074 
z
M 2106 122 
L 2099 314 
L 2208 474 
L 3450 1210 
Q 3462 1171 3481 1132 
Q 3501 1094 3514 1069 
Q 3059 781 2790 605 
Q 2522 429 2381 336 
Q 2240 243 2185 198 
Q 2131 154 2106 122 
z
M 4000 2362 
L 4000 2547 
L 4192 2624 
L 6029 2624 
L 6029 2432 
L 4435 2432 
Q 4262 2432 4150 2413 
Q 4038 2394 4000 2362 
z
M 4000 2362 
Q 3994 2387 3978 2428 
Q 3962 2470 3942 2512 
Q 3923 2554 3904 2579 
Q 3962 2592 4000 2621 
Q 4038 2650 4064 2726 
Q 4083 2784 4121 2982 
Q 4160 3181 4198 3430 
Q 4237 3680 4272 3904 
Q 4307 4128 4320 4243 
L 4525 4243 
Q 4499 4102 4464 3878 
Q 4429 3654 4384 3401 
Q 4339 3149 4297 2921 
Q 4256 2694 4224 2547 
Q 4224 2547 4189 2528 
Q 4154 2509 4112 2480 
Q 4070 2451 4035 2419 
Q 4000 2387 4000 2362 
z
M 2106 122 
Q 2093 147 2070 176 
Q 2048 205 2019 233 
Q 1990 262 1965 282 
Q 2022 333 2105 457 
Q 2189 582 2189 787 
L 2189 4896 
L 2381 4896 
L 2381 493 
Q 2381 493 2339 448 
Q 2298 403 2243 339 
Q 2189 275 2147 214 
Q 2106 154 2106 122 
z
M 416 3891 
L 1971 3891 
L 1971 3699 
L 416 3699 
L 416 3891 
z
M 1171 5318 
L 1363 5318 
L 1363 -435 
L 1171 -435 
L 1171 5318 
z
M 1152 3827 
L 1325 3782 
Q 1267 3411 1174 2995 
Q 1082 2579 963 2176 
Q 845 1773 707 1427 
Q 570 1082 422 845 
Q 397 883 352 928 
Q 307 973 269 998 
Q 410 1222 544 1548 
Q 678 1875 796 2259 
Q 915 2643 1004 3046 
Q 1094 3450 1152 3827 
z
M 1331 3354 
Q 1376 3296 1465 3158 
Q 1555 3021 1660 2854 
Q 1766 2688 1856 2547 
Q 1946 2406 1984 2342 
L 1818 2189 
Q 1779 2278 1696 2425 
Q 1613 2573 1513 2742 
Q 1414 2912 1331 3053 
Q 1248 3194 1197 3264 
L 1331 3354 
z
" transform="scale(0.015625)"/>
       <path id="NotoSansSC-Thin-478d" d="M 3104 1888 
L 3296 1888 
L 3296 -454 
L 3104 -454 
L 3104 1888 
z
M 378 1267 
L 6029 1267 
L 6029 1082 
L 378 1082 
L 378 1267 
z
M 467 4672 
L 6003 4672 
L 6003 4486 
L 467 4486 
L 467 4672 
z
M 5382 4115 
L 5549 4000 
Q 5325 3776 5049 3552 
Q 4774 3328 4531 3162 
L 4390 3277 
Q 4550 3386 4732 3533 
Q 4915 3680 5088 3833 
Q 5261 3987 5382 4115 
z
M 3539 2867 
L 3693 2963 
Q 3853 2810 4009 2624 
Q 4166 2438 4300 2262 
Q 4435 2086 4512 1946 
L 4346 1830 
Q 4275 1971 4144 2153 
Q 4013 2336 3856 2525 
Q 3699 2714 3539 2867 
z
M 461 2048 
Q 755 2189 1177 2406 
Q 1600 2624 2029 2854 
L 2080 2694 
Q 1690 2477 1296 2265 
Q 902 2054 576 1888 
L 461 2048 
z
M 653 3987 
L 794 4102 
Q 973 3994 1161 3859 
Q 1350 3725 1513 3590 
Q 1677 3456 1786 3341 
L 1638 3206 
Q 1536 3322 1373 3459 
Q 1210 3597 1021 3737 
Q 832 3878 653 3987 
z
M 4384 2714 
L 4544 2822 
Q 4768 2688 5008 2521 
Q 5248 2355 5465 2188 
Q 5683 2022 5824 1888 
L 5664 1766 
Q 5530 1901 5315 2067 
Q 5101 2234 4857 2403 
Q 4614 2573 4384 2714 
z
M 2118 3226 
Q 2112 3251 2102 3292 
Q 2093 3334 2080 3372 
Q 2067 3411 2054 3437 
Q 2118 3450 2185 3501 
Q 2253 3552 2330 3635 
Q 2387 3693 2515 3846 
Q 2643 4000 2796 4211 
Q 2950 4422 3066 4634 
L 3264 4550 
Q 3046 4198 2796 3891 
Q 2547 3584 2304 3360 
L 2304 3354 
Q 2304 3354 2275 3344 
Q 2246 3334 2211 3315 
Q 2176 3296 2147 3273 
Q 2118 3251 2118 3226 
z
M 2118 3226 
L 2118 3392 
L 2272 3475 
L 3590 3584 
Q 3571 3546 3555 3488 
Q 3539 3430 3526 3398 
Q 3085 3360 2819 3331 
Q 2554 3302 2413 3286 
Q 2272 3270 2211 3254 
Q 2150 3238 2118 3226 
z
M 1990 1952 
Q 1984 1978 1971 2016 
Q 1958 2054 1945 2096 
Q 1933 2138 1920 2170 
Q 2010 2182 2138 2272 
Q 2266 2362 2419 2496 
Q 2509 2566 2681 2729 
Q 2854 2893 3075 3113 
Q 3296 3334 3529 3593 
Q 3763 3853 3974 4122 
L 4166 4019 
Q 3680 3456 3177 2953 
Q 2675 2451 2176 2086 
L 2176 2080 
Q 2176 2080 2147 2070 
Q 2118 2061 2083 2041 
Q 2048 2022 2019 2000 
Q 1990 1978 1990 1952 
z
M 1990 1952 
L 1990 2118 
L 2150 2208 
L 4154 2387 
Q 4160 2342 4173 2291 
Q 4186 2240 4198 2208 
Q 3482 2138 3059 2096 
Q 2637 2054 2419 2028 
Q 2202 2003 2115 1987 
Q 2029 1971 1990 1952 
z
M 2950 5306 
L 3104 5370 
Q 3232 5210 3350 5008 
Q 3469 4806 3526 4659 
L 3360 4582 
Q 3302 4730 3184 4934 
Q 3066 5139 2950 5306 
z
" transform="scale(0.015625)"/>
      </defs>
      <use xlink:href="#NotoSansSC-Thin-63a8"/>
      <use xlink:href="#NotoSansSC-Thin-5316" transform="translate(100 0)"/>
      <use xlink:href="#NotoSansSC-Thin-63ad" transform="translate(200 0)"/>
      <use xlink:href="#NotoSansSC-Thin-3c1b" transform="translate(300 0)"/>
      <use xlink:href="#NotoSansSC-Thin-3d95" transform="translate(400 0)"/>
      <use xlink:href="#NotoSansSC-Thin-478d" transform="translate(500 0)"/>
     </g>
    </g>
   </g>
   <g id="line2d_21">
    <path d="M 35.109688 57.192901 
L 88.236378 53.695125 
L 141.363069 50.41428 
L 193.091689 47.433729 
L 244.820308 44.667018 
L 244.820308 44.667018 
" clip-path="url(#pff2dd628ac)" style="fill: none; stroke: #0072b2; stroke-width: 1.4; stroke-linecap: square"/>
    <defs>
     <path id="mfea44bc11d" d="M 0 3 
C 0.795609 3 1.55874 2.683901 2.12132 2.12132 
C 2.683901 1.55874 3 0.795609 3 0 
C 3 -0.795609 2.683901 -1.55874 2.12132 -2.12132 
C 1.55874 -2.683901 0.795609 -3 0 -3 
C -0.795609 -3 -1.55874 -2.683901 -2.12132 -2.12132 
C -2.683901 -1.55874 -3 -0.795609 -3 0 
C -3 0.795609 -2.683901 1.55874 -2.12132 2.12132 
C -1.55874 2.683901 -0.795609 3 0 3 
z
" style="stroke: #0072b2"/>
    </defs>
    <g clip-path="url(#pff2dd628ac)">
     <use xlink:href="#mfea44bc11d" x="35.109688" y="57.192901" style="fill: #0072b2; stroke: #0072b2"/>
     <use xlink:href="#mfea44bc11d" x="63.071104" y="55.325263" style="fill: #0072b2; stroke: #0072b2"/>
     <use xlink:href="#mfea44bc11d" x="91.03252" y="53.516986" style="fill: #0072b2; stroke: #0072b2"/>
     <use xlink:href="#mfea44bc11d" x="118.993936" y="51.76879" style="fill: #0072b2; stroke: #0072b2"/>
     <use xlink:href="#mfea44bc11d" x="146.955352" y="50.081762" style="fill: #0072b2; stroke: #0072b2"/>
     <use xlink:href="#mfea44bc11d" x="174.916768" y="48.456677" style="fill: #0072b2; stroke: #0072b2"/>
     <use xlink:href="#mfea44bc11d" x="202.878184" y="46.893773" style="fill: #0072b2; stroke: #0072b2"/>
     <use xlink:href="#mfea44bc11d" x="230.8396" y="45.393695" style="fill: #0072b2; stroke: #0072b2"/>
    </g>
   </g>
   <g id="line2d_22">
    <path d="M 35.109688 61.193815 
L 91.03252 57.281716 
L 145.557281 53.689415 
L 198.683972 50.40894 
L 244.820308 47.740586 
L 244.820308 47.740586 
" clip-path="url(#pff2dd628ac)" style="fill: none; stroke-dasharray: 5.18,2.24; stroke-dashoffset: 0; stroke: #e69f00; stroke-width: 1.4"/>
    <defs>
     <path id="m80f4239b7e" d="M -3 3 
L 3 3 
L 3 -3 
L -3 -3 
z
" style="stroke: #e69f00; stroke-linejoin: miter"/>
    </defs>
    <g clip-path="url(#pff2dd628ac)">
     <use xlink:href="#m80f4239b7e" x="35.109688" y="61.193815" style="fill: #e69f00; stroke: #e69f00; stroke-linejoin: miter"/>
     <use xlink:href="#m80f4239b7e" x="63.071104" y="59.209622" style="fill: #e69f00; stroke: #e69f00; stroke-linejoin: miter"/>
     <use xlink:href="#m80f4239b7e" x="91.03252" y="57.281716" style="fill: #e69f00; stroke: #e69f00; stroke-linejoin: miter"/>
     <use xlink:href="#m80f4239b7e" x="118.993936" y="55.411473" style="fill: #e69f00; stroke: #e69f00; stroke-linejoin: miter"/>
     <use xlink:href="#m80f4239b7e" x="146.955352" y="53.600181" style="fill: #e69f00; stroke: #e69f00; stroke-linejoin: miter"/>
     <use xlink:href="#m80f4239b7e" x="174.916768" y="51.84929" style="fill: #e69f00; stroke: #e69f00; stroke-linejoin: miter"/>
     <use xlink:href="#m80f4239b7e" x="202.878184" y="50.159352" style="fill: #e69f00; stroke: #e69f00; stroke-linejoin: miter"/>
     <use xlink:href="#m80f4239b7e" x="230.8396" y="48.531299" style="fill: #e69f00; stroke: #e69f00; stroke-linejoin: miter"/>
    </g>
   </g>
   <g id="line2d_23">
    <path d="M 35.109688 64.479786 
L 92.430591 60.293236 
L 148.353423 56.432111 
L 201.480113 52.979799 
L 244.820308 50.324829 
L 244.820308 50.324829 
" clip-path="url(#pff2dd628ac)" style="fill: none; stroke-dasharray: 8.96,2.24,1.4,2.24; stroke-dashoffset: 0; stroke: #009e73; stroke-width: 1.4"/>
    <defs>
     <path id="mfc8999bfde" d="M 0 -3 
L -3 3 
L 3 3 
z
" style="stroke: #009e73; stroke-linejoin: miter"/>
    </defs>
    <g clip-path="url(#pff2dd628ac)">
     <use xlink:href="#mfc8999bfde" x="35.109688" y="64.479786" style="fill: #009e73; stroke: #009e73; stroke-linejoin: miter"/>
     <use xlink:href="#mfc8999bfde" x="63.071104" y="62.409569" style="fill: #009e73; stroke: #009e73; stroke-linejoin: miter"/>
     <use xlink:href="#mfc8999bfde" x="91.03252" y="60.39271" style="fill: #009e73; stroke: #009e73; stroke-linejoin: miter"/>
     <use xlink:href="#mfc8999bfde" x="118.993936" y="58.430815" style="fill: #009e73; stroke: #009e73; stroke-linejoin: miter"/>
     <use xlink:href="#mfc8999bfde" x="146.955352" y="56.525814" style="fill: #009e73; stroke: #009e73; stroke-linejoin: miter"/>
     <use xlink:href="#mfc8999bfde" x="174.916768" y="54.679088" style="fill: #009e73; stroke: #009e73; stroke-linejoin: miter"/>
     <use xlink:href="#mfc8999bfde" x="202.878184" y="52.891743" style="fill: #009e73; stroke: #009e73; stroke-linejoin: miter"/>
     <use xlink:href="#mfc8999bfde" x="230.8396" y="51.165245" style="fill: #009e73; stroke: #009e73; stroke-linejoin: miter"/>
    </g>
   </g>
   <g id="line2d_24">
    <path d="M 35.109688 68.146151 
L 95.226732 63.571254 
L 152.547635 59.432674 
L 208.470467 55.621385 
L 244.820308 53.269734 
L 244.820308 53.269734 
" clip-path="url(#pff2dd628ac)" style="fill: none; stroke-dasharray: 1.4,2.31; stroke-dashoffset: 0; stroke: #cc79a7; stroke-width: 1.4"/>
    <defs>
     <path id="m7fa26b5df1" d="M 0 4.242641 
L 4.242641 0 
L 0 -4.242641 
L -4.242641 0 
z
" style="stroke: #cc79a7; stroke-linejoin: miter"/>
    </defs>
    <g clip-path="url(#pff2dd628ac)">
     <use xlink:href="#m7fa26b5df1" x="35.109688" y="68.146151" style="fill: #cc79a7; stroke: #cc79a7; stroke-linejoin: miter"/>
     <use xlink:href="#m7fa26b5df1" x="63.071104" y="65.989852" style="fill: #cc79a7; stroke: #cc79a7; stroke-linejoin: miter"/>
     <use xlink:href="#m7fa26b5df1" x="91.03252" y="63.882916" style="fill: #cc79a7; stroke: #cc79a7; stroke-linejoin: miter"/>
     <use xlink:href="#m7fa26b5df1" x="118.993936" y="61.827764" style="fill: #cc79a7; stroke: #cc79a7; stroke-linejoin: miter"/>
     <use xlink:href="#m7fa26b5df1" x="146.955352" y="59.826427" style="fill: #cc79a7; stroke: #cc79a7; stroke-linejoin: miter"/>
     <use xlink:href="#m7fa26b5df1" x="174.916768" y="57.880555" style="fill: #cc79a7; stroke: #cc79a7; stroke-linejoin: miter"/>
     <use xlink:href="#m7fa26b5df1" x="202.878184" y="55.992136" style="fill: #cc79a7; stroke: #cc79a7; stroke-linejoin: miter"/>
     <use xlink:href="#m7fa26b5df1" x="230.8396" y="54.162257" style="fill: #cc79a7; stroke: #cc79a7; stroke-linejoin: miter"/>
    </g>
   </g>
   <g id="line2d_25">
    <path d="M 35.109688 75.157319 
L 100.819015 69.832026 
L 160.93606 65.176744 
L 219.655034 60.854113 
L 244.820308 59.074378 
L 244.820308 59.074378 
" clip-path="url(#pff2dd628ac)" style="fill: none; stroke-dasharray: 7,2.8; stroke-dashoffset: 0; stroke: #56b4e9; stroke-width: 1.4"/>
    <defs>
     <path id="m0ec05f23ec" d="M -1 3 
L 1 3 
L 1 1 
L 3 1 
L 3 -1 
L 1 -1 
L 1 -3 
L -1 -3 
L -1 -1 
L -3 -1 
L -3 1 
L -1 1 
z
" style="stroke: #56b4e9; stroke-linejoin: miter"/>
    </defs>
    <g clip-path="url(#pff2dd628ac)">
     <use xlink:href="#m0ec05f23ec" x="35.109688" y="75.157319" style="fill: #56b4e9; stroke: #56b4e9; stroke-linejoin: miter"/>
     <use xlink:href="#m0ec05f23ec" x="63.071104" y="72.863166" style="fill: #56b4e9; stroke: #56b4e9; stroke-linejoin: miter"/>
     <use xlink:href="#m0ec05f23ec" x="91.03252" y="70.610225" style="fill: #56b4e9; stroke: #56b4e9; stroke-linejoin: miter"/>
     <use xlink:href="#m0ec05f23ec" x="118.993936" y="68.401441" style="fill: #56b4e9; stroke: #56b4e9; stroke-linejoin: miter"/>
     <use xlink:href="#m0ec05f23ec" x="146.955352" y="66.239465" style="fill: #56b4e9; stroke: #56b4e9; stroke-linejoin: miter"/>
     <use xlink:href="#m0ec05f23ec" x="174.916768" y="64.126573" style="fill: #56b4e9; stroke: #56b4e9; stroke-linejoin: miter"/>
     <use xlink:href="#m0ec05f23ec" x="202.878184" y="62.065344" style="fill: #56b4e9; stroke: #56b4e9; stroke-linejoin: miter"/>
     <use xlink:href="#m0ec05f23ec" x="230.8396" y="60.057569" style="fill: #56b4e9; stroke: #56b4e9; stroke-linejoin: miter"/>
    </g>
   </g>
   <g id="line2d_26">
    <path d="M 35.109688 59.076812 
L 244.820308 59.076812 
" clip-path="url(#pff2dd628ac)" style="fill: none; stroke-dasharray: 1.4,2.31; stroke-dashoffset: 0; stroke: #d55e00; stroke-width: 1.4"/>
   </g>
   <g id="patch_3">
    <path d="M 35.109688 201.99952 
L 35.109688 23.346135 
" style="fill: none; stroke: #000000; stroke-width: 0.7; stroke-linejoin: miter; stroke-linecap: square"/>
   </g>
   <g id="patch_4">
    <path d="M 35.109688 201.99952 
L 244.820308 201.99952 
" style="fill: none; stroke: #000000; stroke-width: 0.7; stroke-linejoin: miter; stroke-linecap: square"/>
   </g>
   <g id="text_17">
    <!-- a -->
    <g transform="translate(12.041519 15.12) scale(0.09 -0.09)">
     <defs>
      <path id="NotoSansSC-Thin-42" d="M 1395 -83 
Q 1133 -83 912 13 
Q 691 109 556 310 
Q 422 512 422 832 
Q 422 1395 953 1686 
Q 1485 1978 2624 2106 
Q 2637 2381 2576 2640 
Q 2515 2899 2336 3072 
Q 2157 3245 1805 3245 
Q 1446 3245 1158 3104 
Q 870 2963 704 2835 
L 589 3021 
Q 698 3098 880 3200 
Q 1062 3302 1302 3379 
Q 1542 3456 1818 3456 
Q 2214 3456 2441 3280 
Q 2669 3104 2761 2816 
Q 2854 2528 2854 2182 
L 2854 0 
L 2662 0 
L 2630 448 
L 2611 448 
Q 2355 237 2044 77 
Q 1734 -83 1395 -83 
z
M 1414 128 
Q 1715 128 2003 272 
Q 2291 416 2624 698 
L 2624 1907 
Q 1894 1830 1462 1686 
Q 1030 1542 844 1334 
Q 659 1126 659 838 
Q 659 448 883 288 
Q 1107 128 1414 128 
z
" transform="scale(0.015625)"/>
     </defs>
     <use xlink:href="#NotoSansSC-Thin-42"/>
    </g>
   </g>
   <g id="text_18">
    <!-- 主模型：纯线性，单调 -->
    <g transform="translate(94.964998 17.346135) scale(0.09 -0.09)">
     <defs>
      <path id="NotoSansSC-Thin-2273" d="M 710 3968 
L 5709 3968 
L 5709 3776 
L 710 3776 
L 710 3968 
z
M 960 2074 
L 5485 2074 
L 5485 1882 
L 960 1882 
L 960 2074 
z
M 390 -32 
L 6042 -32 
L 6042 -218 
L 390 -218 
L 390 -32 
z
M 3098 3866 
L 3290 3866 
L 3290 -115 
L 3098 -115 
L 3098 3866 
z
M 2573 5165 
L 2720 5254 
Q 2931 5094 3148 4899 
Q 3366 4704 3552 4512 
Q 3738 4320 3853 4166 
L 3699 4058 
Q 3590 4211 3404 4406 
Q 3219 4602 3001 4803 
Q 2784 5005 2573 5165 
z
" transform="scale(0.015625)"/>
      <path id="NotoSansSC-Thin-3e34" d="M 2227 4691 
L 6016 4691 
L 6016 4506 
L 2227 4506 
L 2227 4691 
z
M 2080 1235 
L 5978 1235 
L 5978 1050 
L 2080 1050 
L 2080 1235 
z
M 3354 5312 
L 3539 5312 
L 3539 3904 
L 3354 3904 
L 3354 5312 
z
M 4762 5312 
L 4947 5312 
L 4947 3904 
L 4762 3904 
L 4762 5312 
z
M 2765 2758 
L 2765 2112 
L 5459 2112 
L 5459 2758 
L 2765 2758 
z
M 2765 3584 
L 2765 2950 
L 5459 2950 
L 5459 3584 
L 2765 3584 
z
M 2579 3770 
L 5645 3770 
L 5645 1926 
L 2579 1926 
L 2579 3770 
z
M 3962 1971 
L 4154 1971 
Q 4096 1491 3974 1104 
Q 3853 717 3622 416 
Q 3392 115 3017 -99 
Q 2643 -314 2080 -454 
Q 2067 -422 2032 -374 
Q 1997 -326 1965 -301 
Q 2515 -173 2876 32 
Q 3238 237 3459 518 
Q 3680 800 3795 1165 
Q 3910 1530 3962 1971 
z
M 4198 1184 
Q 4416 614 4915 233 
Q 5414 -147 6099 -294 
Q 6080 -314 6054 -342 
Q 6029 -371 6009 -400 
Q 5990 -429 5971 -454 
Q 5274 -275 4762 128 
Q 4250 531 4026 1139 
L 4198 1184 
z
M 371 4038 
L 2208 4038 
L 2208 3853 
L 371 3853 
L 371 4038 
z
M 1274 5318 
L 1466 5318 
L 1466 -435 
L 1274 -435 
L 1274 5318 
z
M 1261 3987 
L 1440 3949 
Q 1370 3578 1261 3162 
Q 1152 2746 1017 2346 
Q 883 1946 736 1600 
Q 589 1254 435 1011 
Q 416 1037 390 1065 
Q 365 1094 339 1120 
Q 314 1146 288 1158 
Q 435 1389 582 1715 
Q 730 2042 861 2429 
Q 992 2816 1094 3216 
Q 1197 3616 1261 3987 
z
M 1459 3565 
Q 1510 3488 1616 3302 
Q 1722 3117 1843 2896 
Q 1965 2675 2067 2489 
Q 2170 2304 2208 2221 
L 2061 2054 
Q 2016 2163 1917 2364 
Q 1818 2566 1702 2790 
Q 1587 3014 1484 3200 
Q 1382 3386 1331 3469 
L 1459 3565 
z
" transform="scale(0.015625)"/>
      <path id="NotoSansSC-Thin-2bb3" d="M 710 5024 
L 3565 5024 
L 3565 4838 
L 710 4838 
L 710 5024 
z
M 506 3750 
L 3693 3750 
L 3693 3565 
L 506 3565 
L 506 3750 
z
M 307 -26 
L 6099 -26 
L 6099 -211 
L 307 -211 
L 307 -26 
z
M 992 1274 
L 5402 1274 
L 5402 1088 
L 992 1088 
L 992 1274 
z
M 2643 4928 
L 2829 4928 
L 2829 2054 
L 2643 2054 
L 2643 4928 
z
M 3181 2195 
L 3366 2195 
L 3366 -115 
L 3181 -115 
L 3181 2195 
z
M 4218 4954 
L 4403 4954 
L 4403 2835 
L 4218 2835 
L 4218 4954 
z
M 5434 5312 
L 5619 5312 
L 5619 2323 
Q 5619 2189 5580 2131 
Q 5542 2074 5434 2042 
Q 5325 2016 5101 2009 
Q 4877 2003 4525 2003 
Q 4518 2048 4496 2102 
Q 4474 2157 4442 2202 
Q 4774 2195 5001 2195 
Q 5229 2195 5306 2202 
Q 5389 2208 5411 2233 
Q 5434 2259 5434 2323 
L 5434 5312 
z
M 1408 4928 
L 1594 4928 
L 1594 3891 
Q 1594 3578 1523 3222 
Q 1453 2867 1254 2524 
Q 1056 2182 666 1901 
Q 653 1926 627 1952 
Q 602 1978 576 2003 
Q 550 2029 531 2042 
Q 909 2310 1094 2627 
Q 1280 2944 1344 3270 
Q 1408 3597 1408 3891 
L 1408 4928 
z
" transform="scale(0.015625)"/>
      <path id="NotoSansSC-Thin-775c" d="M 1600 3213 
Q 1466 3213 1354 3302 
Q 1242 3392 1242 3571 
Q 1242 3750 1354 3840 
Q 1466 3930 1600 3930 
Q 1734 3930 1846 3840 
Q 1958 3750 1958 3571 
Q 1958 3392 1846 3302 
Q 1734 3213 1600 3213 
z
M 1600 0 
Q 1466 0 1354 89 
Q 1242 179 1242 358 
Q 1242 538 1354 627 
Q 1466 717 1600 717 
Q 1734 717 1846 627 
Q 1958 538 1958 358 
Q 1958 179 1846 89 
Q 1734 0 1600 0 
z
" transform="scale(0.015625)"/>
      <path id="NotoSansSC-Thin-52ad" d="M 461 1248 
Q 454 1274 441 1312 
Q 429 1350 416 1392 
Q 403 1434 390 1459 
Q 480 1472 598 1590 
Q 717 1709 864 1888 
Q 947 1978 1113 2179 
Q 1280 2381 1488 2659 
Q 1696 2938 1910 3264 
Q 2125 3590 2310 3917 
L 2490 3827 
Q 2061 3136 1587 2496 
Q 1114 1856 634 1382 
L 634 1376 
Q 634 1376 608 1366 
Q 582 1357 547 1337 
Q 512 1318 486 1296 
Q 461 1274 461 1248 
z
M 461 1248 
L 461 1427 
L 608 1530 
L 2509 1901 
Q 2509 1862 2515 1814 
Q 2522 1766 2528 1734 
Q 1856 1594 1462 1507 
Q 1069 1421 864 1373 
Q 659 1325 579 1299 
Q 499 1274 461 1248 
z
M 422 2765 
Q 416 2790 406 2828 
Q 397 2867 384 2905 
Q 371 2944 352 2970 
Q 422 2982 508 3097 
Q 595 3213 698 3386 
Q 755 3469 867 3661 
Q 979 3853 1113 4115 
Q 1248 4378 1385 4678 
Q 1523 4979 1632 5280 
L 1811 5203 
Q 1645 4787 1446 4371 
Q 1248 3955 1033 3580 
Q 819 3206 595 2906 
L 595 2899 
Q 595 2899 569 2886 
Q 544 2874 509 2854 
Q 474 2835 448 2812 
Q 422 2790 422 2765 
z
M 422 2765 
L 422 2944 
L 570 3034 
L 1926 3206 
Q 1920 3162 1923 3114 
Q 1926 3066 1926 3034 
Q 1453 2963 1168 2918 
Q 883 2874 732 2845 
Q 582 2816 518 2800 
Q 454 2784 422 2765 
z
M 358 243 
Q 634 307 995 390 
Q 1357 474 1766 570 
Q 2176 666 2592 768 
L 2605 589 
Q 2003 448 1424 304 
Q 845 160 403 51 
L 358 243 
z
M 5491 3430 
L 5677 3430 
L 5677 838 
L 5491 838 
L 5491 3430 
z
M 4166 5299 
L 4352 5299 
L 4352 250 
Q 4352 -128 4486 -192 
Q 4557 -211 4624 -220 
Q 4691 -230 4774 -230 
Q 4864 -230 5030 -230 
Q 5197 -230 5312 -230 
Q 5421 -230 5523 -224 
Q 5626 -218 5677 -198 
Q 5728 -186 5782 -147 
Q 5837 -109 5856 -32 
Q 5869 45 5878 208 
Q 5888 371 5894 608 
Q 5939 576 5993 553 
Q 6048 531 6093 518 
Q 6086 333 6070 125 
Q 6054 -83 6022 -154 
Q 5997 -250 5936 -301 
Q 5875 -352 5798 -378 
Q 5709 -403 5584 -409 
Q 5459 -416 5331 -416 
Q 5286 -416 5171 -416 
Q 5056 -416 4941 -416 
Q 4826 -416 4781 -416 
Q 4678 -416 4563 -403 
Q 4448 -390 4352 -352 
Q 4288 -320 4246 -259 
Q 4205 -198 4185 -57 
Q 4166 83 4166 346 
L 4166 5299 
z
M 2630 4365 
L 6022 4365 
L 6022 4179 
L 2630 4179 
L 2630 4365 
z
M 2829 3424 
L 3021 3424 
L 3021 1638 
L 5600 1638 
L 5600 1453 
L 2829 1453 
L 2829 3424 
z
" transform="scale(0.015625)"/>
      <path id="NotoSansSC-Thin-52bd" d="M 486 1248 
Q 480 1274 467 1312 
Q 454 1350 441 1392 
Q 429 1434 416 1459 
Q 499 1472 611 1593 
Q 723 1715 864 1894 
Q 941 1984 1097 2185 
Q 1254 2387 1449 2665 
Q 1645 2944 1846 3270 
Q 2048 3597 2221 3923 
L 2406 3827 
Q 2010 3149 1565 2505 
Q 1120 1862 666 1389 
L 666 1382 
Q 666 1382 640 1369 
Q 614 1357 576 1337 
Q 538 1318 512 1296 
Q 486 1274 486 1248 
z
M 486 1248 
L 486 1427 
L 634 1530 
L 2381 1869 
Q 2381 1830 2387 1782 
Q 2394 1734 2400 1702 
Q 1786 1574 1418 1494 
Q 1050 1414 861 1369 
Q 672 1325 598 1299 
Q 525 1274 486 1248 
z
M 448 2765 
Q 442 2790 429 2828 
Q 416 2867 403 2908 
Q 390 2950 378 2976 
Q 448 2989 534 3104 
Q 621 3219 723 3386 
Q 774 3475 883 3667 
Q 992 3859 1126 4121 
Q 1261 4384 1395 4685 
Q 1530 4986 1632 5286 
L 1818 5203 
Q 1651 4787 1456 4371 
Q 1261 3955 1049 3580 
Q 838 3206 621 2906 
L 621 2899 
Q 621 2899 595 2886 
Q 570 2874 534 2854 
Q 499 2835 473 2812 
Q 448 2790 448 2765 
z
M 448 2765 
L 448 2944 
L 589 3034 
L 1818 3187 
Q 1811 3142 1814 3091 
Q 1818 3040 1824 3014 
Q 1395 2950 1136 2908 
Q 877 2867 739 2841 
Q 602 2816 541 2800 
Q 480 2784 448 2765 
z
M 384 243 
Q 646 301 982 381 
Q 1318 461 1699 550 
Q 2080 640 2470 736 
L 2490 550 
Q 1933 416 1389 288 
Q 845 160 429 51 
L 384 243 
z
M 2778 3712 
L 5741 4147 
L 5773 3974 
L 2810 3539 
L 2778 3712 
z
M 2656 2342 
L 5926 2970 
L 5965 2790 
L 2694 2163 
L 2656 2342 
z
M 3821 5312 
L 4006 5312 
Q 4006 4454 4051 3712 
Q 4096 2970 4182 2352 
Q 4269 1734 4397 1254 
Q 4525 774 4697 444 
Q 4870 115 5091 -57 
Q 5312 -230 5581 -230 
Q 5696 -230 5763 -169 
Q 5830 -109 5865 54 
Q 5901 218 5914 525 
Q 5946 499 6000 476 
Q 6054 454 6086 442 
Q 6067 122 6016 -67 
Q 5965 -256 5859 -336 
Q 5754 -416 5568 -416 
Q 5254 -416 5004 -227 
Q 4755 -38 4563 323 
Q 4371 685 4233 1190 
Q 4096 1696 4006 2336 
Q 3917 2976 3872 3725 
Q 3827 4474 3821 5312 
z
M 4493 5011 
L 4602 5139 
Q 4787 5075 4985 4985 
Q 5184 4896 5360 4797 
Q 5536 4698 5645 4602 
L 5549 4454 
Q 5370 4595 5072 4752 
Q 4774 4909 4493 5011 
z
M 5837 2214 
L 5997 2131 
Q 5658 1606 5139 1139 
Q 4621 672 3977 301 
Q 3334 -70 2618 -314 
Q 2592 -282 2553 -234 
Q 2515 -186 2483 -154 
Q 3200 77 3840 435 
Q 4480 794 4992 1248 
Q 5504 1702 5837 2214 
z
" transform="scale(0.015625)"/>
      <path id="NotoSansSC-Thin-3443" d="M 1248 5318 
L 1440 5318 
L 1440 -435 
L 1248 -435 
L 1248 5318 
z
M 608 4115 
L 787 4083 
Q 768 3840 723 3542 
Q 678 3245 608 2953 
Q 538 2662 442 2438 
L 256 2496 
Q 352 2707 422 2988 
Q 493 3270 541 3568 
Q 589 3866 608 4115 
z
M 1683 4243 
L 1837 4314 
Q 1997 4045 2137 3728 
Q 2278 3411 2336 3206 
L 2170 3104 
Q 2131 3251 2054 3446 
Q 1978 3642 1882 3853 
Q 1786 4064 1683 4243 
z
M 3085 5018 
L 3277 4979 
Q 3174 4525 3033 4089 
Q 2893 3654 2726 3273 
Q 2560 2893 2368 2592 
Q 2349 2605 2317 2624 
Q 2285 2643 2249 2659 
Q 2214 2675 2189 2688 
Q 2394 2982 2563 3356 
Q 2733 3731 2864 4156 
Q 2995 4582 3085 5018 
z
M 2867 3898 
L 5869 3898 
L 5869 3706 
L 2790 3706 
L 2867 3898 
z
M 4064 5306 
L 4262 5306 
L 4262 -109 
L 4064 -109 
L 4064 5306 
z
M 2586 2093 
L 5722 2093 
L 5722 1907 
L 2586 1907 
L 2586 2093 
z
M 2106 -13 
L 5978 -13 
L 5978 -198 
L 2106 -198 
L 2106 -13 
z
" transform="scale(0.015625)"/>
      <path id="NotoSansSC-Thin-7443" d="M 774 -486 
L 691 -326 
Q 1075 -128 1276 147 
Q 1478 422 1478 870 
L 1286 1318 
L 1626 922 
Q 1562 826 1482 800 
Q 1402 774 1325 774 
Q 1171 774 1075 854 
Q 979 934 979 1114 
Q 979 1299 1084 1379 
Q 1190 1459 1318 1459 
Q 1517 1459 1619 1296 
Q 1722 1133 1722 864 
Q 1722 371 1456 28 
Q 1190 -314 774 -486 
z
" transform="scale(0.015625)"/>
      <path id="NotoSansSC-Thin-2786" d="M 3085 4115 
L 3283 4115 
L 3283 -454 
L 3085 -454 
L 3085 4115 
z
M 1210 2893 
L 1210 1952 
L 5242 1952 
L 5242 2893 
L 1210 2893 
z
M 1210 4006 
L 1210 3078 
L 5242 3078 
L 5242 4006 
L 1210 4006 
z
M 1024 4198 
L 5434 4198 
L 5434 1766 
L 1024 1766 
L 1024 4198 
z
M 384 973 
L 6035 973 
L 6035 787 
L 384 787 
L 384 973 
z
M 1632 5203 
L 1786 5286 
Q 1990 5062 2195 4790 
Q 2400 4518 2496 4320 
L 2342 4218 
Q 2240 4416 2038 4697 
Q 1837 4979 1632 5203 
z
M 4710 5306 
L 4896 5216 
Q 4717 4922 4489 4595 
Q 4262 4269 4064 4038 
L 3923 4122 
Q 4051 4275 4198 4486 
Q 4346 4698 4483 4915 
Q 4621 5133 4710 5306 
z
" transform="scale(0.015625)"/>
      <path id="NotoSansSC-Thin-5ff5" d="M 2522 4966 
L 2714 4966 
L 2714 2682 
Q 2714 2323 2688 1913 
Q 2662 1504 2588 1088 
Q 2515 672 2371 278 
Q 2227 -115 1984 -442 
Q 1971 -429 1939 -413 
Q 1907 -397 1878 -377 
Q 1850 -358 1824 -352 
Q 2144 90 2291 614 
Q 2438 1139 2480 1676 
Q 2522 2214 2522 2682 
L 2522 4966 
z
M 2669 4966 
L 5722 4966 
L 5722 4781 
L 2669 4781 
L 2669 4966 
z
M 5664 4966 
L 5856 4966 
L 5856 -96 
Q 5856 -230 5811 -294 
Q 5766 -358 5664 -390 
Q 5568 -410 5363 -416 
Q 5158 -422 4806 -416 
Q 4800 -390 4787 -358 
Q 4774 -326 4758 -291 
Q 4742 -256 4723 -230 
Q 5024 -237 5245 -237 
Q 5466 -237 5530 -237 
Q 5664 -230 5664 -102 
L 5664 4966 
z
M 3213 3866 
L 5139 3866 
L 5139 3674 
L 3213 3674 
L 3213 3866 
z
M 3046 2797 
L 5338 2797 
L 5338 2611 
L 3046 2611 
L 3046 2797 
z
M 4070 4518 
L 4262 4518 
L 4262 2682 
L 4070 2682 
L 4070 4518 
z
M 3366 1946 
L 4992 1946 
L 4992 544 
L 3366 544 
L 3366 736 
L 4806 736 
L 4806 1760 
L 3366 1760 
L 3366 1946 
z
M 3283 1946 
L 3469 1946 
L 3469 250 
L 3283 250 
L 3283 1946 
z
M 832 5005 
L 973 5120 
Q 1146 4979 1325 4809 
Q 1504 4640 1657 4473 
Q 1811 4307 1907 4179 
L 1766 4038 
Q 1670 4173 1513 4342 
Q 1357 4512 1177 4688 
Q 998 4864 832 5005 
z
M 1190 -205 
L 1184 -6 
L 1286 147 
L 2157 717 
Q 2170 678 2192 633 
Q 2214 589 2227 557 
Q 1914 339 1718 201 
Q 1523 64 1417 -13 
Q 1312 -90 1264 -131 
Q 1216 -173 1190 -205 
z
M 333 3270 
L 1446 3270 
L 1446 3078 
L 333 3078 
L 333 3270 
z
M 1190 -205 
Q 1178 -179 1155 -150 
Q 1133 -122 1107 -93 
Q 1082 -64 1056 -45 
Q 1107 -13 1180 60 
Q 1254 134 1315 243 
Q 1376 352 1376 493 
L 1376 3270 
L 1562 3270 
L 1562 198 
Q 1562 198 1523 166 
Q 1485 134 1430 86 
Q 1376 38 1321 -19 
Q 1267 -77 1228 -125 
Q 1190 -173 1190 -205 
z
" transform="scale(0.015625)"/>
     </defs>
     <use xlink:href="#NotoSansSC-Thin-2273"/>
     <use xlink:href="#NotoSansSC-Thin-3e34" transform="translate(100 0)"/>
     <use xlink:href="#NotoSansSC-Thin-2bb3" transform="translate(200 0)"/>
     <use xlink:href="#NotoSansSC-Thin-775c" transform="translate(300 0)"/>
     <use xlink:href="#NotoSansSC-Thin-52ad" transform="translate(400 0)"/>
     <use xlink:href="#NotoSansSC-Thin-52bd" transform="translate(500 0)"/>
     <use xlink:href="#NotoSansSC-Thin-3443" transform="translate(600 0)"/>
     <use xlink:href="#NotoSansSC-Thin-7443" transform="translate(700 0)"/>
     <use xlink:href="#NotoSansSC-Thin-2786" transform="translate(800 0)"/>
     <use xlink:href="#NotoSansSC-Thin-5ff5" transform="translate(900 0)"/>
    </g>
   </g>
   <g id="legend_1">
    <g id="line2d_27">
     <path d="M 41.409688 150.40952 
L 48.409688 150.40952 
L 55.409688 150.40952 
" style="fill: none; stroke: #0072b2; stroke-width: 1.4; stroke-linecap: square"/>
     <g>
      <use xlink:href="#mfea44bc11d" x="48.409688" y="150.40952" style="fill: #0072b2; stroke: #0072b2"/>
     </g>
    </g>
    <g id="text_19">
     <!-- G1 -->
     <g transform="translate(61.009688 152.85952) scale(0.07 -0.07)">
      <defs>
       <path id="NotoSansSC-Thin-28" d="M 2355 -83 
Q 1766 -83 1324 217 
Q 883 518 640 1062 
Q 397 1606 397 2336 
Q 397 2886 541 3328 
Q 685 3770 953 4083 
Q 1222 4397 1593 4563 
Q 1965 4730 2426 4730 
Q 2893 4730 3190 4550 
Q 3488 4371 3667 4179 
L 3520 4019 
Q 3341 4218 3078 4362 
Q 2816 4506 2426 4506 
Q 1875 4506 1475 4240 
Q 1075 3974 860 3488 
Q 646 3002 646 2336 
Q 646 1670 854 1177 
Q 1062 685 1449 413 
Q 1837 141 2374 141 
Q 2707 141 3001 240 
Q 3296 339 3469 512 
L 3469 2035 
L 2323 2035 
L 2323 2246 
L 3718 2246 
L 3718 435 
Q 3501 205 3155 61 
Q 2810 -83 2355 -83 
z
" transform="scale(0.015625)"/>
       <path id="NotoSansSC-Thin-7760" d="M 608 0 
L 608 211 
L 1677 211 
L 1677 4070 
L 864 4070 
L 864 4237 
Q 1133 4282 1344 4352 
Q 1555 4422 1702 4506 
L 1901 4506 
L 1901 211 
L 2899 211 
L 2899 0 
L 608 0 
z
" transform="scale(0.015625)"/>
      </defs>
      <use xlink:href="#NotoSansSC-Thin-28"/>
      <use xlink:href="#NotoSansSC-Thin-7760" transform="translate(66.09375 0)"/>
     </g>
    </g>
    <g id="line2d_28">
     <path d="M 41.409688 160.90952 
L 48.409688 160.90952 
L 55.409688 160.90952 
" style="fill: none; stroke-dasharray: 5.18,2.24; stroke-dashoffset: 0; stroke: #e69f00; stroke-width: 1.4"/>
     <g>
      <use xlink:href="#m80f4239b7e" x="48.409688" y="160.90952" style="fill: #e69f00; stroke: #e69f00; stroke-linejoin: miter"/>
     </g>
    </g>
    <g id="text_20">
     <!-- G2 -->
     <g transform="translate(61.009688 163.35952) scale(0.07 -0.07)">
      <defs>
       <path id="NotoSansSC-Thin-7761" d="M 294 0 
L 294 147 
Q 1056 928 1552 1494 
Q 2048 2061 2294 2505 
Q 2541 2950 2541 3354 
Q 2541 3642 2435 3875 
Q 2330 4109 2106 4246 
Q 1882 4384 1523 4384 
Q 1210 4384 931 4214 
Q 653 4045 442 3782 
L 282 3930 
Q 525 4211 829 4400 
Q 1133 4589 1542 4589 
Q 1939 4589 2214 4435 
Q 2490 4282 2637 4003 
Q 2784 3725 2784 3354 
Q 2784 2899 2521 2432 
Q 2259 1965 1779 1421 
Q 1299 877 640 179 
Q 826 192 1021 201 
Q 1216 211 1402 211 
L 3014 211 
L 3014 0 
L 294 0 
z
" transform="scale(0.015625)"/>
      </defs>
      <use xlink:href="#NotoSansSC-Thin-28"/>
      <use xlink:href="#NotoSansSC-Thin-7761" transform="translate(66.09375 0)"/>
     </g>
    </g>
    <g id="line2d_29">
     <path d="M 41.409688 171.40952 
L 48.409688 171.40952 
L 55.409688 171.40952 
" style="fill: none; stroke-dasharray: 8.96,2.24,1.4,2.24; stroke-dashoffset: 0; stroke: #009e73; stroke-width: 1.4"/>
     <g>
      <use xlink:href="#mfc8999bfde" x="48.409688" y="171.40952" style="fill: #009e73; stroke: #009e73; stroke-linejoin: miter"/>
     </g>
    </g>
    <g id="text_21">
     <!-- G3 -->
     <g transform="translate(61.009688 173.85952) scale(0.07 -0.07)">
      <defs>
       <path id="NotoSansSC-Thin-7762" d="M 1619 -83 
Q 1261 -83 998 13 
Q 736 109 544 256 
Q 352 403 211 550 
L 358 717 
Q 563 499 857 313 
Q 1152 128 1632 128 
Q 1952 128 2198 259 
Q 2445 390 2585 624 
Q 2726 858 2726 1171 
Q 2726 1498 2560 1741 
Q 2394 1984 2038 2121 
Q 1683 2259 1114 2259 
L 1114 2483 
Q 1651 2483 1964 2620 
Q 2278 2758 2416 2992 
Q 2554 3226 2554 3507 
Q 2554 3904 2298 4144 
Q 2042 4384 1606 4384 
Q 1293 4384 1017 4237 
Q 742 4090 557 3878 
L 410 4038 
Q 634 4262 925 4425 
Q 1216 4589 1606 4589 
Q 1939 4589 2211 4464 
Q 2483 4339 2643 4099 
Q 2803 3859 2803 3520 
Q 2803 3066 2550 2790 
Q 2298 2515 1926 2394 
L 1926 2368 
Q 2208 2310 2445 2153 
Q 2682 1997 2826 1753 
Q 2970 1510 2970 1184 
Q 2970 794 2790 512 
Q 2611 230 2307 73 
Q 2003 -83 1619 -83 
z
" transform="scale(0.015625)"/>
      </defs>
      <use xlink:href="#NotoSansSC-Thin-28"/>
      <use xlink:href="#NotoSansSC-Thin-7762" transform="translate(66.09375 0)"/>
     </g>
    </g>
    <g id="line2d_30">
     <path d="M 41.409688 181.90952 
L 48.409688 181.90952 
L 55.409688 181.90952 
" style="fill: none; stroke-dasharray: 1.4,2.31; stroke-dashoffset: 0; stroke: #cc79a7; stroke-width: 1.4"/>
     <g>
      <use xlink:href="#m7fa26b5df1" x="48.409688" y="181.90952" style="fill: #cc79a7; stroke: #cc79a7; stroke-linejoin: miter"/>
     </g>
    </g>
    <g id="text_22">
     <!-- G4 -->
     <g transform="translate(61.009688 184.35952) scale(0.07 -0.07)">
      <defs>
       <path id="NotoSansSC-Thin-7763" d="M 2195 0 
L 2195 3341 
Q 2195 3488 2204 3715 
Q 2214 3942 2227 4090 
L 2195 4090 
Q 2112 3955 2019 3827 
Q 1926 3699 1830 3552 
L 422 1581 
L 3110 1581 
L 3110 1376 
L 115 1376 
L 115 1498 
L 2259 4506 
L 2419 4506 
L 2419 0 
L 2195 0 
z
" transform="scale(0.015625)"/>
      </defs>
      <use xlink:href="#NotoSansSC-Thin-28"/>
      <use xlink:href="#NotoSansSC-Thin-7763" transform="translate(66.09375 0)"/>
     </g>
    </g>
    <g id="line2d_31">
     <path d="M 41.409688 192.40952 
L 48.409688 192.40952 
L 55.409688 192.40952 
" style="fill: none; stroke-dasharray: 7,2.8; stroke-dashoffset: 0; stroke: #56b4e9; stroke-width: 1.4"/>
     <g>
      <use xlink:href="#m0ec05f23ec" x="48.409688" y="192.40952" style="fill: #56b4e9; stroke: #56b4e9; stroke-linejoin: miter"/>
     </g>
    </g>
    <g id="text_23">
     <!-- G5 -->
     <g transform="translate(61.009688 194.85952) scale(0.07 -0.07)">
      <defs>
       <path id="NotoSansSC-Thin-7764" d="M 1581 -83 
Q 1222 -83 963 9 
Q 704 102 515 240 
Q 326 378 186 518 
L 333 691 
Q 467 550 636 422 
Q 806 294 1040 211 
Q 1274 128 1594 128 
Q 1901 128 2166 288 
Q 2432 448 2592 733 
Q 2752 1018 2752 1395 
Q 2752 1965 2441 2288 
Q 2131 2611 1606 2611 
Q 1350 2611 1152 2524 
Q 954 2438 755 2304 
L 563 2419 
L 730 4506 
L 2758 4506 
L 2758 4294 
L 941 4294 
L 787 2586 
Q 966 2694 1168 2761 
Q 1370 2829 1626 2829 
Q 2010 2829 2320 2678 
Q 2630 2528 2812 2214 
Q 2995 1901 2995 1408 
Q 2995 928 2787 595 
Q 2579 262 2256 89 
Q 1933 -83 1581 -83 
z
" transform="scale(0.015625)"/>
      </defs>
      <use xlink:href="#NotoSansSC-Thin-28"/>
      <use xlink:href="#NotoSansSC-Thin-7764" transform="translate(66.09375 0)"/>
     </g>
    </g>
   </g>
  </g>
  <g id="axes_2">
   <g id="patch_5">
    <path d="M 273.888899 201.99952 
L 483.59952 201.99952 
L 483.59952 23.346135 
L 273.888899 23.346135 
z
" style="fill: #ffffff"/>
   </g>
   <g id="matplotlib.axis_3">
    <g id="xtick_9">
     <g id="line2d_32">
      <g>
       <use xlink:href="#mbb4da243cb" x="273.888899" y="201.99952" style="stroke: #000000; stroke-width: 0.8"/>
      </g>
     </g>
     <g id="text_24">
      <!-- 10 -->
      <g transform="translate(270.242337 215.15952) scale(0.07 -0.07)">
       <use xlink:href="#NotoSansSC-Thin-12"/>
       <use xlink:href="#NotoSansSC-Thin-11" transform="translate(52.09375 0)"/>
      </g>
     </g>
    </g>
    <g id="xtick_10">
     <g id="line2d_33">
      <g>
       <use xlink:href="#mbb4da243cb" x="301.850315" y="201.99952" style="stroke: #000000; stroke-width: 0.8"/>
      </g>
     </g>
     <g id="text_25">
      <!-- 12 -->
      <g transform="translate(298.203753 215.15952) scale(0.07 -0.07)">
       <use xlink:href="#NotoSansSC-Thin-12"/>
       <use xlink:href="#NotoSansSC-Thin-13" transform="translate(52.09375 0)"/>
      </g>
     </g>
    </g>
    <g id="xtick_11">
     <g id="line2d_34">
      <g>
       <use xlink:href="#mbb4da243cb" x="329.811731" y="201.99952" style="stroke: #000000; stroke-width: 0.8"/>
      </g>
     </g>
     <g id="text_26">
      <!-- 14 -->
      <g transform="translate(326.165169 215.15952) scale(0.07 -0.07)">
       <use xlink:href="#NotoSansSC-Thin-12"/>
       <use xlink:href="#NotoSansSC-Thin-15" transform="translate(52.09375 0)"/>
      </g>
     </g>
    </g>
    <g id="xtick_12">
     <g id="line2d_35">
      <g>
       <use xlink:href="#mbb4da243cb" x="357.773147" y="201.99952" style="stroke: #000000; stroke-width: 0.8"/>
      </g>
     </g>
     <g id="text_27">
      <!-- 16 -->
      <g transform="translate(354.126585 215.15952) scale(0.07 -0.07)">
       <use xlink:href="#NotoSansSC-Thin-12"/>
       <use xlink:href="#NotoSansSC-Thin-17" transform="translate(52.09375 0)"/>
      </g>
     </g>
    </g>
    <g id="xtick_13">
     <g id="line2d_36">
      <g>
       <use xlink:href="#mbb4da243cb" x="385.734564" y="201.99952" style="stroke: #000000; stroke-width: 0.8"/>
      </g>
     </g>
     <g id="text_28">
      <!-- 18 -->
      <g transform="translate(382.088001 215.15952) scale(0.07 -0.07)">
       <use xlink:href="#NotoSansSC-Thin-12"/>
       <use xlink:href="#NotoSansSC-Thin-19" transform="translate(52.09375 0)"/>
      </g>
     </g>
    </g>
    <g id="xtick_14">
     <g id="line2d_37">
      <g>
       <use xlink:href="#mbb4da243cb" x="413.69598" y="201.99952" style="stroke: #000000; stroke-width: 0.8"/>
      </g>
     </g>
     <g id="text_29">
      <!-- 20 -->
      <g transform="translate(410.049417 215.15952) scale(0.07 -0.07)">
       <use xlink:href="#NotoSansSC-Thin-13"/>
       <use xlink:href="#NotoSansSC-Thin-11" transform="translate(52.09375 0)"/>
      </g>
     </g>
    </g>
    <g id="xtick_15">
     <g id="line2d_38">
      <g>
       <use xlink:href="#mbb4da243cb" x="441.657396" y="201.99952" style="stroke: #000000; stroke-width: 0.8"/>
      </g>
     </g>
     <g id="text_30">
      <!-- 22 -->
      <g transform="translate(438.010833 215.15952) scale(0.07 -0.07)">
       <use xlink:href="#NotoSansSC-Thin-13"/>
       <use xlink:href="#NotoSansSC-Thin-13" transform="translate(52.09375 0)"/>
      </g>
     </g>
    </g>
    <g id="xtick_16">
     <g id="line2d_39">
      <g>
       <use xlink:href="#mbb4da243cb" x="469.618812" y="201.99952" style="stroke: #000000; stroke-width: 0.8"/>
      </g>
     </g>
     <g id="text_31">
      <!-- 24 -->
      <g transform="translate(465.972249 215.15952) scale(0.07 -0.07)">
       <use xlink:href="#NotoSansSC-Thin-13"/>
       <use xlink:href="#NotoSansSC-Thin-15" transform="translate(52.09375 0)"/>
      </g>
     </g>
    </g>
    <g id="text_32">
     <!-- 检测孕周（周） -->
     <g transform="translate(350.74421 227.03952) scale(0.08 -0.08)">
      <use xlink:href="#NotoSansSC-Thin-3cd4"/>
      <use xlink:href="#NotoSansSC-Thin-415c" transform="translate(100 0)"/>
      <use xlink:href="#NotoSansSC-Thin-2f77" transform="translate(200 0)"/>
      <use xlink:href="#NotoSansSC-Thin-2896" transform="translate(300 0)"/>
      <use xlink:href="#NotoSansSC-Thin-743f" transform="translate(400 0)"/>
      <use xlink:href="#NotoSansSC-Thin-2896" transform="translate(500 0)"/>
      <use xlink:href="#NotoSansSC-Thin-7440" transform="translate(600 0)"/>
     </g>
    </g>
   </g>
   <g id="matplotlib.axis_4">
    <g id="ytick_7">
     <g id="line2d_40">
      <path d="M 273.888899 201.99952 
L 483.59952 201.99952 
" clip-path="url(#p3839e644e1)" style="fill: none; stroke: #d8d8d8; stroke-opacity: 0.7; stroke-width: 0.5; stroke-linecap: square"/>
     </g>
     <g id="line2d_41">
      <g>
       <use xlink:href="#m69b2492463" x="273.888899" y="201.99952" style="stroke: #000000; stroke-width: 0.8"/>
      </g>
     </g>
    </g>
    <g id="ytick_8">
     <g id="line2d_42">
      <path d="M 273.888899 166.268843 
L 483.59952 166.268843 
" clip-path="url(#p3839e644e1)" style="fill: none; stroke: #d8d8d8; stroke-opacity: 0.7; stroke-width: 0.5; stroke-linecap: square"/>
     </g>
     <g id="line2d_43">
      <g>
       <use xlink:href="#m69b2492463" x="273.888899" y="166.268843" style="stroke: #000000; stroke-width: 0.8"/>
      </g>
     </g>
    </g>
    <g id="ytick_9">
     <g id="line2d_44">
      <path d="M 273.888899 130.538166 
L 483.59952 130.538166 
" clip-path="url(#p3839e644e1)" style="fill: none; stroke: #d8d8d8; stroke-opacity: 0.7; stroke-width: 0.5; stroke-linecap: square"/>
     </g>
     <g id="line2d_45">
      <g>
       <use xlink:href="#m69b2492463" x="273.888899" y="130.538166" style="stroke: #000000; stroke-width: 0.8"/>
      </g>
     </g>
    </g>
    <g id="ytick_10">
     <g id="line2d_46">
      <path d="M 273.888899 94.807489 
L 483.59952 94.807489 
" clip-path="url(#p3839e644e1)" style="fill: none; stroke: #d8d8d8; stroke-opacity: 0.7; stroke-width: 0.5; stroke-linecap: square"/>
     </g>
     <g id="line2d_47">
      <g>
       <use xlink:href="#m69b2492463" x="273.888899" y="94.807489" style="stroke: #000000; stroke-width: 0.8"/>
      </g>
     </g>
    </g>
    <g id="ytick_11">
     <g id="line2d_48">
      <path d="M 273.888899 59.076812 
L 483.59952 59.076812 
" clip-path="url(#p3839e644e1)" style="fill: none; stroke: #d8d8d8; stroke-opacity: 0.7; stroke-width: 0.5; stroke-linecap: square"/>
     </g>
     <g id="line2d_49">
      <g>
       <use xlink:href="#m69b2492463" x="273.888899" y="59.076812" style="stroke: #000000; stroke-width: 0.8"/>
      </g>
     </g>
    </g>
    <g id="ytick_12">
     <g id="line2d_50">
      <path d="M 273.888899 23.346135 
L 483.59952 23.346135 
" clip-path="url(#p3839e644e1)" style="fill: none; stroke: #d8d8d8; stroke-opacity: 0.7; stroke-width: 0.5; stroke-linecap: square"/>
     </g>
     <g id="line2d_51">
      <g>
       <use xlink:href="#m69b2492463" x="273.888899" y="23.346135" style="stroke: #000000; stroke-width: 0.8"/>
      </g>
     </g>
    </g>
    <g id="text_33">
     <!-- 边缘达标概率 -->
     <g transform="translate(265.428899 136.672828) rotate(-90) scale(0.08 -0.08)">
      <use xlink:href="#NotoSansSC-Thin-63a8"/>
      <use xlink:href="#NotoSansSC-Thin-5316" transform="translate(100 0)"/>
      <use xlink:href="#NotoSansSC-Thin-63ad" transform="translate(200 0)"/>
      <use xlink:href="#NotoSansSC-Thin-3c1b" transform="translate(300 0)"/>
      <use xlink:href="#NotoSansSC-Thin-3d95" transform="translate(400 0)"/>
      <use xlink:href="#NotoSansSC-Thin-478d" transform="translate(500 0)"/>
     </g>
    </g>
   </g>
   <g id="line2d_52">
    <path d="M 273.888899 74.006777 
L 280.879253 68.098667 
L 287.869607 62.512226 
L 293.46189 58.304392 
L 299.054174 54.348294 
L 304.646457 50.657738 
L 308.840669 48.069854 
L 359.171218 51.192444 
L 409.501767 54.536561 
L 413.69598 54.82503 
L 424.880546 51.190719 
L 436.065113 47.816566 
L 445.851608 45.081947 
L 455.638104 42.551755 
L 465.4246 40.224883 
L 476.609166 37.810898 
L 483.59952 36.431783 
L 483.59952 36.431783 
" clip-path="url(#p3839e644e1)" style="fill: none; stroke: #0072b2; stroke-width: 1.4; stroke-linecap: square"/>
    <g clip-path="url(#p3839e644e1)">
     <use xlink:href="#mfea44bc11d" x="273.888899" y="74.006777" style="fill: #0072b2; stroke: #0072b2"/>
     <use xlink:href="#mfea44bc11d" x="301.850315" y="52.469195" style="fill: #0072b2; stroke: #0072b2"/>
     <use xlink:href="#mfea44bc11d" x="329.811731" y="49.343656" style="fill: #0072b2; stroke: #0072b2"/>
     <use xlink:href="#mfea44bc11d" x="357.773147" y="51.102551" style="fill: #0072b2; stroke: #0072b2"/>
     <use xlink:href="#mfea44bc11d" x="385.734564" y="52.930151" style="fill: #0072b2; stroke: #0072b2"/>
     <use xlink:href="#mfea44bc11d" x="413.69598" y="54.82503" style="fill: #0072b2; stroke: #0072b2"/>
     <use xlink:href="#mfea44bc11d" x="441.657396" y="46.228843" style="fill: #0072b2; stroke: #0072b2"/>
     <use xlink:href="#mfea44bc11d" x="469.618812" y="39.289373" style="fill: #0072b2; stroke: #0072b2"/>
    </g>
   </g>
   <g id="line2d_53">
    <path d="M 273.888899 79.10102 
L 280.879253 72.965887 
L 287.869607 67.109785 
L 294.859961 61.583655 
L 300.452244 57.428711 
L 306.044528 53.528985 
L 308.840669 51.678932 
L 359.171218 55.055668 
L 410.899838 58.748094 
L 413.69598 58.953991 
L 424.880546 55.053809 
L 436.065113 51.403923 
L 447.249679 48.01375 
L 457.036175 45.265071 
L 466.82267 42.720628 
L 476.609166 40.379825 
L 483.59952 38.830861 
L 483.59952 38.830861 
" clip-path="url(#p3839e644e1)" style="fill: none; stroke-dasharray: 5.18,2.24; stroke-dashoffset: 0; stroke: #e69f00; stroke-width: 1.4"/>
    <g clip-path="url(#p3839e644e1)">
     <use xlink:href="#m80f4239b7e" x="273.888899" y="79.10102" style="fill: #e69f00; stroke: #e69f00; stroke-linejoin: miter"/>
     <use xlink:href="#m80f4239b7e" x="301.850315" y="56.429327" style="fill: #e69f00; stroke: #e69f00; stroke-linejoin: miter"/>
     <use xlink:href="#m80f4239b7e" x="329.811731" y="53.059403" style="fill: #e69f00; stroke: #e69f00; stroke-linejoin: miter"/>
     <use xlink:href="#m80f4239b7e" x="357.773147" y="54.958848" style="fill: #e69f00; stroke: #e69f00; stroke-linejoin: miter"/>
     <use xlink:href="#m80f4239b7e" x="385.734564" y="56.924341" style="fill: #e69f00; stroke: #e69f00; stroke-linejoin: miter"/>
     <use xlink:href="#m80f4239b7e" x="413.69598" y="58.953991" style="fill: #e69f00; stroke: #e69f00; stroke-linejoin: miter"/>
     <use xlink:href="#m80f4239b7e" x="441.657396" y="49.675938" style="fill: #e69f00; stroke: #e69f00; stroke-linejoin: miter"/>
     <use xlink:href="#m80f4239b7e" x="469.618812" y="42.031194" style="fill: #e69f00; stroke: #e69f00; stroke-linejoin: miter"/>
    </g>
   </g>
   <g id="line2d_54">
    <path d="M 273.888899 83.189392 
L 282.277324 75.674497 
L 289.267678 69.687052 
L 296.258032 64.007795 
L 301.850315 59.717624 
L 307.442598 55.673544 
L 308.840669 54.702823 
L 361.96736 58.475777 
L 413.69598 62.367367 
L 424.880546 58.269553 
L 436.065113 54.411247 
L 447.249679 50.805361 
L 458.434245 47.460436 
L 468.220741 44.751501 
L 478.007237 42.247072 
L 483.59952 40.907355 
L 483.59952 40.907355 
" clip-path="url(#p3839e644e1)" style="fill: none; stroke-dasharray: 8.96,2.24,1.4,2.24; stroke-dashoffset: 0; stroke: #009e73; stroke-width: 1.4"/>
    <g clip-path="url(#p3839e644e1)">
     <use xlink:href="#mfc8999bfde" x="273.888899" y="83.189392" style="fill: #009e73; stroke: #009e73; stroke-linejoin: miter"/>
     <use xlink:href="#mfc8999bfde" x="301.850315" y="59.717624" style="fill: #009e73; stroke: #009e73; stroke-linejoin: miter"/>
     <use xlink:href="#mfc8999bfde" x="329.811731" y="56.164345" style="fill: #009e73; stroke: #009e73; stroke-linejoin: miter"/>
     <use xlink:href="#mfc8999bfde" x="357.773147" y="58.169541" style="fill: #009e73; stroke: #009e73; stroke-linejoin: miter"/>
     <use xlink:href="#mfc8999bfde" x="385.734564" y="60.237919" style="fill: #009e73; stroke: #009e73; stroke-linejoin: miter"/>
     <use xlink:href="#mfc8999bfde" x="413.69598" y="62.367367" style="fill: #009e73; stroke: #009e73; stroke-linejoin: miter"/>
     <use xlink:href="#mfc8999bfde" x="441.657396" y="52.576128" style="fill: #009e73; stroke: #009e73; stroke-linejoin: miter"/>
     <use xlink:href="#mfc8999bfde" x="469.618812" y="44.381275" style="fill: #009e73; stroke: #009e73; stroke-linejoin: miter"/>
    </g>
   </g>
   <g id="line2d_55">
    <path d="M 273.888899 87.654484 
L 283.675395 78.722924 
L 290.665749 72.603072 
L 297.656103 66.765638 
L 304.646457 61.260888 
L 308.840669 58.13529 
L 361.96736 62.115497 
L 413.69598 66.195264 
L 424.880546 61.898444 
L 436.065113 57.826722 
L 447.249679 53.996126 
L 458.434245 50.418889 
L 469.618812 47.103314 
L 479.405308 44.420661 
L 483.59952 43.333468 
L 483.59952 43.333468 
" clip-path="url(#p3839e644e1)" style="fill: none; stroke-dasharray: 1.4,2.31; stroke-dashoffset: 0; stroke: #cc79a7; stroke-width: 1.4"/>
    <g clip-path="url(#p3839e644e1)">
     <use xlink:href="#m7fa26b5df1" x="273.888899" y="87.654484" style="fill: #cc79a7; stroke: #cc79a7; stroke-linejoin: miter"/>
     <use xlink:href="#m7fa26b5df1" x="301.850315" y="63.419935" style="fill: #cc79a7; stroke: #cc79a7; stroke-linejoin: miter"/>
     <use xlink:href="#m7fa26b5df1" x="329.811731" y="59.679958" style="fill: #cc79a7; stroke: #cc79a7; stroke-linejoin: miter"/>
     <use xlink:href="#m7fa26b5df1" x="357.773147" y="61.793327" style="fill: #cc79a7; stroke: #cc79a7; stroke-linejoin: miter"/>
     <use xlink:href="#m7fa26b5df1" x="385.734564" y="63.96592" style="fill: #cc79a7; stroke: #cc79a7; stroke-linejoin: miter"/>
     <use xlink:href="#m7fa26b5df1" x="413.69598" y="66.195264" style="fill: #cc79a7; stroke: #cc79a7; stroke-linejoin: miter"/>
     <use xlink:href="#m7fa26b5df1" x="441.657396" y="55.880427" style="fill: #cc79a7; stroke: #cc79a7; stroke-linejoin: miter"/>
     <use xlink:href="#m7fa26b5df1" x="469.618812" y="47.103314" style="fill: #cc79a7; stroke: #cc79a7; stroke-linejoin: miter"/>
    </g>
   </g>
   <g id="line2d_56">
    <path d="M 273.888899 95.925105 
L 286.471536 84.167413 
L 294.859961 76.613291 
L 301.850315 70.583386 
L 308.840669 64.853907 
L 364.763501 69.409576 
L 413.69598 73.559627 
L 426.278617 68.378161 
L 438.861254 63.442694 
L 450.045821 59.2867 
L 461.230387 55.366436 
L 472.414954 51.695519 
L 483.59952 48.283688 
L 483.59952 48.283688 
" clip-path="url(#p3839e644e1)" style="fill: none; stroke-dasharray: 7,2.8; stroke-dashoffset: 0; stroke: #56b4e9; stroke-width: 1.4"/>
    <g clip-path="url(#p3839e644e1)">
     <use xlink:href="#m0ec05f23ec" x="273.888899" y="95.925105" style="fill: #56b4e9; stroke: #56b4e9; stroke-linejoin: miter"/>
     <use xlink:href="#m0ec05f23ec" x="301.850315" y="70.583386" style="fill: #56b4e9; stroke: #56b4e9; stroke-linejoin: miter"/>
     <use xlink:href="#m0ec05f23ec" x="329.811731" y="66.537366" style="fill: #56b4e9; stroke: #56b4e9; stroke-linejoin: miter"/>
     <use xlink:href="#m0ec05f23ec" x="357.773147" y="68.828753" style="fill: #56b4e9; stroke: #56b4e9; stroke-linejoin: miter"/>
     <use xlink:href="#m0ec05f23ec" x="385.734564" y="71.170587" style="fill: #56b4e9; stroke: #56b4e9; stroke-linejoin: miter"/>
     <use xlink:href="#m0ec05f23ec" x="413.69598" y="73.559627" style="fill: #56b4e9; stroke: #56b4e9; stroke-linejoin: miter"/>
     <use xlink:href="#m0ec05f23ec" x="441.657396" y="62.382592" style="fill: #56b4e9; stroke: #56b4e9; stroke-linejoin: miter"/>
     <use xlink:href="#m0ec05f23ec" x="469.618812" y="52.589132" style="fill: #56b4e9; stroke: #56b4e9; stroke-linejoin: miter"/>
    </g>
   </g>
   <g id="line2d_57">
    <path d="M 273.888899 59.076812 
L 483.59952 59.076812 
" clip-path="url(#p3839e644e1)" style="fill: none; stroke-dasharray: 1.4,2.31; stroke-dashoffset: 0; stroke: #d55e00; stroke-width: 1.4"/>
   </g>
   <g id="patch_6">
    <path d="M 273.888899 201.99952 
L 273.888899 23.346135 
" style="fill: none; stroke: #000000; stroke-width: 0.7; stroke-linejoin: miter; stroke-linecap: square"/>
   </g>
   <g id="patch_7">
    <path d="M 273.888899 201.99952 
L 483.59952 201.99952 
" style="fill: none; stroke: #000000; stroke-width: 0.7; stroke-linejoin: miter; stroke-linecap: square"/>
   </g>
   <g id="text_34">
    <!-- b -->
    <g transform="translate(250.820731 15.12) scale(0.09 -0.09)">
     <defs>
      <path id="NotoSansSC-Thin-43" d="M 1933 -83 
Q 1696 -83 1424 32 
Q 1152 147 915 339 
L 896 339 
L 864 0 
L 672 0 
L 672 5082 
L 902 5082 
L 902 3584 
L 883 2906 
Q 1146 3130 1453 3293 
Q 1760 3456 2074 3456 
Q 2534 3456 2835 3241 
Q 3136 3027 3283 2643 
Q 3430 2259 3430 1734 
Q 3430 1165 3222 755 
Q 3014 346 2675 131 
Q 2336 -83 1933 -83 
z
M 1952 128 
Q 2310 128 2588 333 
Q 2867 538 3027 902 
Q 3187 1267 3187 1734 
Q 3187 2163 3075 2505 
Q 2963 2848 2716 3046 
Q 2470 3245 2054 3245 
Q 1798 3245 1507 3094 
Q 1216 2944 902 2662 
L 902 582 
Q 1190 333 1472 230 
Q 1754 128 1952 128 
z
" transform="scale(0.015625)"/>
     </defs>
     <use xlink:href="#NotoSansSC-Thin-43"/>
    </g>
   </g>
   <g id="text_35">
    <!-- 诊断模型：分段线性 -->
    <g transform="translate(338.24421 17.346135) scale(0.09 -0.09)">
     <defs>
      <path id="NotoSansSC-Thin-5fbc" d="M 954 5030 
L 1088 5152 
Q 1248 5024 1414 4867 
Q 1581 4710 1725 4560 
Q 1869 4410 1952 4288 
L 1811 4141 
Q 1722 4262 1581 4419 
Q 1440 4576 1277 4736 
Q 1114 4896 954 5030 
z
M 1248 -205 
L 1242 -6 
L 1350 154 
L 2400 845 
Q 2413 813 2435 768 
Q 2458 723 2470 691 
Q 2086 422 1856 262 
Q 1626 102 1504 16 
Q 1382 -70 1331 -118 
Q 1280 -166 1248 -205 
z
M 346 3270 
L 1542 3270 
L 1542 3078 
L 346 3078 
L 346 3270 
z
M 1248 -205 
Q 1235 -179 1209 -150 
Q 1184 -122 1161 -93 
Q 1139 -64 1114 -45 
Q 1158 -13 1235 60 
Q 1312 134 1373 243 
Q 1434 352 1434 493 
L 1434 3270 
L 1619 3270 
L 1619 198 
Q 1619 198 1580 166 
Q 1542 134 1488 86 
Q 1434 38 1379 -19 
Q 1325 -77 1286 -125 
Q 1248 -173 1248 -205 
z
M 4205 5094 
Q 4416 4742 4736 4390 
Q 5056 4038 5427 3753 
Q 5798 3469 6150 3302 
Q 6125 3283 6093 3254 
Q 6061 3226 6035 3194 
Q 6010 3162 5990 3130 
Q 5645 3315 5277 3619 
Q 4909 3923 4582 4288 
Q 4256 4653 4032 5018 
L 4205 5094 
z
M 4141 5306 
L 4346 5254 
Q 4045 4634 3520 4074 
Q 2995 3514 2323 3098 
Q 2310 3117 2281 3139 
Q 2253 3162 2224 3184 
Q 2195 3206 2170 3219 
Q 2618 3482 2998 3818 
Q 3379 4154 3673 4534 
Q 3968 4915 4141 5306 
z
M 4301 3533 
L 4480 3456 
Q 4275 3213 3993 2976 
Q 3712 2739 3401 2537 
Q 3091 2336 2790 2189 
Q 2765 2221 2726 2262 
Q 2688 2304 2650 2330 
Q 2950 2464 3257 2659 
Q 3565 2854 3840 3078 
Q 4115 3302 4301 3533 
z
M 4883 2560 
L 5056 2483 
Q 4838 2163 4508 1862 
Q 4179 1562 3792 1315 
Q 3405 1069 3002 896 
Q 2976 928 2934 973 
Q 2893 1018 2854 1043 
Q 3264 1203 3648 1440 
Q 4032 1677 4352 1965 
Q 4672 2253 4883 2560 
z
M 5651 1619 
L 5830 1536 
Q 5421 826 4614 320 
Q 3808 -186 2733 -448 
Q 2714 -416 2678 -368 
Q 2643 -320 2611 -282 
Q 3322 -122 3910 147 
Q 4499 416 4944 790 
Q 5389 1165 5651 1619 
z
" transform="scale(0.015625)"/>
      <path id="NotoSansSC-Thin-39c4" d="M 1043 3315 
L 3334 3315 
L 3334 3123 
L 1043 3123 
L 1043 3315 
z
M 742 461 
L 3200 461 
L 3200 269 
L 742 269 
L 742 461 
z
M 640 5069 
L 832 5069 
L 832 269 
L 640 269 
L 640 5069 
z
M 2106 5293 
L 2298 5293 
L 2298 723 
L 2106 723 
L 2106 5293 
z
M 2086 3238 
L 2234 3181 
Q 2112 2822 1923 2441 
Q 1734 2061 1516 1731 
Q 1299 1402 1082 1184 
Q 1056 1216 1021 1264 
Q 986 1312 954 1338 
Q 1165 1536 1382 1849 
Q 1600 2163 1785 2524 
Q 1971 2886 2086 3238 
z
M 3040 4915 
L 3213 4832 
Q 3098 4550 2957 4227 
Q 2816 3904 2688 3680 
L 2541 3757 
Q 2624 3910 2717 4118 
Q 2810 4326 2896 4537 
Q 2982 4749 3040 4915 
z
M 1190 4845 
L 1357 4902 
Q 1485 4634 1584 4317 
Q 1683 4000 1709 3770 
L 1530 3706 
Q 1504 3942 1411 4259 
Q 1318 4576 1190 4845 
z
M 2278 3034 
Q 2342 2963 2473 2803 
Q 2605 2643 2761 2451 
Q 2918 2259 3046 2092 
Q 3174 1926 3232 1850 
L 3085 1696 
Q 3027 1792 2902 1965 
Q 2778 2138 2630 2330 
Q 2483 2522 2352 2688 
Q 2221 2854 2150 2931 
L 2278 3034 
z
M 3686 3123 
L 6093 3123 
L 6093 2938 
L 3686 2938 
L 3686 3123 
z
M 5114 3014 
L 5299 3014 
L 5299 -461 
L 5114 -461 
L 5114 3014 
z
M 5862 5306 
L 6022 5158 
Q 5741 5037 5353 4925 
Q 4966 4813 4540 4723 
Q 4115 4634 3712 4563 
Q 3706 4595 3686 4636 
Q 3667 4678 3642 4717 
Q 4032 4794 4451 4886 
Q 4870 4979 5244 5088 
Q 5619 5197 5862 5306 
z
M 3642 4717 
L 3827 4717 
L 3827 2579 
Q 3827 2010 3788 1485 
Q 3750 960 3625 477 
Q 3501 -6 3251 -454 
Q 3226 -422 3184 -393 
Q 3142 -365 3104 -339 
Q 3347 83 3459 560 
Q 3571 1037 3606 1545 
Q 3642 2054 3642 2573 
L 3642 4717 
z
" transform="scale(0.015625)"/>
      <path id="NotoSansSC-Thin-263a" d="M 1152 2822 
L 5018 2822 
L 5018 2637 
L 1152 2637 
L 1152 2822 
z
M 4941 2822 
L 5133 2822 
Q 5133 2822 5133 2796 
Q 5133 2771 5133 2742 
Q 5133 2714 5126 2694 
Q 5082 1939 5040 1414 
Q 4998 890 4950 550 
Q 4902 211 4838 22 
Q 4774 -166 4685 -256 
Q 4608 -339 4515 -368 
Q 4422 -397 4275 -397 
Q 4122 -403 3830 -393 
Q 3539 -384 3219 -358 
Q 3213 -314 3200 -262 
Q 3187 -211 3155 -166 
Q 3514 -198 3821 -208 
Q 4128 -218 4237 -218 
Q 4448 -218 4525 -147 
Q 4621 -51 4694 253 
Q 4768 557 4829 1165 
Q 4890 1773 4941 2778 
L 4941 2822 
z
M 2182 5139 
L 2374 5088 
Q 2163 4570 1875 4106 
Q 1587 3642 1244 3254 
Q 902 2867 525 2573 
Q 512 2592 480 2614 
Q 448 2637 416 2662 
Q 384 2688 358 2701 
Q 749 2982 1091 3363 
Q 1434 3744 1712 4195 
Q 1990 4646 2182 5139 
z
M 4211 5152 
Q 4365 4813 4579 4464 
Q 4794 4115 5043 3795 
Q 5293 3475 5558 3216 
Q 5824 2957 6074 2784 
Q 6048 2765 6019 2739 
Q 5990 2714 5964 2685 
Q 5939 2656 5920 2630 
Q 5670 2816 5408 3091 
Q 5146 3366 4896 3696 
Q 4646 4026 4425 4381 
Q 4205 4736 4045 5082 
L 4211 5152 
z
M 2605 2778 
L 2803 2778 
Q 2739 2266 2614 1779 
Q 2490 1293 2250 861 
Q 2010 429 1606 89 
Q 1203 -250 576 -467 
Q 563 -448 544 -422 
Q 525 -397 502 -374 
Q 480 -352 461 -333 
Q 1075 -128 1468 201 
Q 1862 531 2092 947 
Q 2323 1363 2435 1830 
Q 2547 2298 2605 2778 
z
" transform="scale(0.015625)"/>
      <path id="NotoSansSC-Thin-3fc7" d="M 3654 5088 
L 4979 5088 
L 4979 4902 
L 3654 4902 
L 3654 5088 
z
M 3046 2381 
L 5312 2381 
L 5312 2189 
L 3046 2189 
L 3046 2381 
z
M 928 3686 
L 2630 3686 
L 2630 3501 
L 928 3501 
L 928 3686 
z
M 934 2381 
L 2637 2381 
L 2637 2189 
L 934 2189 
L 934 2381 
z
M 3411 2214 
Q 3629 1619 4013 1123 
Q 4397 627 4918 272 
Q 5440 -83 6067 -256 
Q 6042 -275 6016 -304 
Q 5990 -333 5971 -361 
Q 5952 -390 5933 -416 
Q 4986 -128 4288 547 
Q 3590 1222 3251 2157 
L 3411 2214 
z
M 282 858 
Q 582 902 979 966 
Q 1376 1030 1827 1107 
Q 2278 1184 2746 1254 
L 2752 1075 
Q 2093 960 1446 854 
Q 800 749 326 666 
L 282 858 
z
M 2515 5312 
L 2707 5178 
Q 2477 5069 2179 4973 
Q 1882 4877 1558 4793 
Q 1235 4710 928 4640 
Q 922 4672 896 4717 
Q 870 4762 851 4794 
Q 1152 4864 1465 4947 
Q 1779 5030 2057 5126 
Q 2336 5222 2515 5312 
z
M 3546 5088 
L 3731 5088 
L 3731 4326 
Q 3731 4064 3667 3769 
Q 3603 3475 3427 3190 
Q 3251 2906 2912 2669 
Q 2899 2694 2873 2716 
Q 2848 2739 2822 2761 
Q 2797 2784 2771 2797 
Q 3098 3027 3264 3289 
Q 3430 3552 3488 3821 
Q 3546 4090 3546 4326 
L 3546 5088 
z
M 5274 2381 
L 5318 2381 
L 5357 2394 
L 5478 2336 
Q 5274 1517 4845 960 
Q 4416 403 3846 60 
Q 3277 -282 2637 -467 
Q 2630 -442 2611 -413 
Q 2592 -384 2569 -355 
Q 2547 -326 2522 -307 
Q 3142 -147 3699 182 
Q 4256 512 4672 1040 
Q 5088 1568 5274 2336 
L 5274 2381 
z
M 851 4800 
L 1043 4736 
L 1043 -397 
L 851 -397 
L 851 4800 
z
M 4896 5088 
L 5082 5088 
L 5082 3341 
Q 5082 3219 5104 3184 
Q 5126 3149 5203 3149 
Q 5248 3149 5369 3149 
Q 5491 3149 5616 3149 
Q 5741 3149 5786 3149 
Q 5837 3149 5920 3152 
Q 6003 3155 6054 3162 
Q 6061 3130 6064 3082 
Q 6067 3034 6074 3008 
Q 6029 3002 5952 2998 
Q 5875 2995 5792 2995 
Q 5747 2995 5612 2995 
Q 5478 2995 5350 2995 
Q 5222 2995 5190 2995 
Q 5069 2995 5005 3027 
Q 4941 3059 4918 3136 
Q 4896 3213 4896 3347 
L 4896 5088 
z
" transform="scale(0.015625)"/>
     </defs>
     <use xlink:href="#NotoSansSC-Thin-5fbc"/>
     <use xlink:href="#NotoSansSC-Thin-39c4" transform="translate(100 0)"/>
     <use xlink:href="#NotoSansSC-Thin-3e34" transform="translate(200 0)"/>
     <use xlink:href="#NotoSansSC-Thin-2bb3" transform="translate(300 0)"/>
     <use xlink:href="#NotoSansSC-Thin-775c" transform="translate(400 0)"/>
     <use xlink:href="#NotoSansSC-Thin-263a" transform="translate(500 0)"/>
     <use xlink:href="#NotoSansSC-Thin-3fc7" transform="translate(600 0)"/>
     <use xlink:href="#NotoSansSC-Thin-52bd" transform="translate(700 0)"/>
     <use xlink:href="#NotoSansSC-Thin-3443" transform="translate(800 0)"/>
    </g>
   </g>
  </g>
 </g>
 <defs>
  <clipPath id="pff2dd628ac">
   <rect x="35.109688" y="23.346135" width="209.710621" height="178.653385"/>
  </clipPath>
  <clipPath id="p3839e644e1">
   <rect x="273.888899" y="23.346135" width="209.710621" height="178.653385"/>
  </clipPath>
 </defs>
</svg>
